<svg xmlns="http://www.w3.org/2000/svg" width="800" height="800" fill="#fff" viewBox="-1 0 32 32"><title>faction_crucible</title><path d="m3.57 4.514.063.127c.136.326.254.657.418.97.198.323.454.591.755.798l.009.006c.902.714 1.806 1.421 2.697 2.145s1.782 1.478 2.673 2.218a.3.3 0 0 0 .101.054h.002a24 24 0 0 0-2.719-2.641l-.04-.032-.039-.033.024-.042h.096c.694.114 1.39.219 2.082.366.534.103 1.062.219 1.434.676.136.16.247.344.372.508.048.063.105.123.184.219.175-.805.293-1.745.328-2.706l.001-.029-.046-.018c-.033.06-.067.132-.096.207l-.004.012v.013c-.026.081-.031.171-.05.254a.4.4 0 0 1-.053.088l.001-.001c-.028-.024-.07-.044-.083-.074a1.35 1.35 0 0 1 .003-1.136l-.003.008c.116-.247.265-.475.392-.7-.175.018-.377.048-.578.055-.258 0-.458-.103-.499-.278h.251a.55.55 0 0 0 .528-.386l.001-.004c.123-.296.252-.591.398-.876a.4.4 0 0 0 .048-.194v-.003a.5.5 0 0 0-.036-.176l.001.003a2.1 2.1 0 0 0-.518-.823.52.52 0 0 0-.325-.136h-.044q-.268 0-.51.075l.012-.003h.013a.596.596 0 0 1-.71-.196l-.001-.002a.9.9 0 0 0-.292-.216l-.006-.002a.464.464 0 0 0-.687.272l-.001.003c-.024.063-.046.127-.079.219a.7.7 0 0 1-.113-.102L8.924 3a1.28 1.28 0 0 1 .305-1.771l.004-.003c.13-.093.283-.162.449-.2l.008-.002c.177-.059.344-.149.517-.219.119-.052.258-.084.404-.088h.001c.484.028.965.081 1.449.12.167.021.36.033.555.033h.139c.403 0 .74-.286.817-.667l.001-.005a.6.6 0 0 1 .043-.124l-.002.004a1 1 0 0 1 .07-.083c.022.028.053.055.059.085.068.315.039.718-.344.917-.142.07-.282.144-.458.236l.438.162.438.169-.306.254c.326.219.729.328.917.703l-.022.039a1 1 0 0 1-.174-.082l.005.003a.9.9 0 0 0-.495-.149.9.9 0 0 0-.33.072l.006-.002c.305.352.56.758.746 1.201l.011.03v.031c.177.458.366.917.558 1.401-.254-.079-.396-.287-.626-.394.066.127.127.252.193.374.192.305.324.666.369 1.054l.001.012v.068q0 .185-.039.359l.002-.011v-.011a3.4 3.4 0 0 0-.55-.734c-.232.394.363 2.511.832 2.938.486-.499 1.04-2.469.803-2.909a1 1 0 0 0-.328.343l-.003.005c-.044.07-.074.149-.114.219a.4.4 0 0 1-.096.071l-.002.001a.3.3 0 0 1-.045-.098l-.001-.002-.002-.066.002-.069v.003-.002c0-.261.058-.509.162-.731l-.004.011v.011c.123-.271.261-.534.407-.832l-.639.438-.035-.035a.5.5 0 0 1 .045-.121l-.002.003c.236-.547.477-1.112.753-1.659.157-.281.322-.523.505-.75l-.008.01c.066-.092.057-.129-.046-.166a.6.6 0 0 0-.142-.018h-.003a.54.54 0 0 0-.294.087l.002-.001c-.134.061-.261.136-.392.201a.1.1 0 0 1-.053.013h-.028c.193-.42.552-.637 1.009-.781l-.169-.123-.153-.114.847-.337c-.361-.188-.768-.298-.832-.749V.409q.002-.19.023-.375L16.08.05v.015h.061c.02.055.042.114.057.164a.88.88 0 0 0 .517.639l.006.002a1 1 0 0 0 .329.057h.089c.525-.035 1.049-.085 1.574-.131q.11-.003.214-.023l-.008.001q.064-.007.139-.007c.278 0 .538.076.761.21l-.007-.004c.097.051.209.091.327.115l.008.001c.382.048.69.315.797.67l.002.007a1.399 1.399 0 0 1-.026 1.127l.004-.009a2 2 0 0 1-.167.244l.003-.003a2 2 0 0 1-.087-.193l-.003-.01v-.011c-.079-.344-.392-.545-.81-.219q-.135.107-.241.234l-.002.003a.44.44 0 0 1-.35.175h-.007a.4.4 0 0 1-.105-.014l.003.001q-.244-.048-.484-.099a.495.495 0 0 0-.587.247l-.001.003a10 10 0 0 0-.438.771.366.366 0 0 0 .019.261l-.001-.002c.094.239.219.464.302.703s.193.458.458.528c.085.011.184.018.284.018h.002c.079 0 .158 0 .236-.011a.6.6 0 0 1-.079.117v-.001a.8.8 0 0 1-.513.182h-.002a1 1 0 0 1-.123 0h.003l-.506-.09c.556.593.755 1.224.392 1.957-.103-.197-.048-.46-.28-.637.023 1.001.122 1.961.291 2.897l-.017-.113-.015-.112.044.015c.079-.096.155-.195.236-.289a7 7 0 0 1 .549-.61l.001-.001a2.06 2.06 0 0 1 1.005-.421l.011-.001c.687-.14 1.384-.258 2.077-.385l.219-.039.031.046-3.054 2.894.035.039c.123-.098.245-.193.366-.293.766-.641 1.532-1.287 2.299-1.918.67-.547 1.355-1.077 2.034-1.611.46-.357.917-.694 1.362-1.068.446-.397.759-.934.873-1.542l.003-.017v-.018a1 1 0 0 1 .064-.163l-.002.005c.262.366.474.791.613 1.247l.008.031v.031c.056.189.088.406.088.631v.002q-.001.361-.103.691l.004-.017v-.018a1.38 1.38 0 0 1-.703.83l-.008.004c-.738.414-1.482.823-2.215 1.239-.83.475-1.664.941-2.478 1.447a34 34 0 0 0-3.062 2.163l.069-.053.072-.055q-.07.058-.129.116l.022.026c.164-.114.331-.219.495-.35a24 24 0 0 1 2.027-1.294l.249-.131c.727-.416 1.447-.845 2.176-1.25.657-.368 1.34-.716 2.014-1.066.438-.219.876-.425 1.313-.646.342-.167.629-.334.903-.518l-.027.017-.028.018a3 3 0 0 0 .434-.432l.004-.005c.033-.035.059-.072.107-.134a1.383 1.383 0 0 1-.095 1.126l.004-.007q-.123.227-.321.374l-.003.002c-.845.549-1.637 1.171-2.443 1.775-.708.537-1.518.998-2.386 1.347l-.071.025-.07.024c-.517.199-1.051.344-1.578.514q-.704.226-1.412.438a1.3 1.3 0 0 0-.193.094l.007-.004.011.035 2.513-.475.031.037a1 1 0 0 1-.098.114c-.403.306-.808.617-1.219.917a7 7 0 0 1-.692.464l-.035.019-.037.02a1.7 1.7 0 0 1-.794.193h-.003c-.066 0-.131 0-.197-.011h-.495c-.048 0-.092.055-.138.085.037.039.07.114.114.114.552.081 1.11.193 1.648-.061a7 7 0 0 0 .594-.358l-.023.015c.224-.12.49-.19.772-.19h.022l3.494-.085q.224 0 .435.039l-.015-.002h-.015a1 1 0 0 1-.1.107l-.001.001c-.644.468-1.285.939-1.933 1.403a6 6 0 0 1-.551.359l-.029.015-.031.015a1.5 1.5 0 0 1-.697.171h-.004q-.225-.001-.431-.062l.011.003c-.698-.171-1.39-.361-2.082-.547-.331-.09-.657-.188-.989-.28-.068-.02-.149-.057-.186.046a.138.138 0 0 0 .059.185h.001a.2.2 0 0 0 .042.013h.002l.784.25 1.423.458.976.317c.02 0 .039.018.077.068-.158.077-.309.16-.468.219-.736.311-1.5.291-2.27.177-.335-.048-.674-.063-1.009-.12a.55.55 0 0 0-.592.284l-.001.003c-.267.398-.552.771-.821 1.162a.3.3 0 0 0-.039.144v.893l.001.01-.001.01a1 1 0 0 1 0 .164v-.004l-.7-.416c-.008.04-.014.089-.017.138v2.154l-.004.057c0 .204.14.376.329.424l.003.001c.324.123.603.297.84.514l-.002-.002c.153.114.296.247.438.37q.06.035.1.091l.001.001a1.41 1.41 0 0 1-1.103-.004l.009.003a2.3 2.3 0 0 1-.872-.68l-.004-.005c-.015.085-.028.134-.033.184a4.135 4.135 0 0 0 .354 1.914l-.011-.026c.153.392.282.792.42 1.191a.807.807 0 0 1-.206.849c-.328.37-.672.725-1.011 1.095l-.046.05c-.179.197-.184.204-.37 0-.359-.387-.711-.777-1.064-1.167a.79.79 0 0 1-.219-.538q.002-.177.072-.329l-.002.005c.208-.574.42-1.147.622-1.718.046-.129.076-.279.083-.435v-.003c.013-.32 0-.639 0-.998-.14.107-.25.199-.368.28-.19.134-.381.267-.582.381a.7.7 0 0 1-.328.081c-.245.013-.493 0-.738 0l-.015-.048.131-.12c.256-.219.501-.438.768-.644a2 2 0 0 1 .481-.252l.014-.004h.013a.44.44 0 0 0 .345-.428l-.002-.04v.002-2.108a2 2 0 0 0-.021-.23l.001.011v.011l-.766.401c0-.061-.013-.099-.013-.136v-.653a1.3 1.3 0 0 0-.342-.877l.001.001a7 7 0 0 1-.517-.695l-.017-.028-.018-.028a.44.44 0 0 0-.388-.234h-.004a.4.4 0 0 0-.069 0h.001c-.521.057-1.04.096-1.561.144a3.51 3.51 0 0 1-2.107-.394l.019.009a2 2 0 0 1-.209-.156l.003.003.438-.153 1.554-.499c.414-.131.827-.258 1.241-.392a.3.3 0 0 0 .146-.104l.001-.001a.2.2 0 0 0 .013-.063v-.002a.2.2 0 0 0-.022-.084v.001c-.013-.024-.083-.035-.114-.024-.525.144-1.046.296-1.572.438s-1.081.311-1.629.438a1.754 1.754 0 0 1-1.485-.379l.003.002c-.574-.438-1.167-.854-1.751-1.278-.114-.083-.219-.162-.344-.241a1 1 0 0 0-.112-.053l-.006-.002.046-.072c.045-.007.1-.013.156-.015h.004l3.533.085q.333.002.652.042l-.026-.003h-.024c.242.03.456.131.625.281l-.001-.001c.234.22.55.355.898.355h.054c.344-.015.676-.048 1.014-.074.079 0 .144-.033.136-.151h-.169a10 10 0 0 1-.9.042h-.057a1.86 1.86 0 0 1-1.043-.478l.001.001c-.394-.304-.803-.598-1.197-.895a5 5 0 0 1-.324-.254.2.2 0 0 1-.041-.066l-.001-.002.018-.044 2.498.438.011-.024a1.4 1.4 0 0 0-.163-.073l-.01-.003h-.013c-.847-.258-1.701-.506-2.546-.777a11.8 11.8 0 0 1-3.3-1.785l.027.02c-.711-.514-1.425-1.018-2.137-1.532a1.4 1.4 0 0 1-.259-.237l-.002-.002a.56.56 0 0 1-.158-.385q0-.087.025-.166l-.001.004c.048-.164.088-.333.136-.499a.5.5 0 0 1 .067-.117l-.001.001q.045.036.08.078l.001.001c.254.425.657.641 1.095.838s.852.387 1.261.602c1.003.523 2.005 1.046 2.995 1.591.753.414 1.491.854 2.233 1.292.761.441 1.41.882 2.026 1.364l-.038-.029-.026-.024q.053.038.116.073l.007.003.024-.037c-.098-.081-.195-.169-.298-.245-.418-.313-.832-.628-1.261-.93a31 31 0 0 0-2.631-1.7l-.154-.082-.166-.088c-.624-.35-1.252-.703-1.876-1.06-.53-.304-1.062-.609-1.585-.933a1.45 1.45 0 0 1-.687-1.214v-.163c0-.665.216-1.28.582-1.779l-.006.008c.037-.048.079-.09.131-.153zm10.99 10.569a1.3 1.3 0 0 0-.049-.207l.003.01a.88.88 0 0 0-.519-.515l-.006-.002a2.34 2.34 0 0 1-1.286-1.192l-.006-.014v-.015c-.324-.698-.368-1.394.02-2.082a2.34 2.34 0 0 1 3.059-.97l-.014-.006c.401.205.721.52.927.906l.006.012a2.298 2.298 0 0 1-.463 2.964l-.003.003a4 4 0 0 1-.602.427l-.02.01h-.022a1.1 1.1 0 0 0-.521.592l-.002.008c-.035.114 0 .149.116.127.142-.021.265-.047.385-.08l-.022.005h-.02a2.95 2.95 0 0 0 1.766-1.309l.007-.013c.253-.421.403-.93.403-1.473q-.001-.423-.115-.809l.005.02v.022a2.8 2.8 0 0 0-1.559-1.919l-.017-.007h-.018a2.9 2.9 0 0 0-1.197-.254h-.008q-.35.002-.678.076l.021-.004h.02a2.73 2.73 0 0 0-1.53.849l-.002.002a2.74 2.74 0 0 0-.738 1.876v.007q0 .343.081.66l-.004-.019v-.02a2.87 2.87 0 0 0 1.843 2.198l.02.006c.206.086.446.136.697.136h.059zM11.543 1.51c-.182-.138-.333-.293-.525-.267-.296.054-.556.13-.805.229l.028-.01h.028c-.081.026-.077.096 0 .136.084.046.183.09.285.127l.015.005h.015a.6.6 0 0 0 .192.033h.026a.6.6 0 0 0 .12-.012l-.004.001c.204-.057.392-.151.63-.243zm7.802-.03c-.19-.07-.368-.14-.547-.201-.261-.09-.46.046-.657.184.32.296.946.401 1.202.022z"/><path d="M11.469 21.738c-.219.063-.418.136-.613.169-.82.158-1.537.52-2.12 1.033l.005-.004c-.171.144-.337.296-.508.438-.066.055-.085.103-.024.182q.3.386.591.777a.16.16 0 0 0 .131.07l.023.002.024-.002h-.001c.195-.049.364-.142.502-.268l-.001.001a.6.6 0 0 0 .284-.419v-.003c0-.096.142-.188.219-.267h.046a.15.15 0 0 1 .103.04c.151.186.289.379.438.574a.1.1 0 0 1 .031.07v.002a.1.1 0 0 1-.031.071h-.015a.42.42 0 0 1-.326.153h-.079a.33.33 0 0 0-.193.062l.001-.001c-.236.164-.466.344-.698.51a.27.27 0 0 0-.131.218v.001q0 .06.025.11l-.001-.002c.084.194.165.352.253.505l-.013-.024v-.024c.431.696.864 1.295 1.335 1.861l-.021-.026a.15.15 0 0 0 .131.072h.001a.16.16 0 0 0 .083-.024h-.001l.024-.011c.081-.061.131-.035.199.028a.44.44 0 0 1 .102.621l.001-.001a.57.57 0 0 1-.435.319h-.003c-.3.057-.508 0-.637-.278a.5.5 0 0 0-.053-.084l.001.001c-.125-.193-.129-.197.039-.344.09-.074.048-.136 0-.199-.175-.245-.357-.486-.532-.731a9 9 0 0 0-1.053-1.23l-.002-.002c-.219-.219-.368-.219-.604-.013-.171.147-.366.265-.528.418a2 2 0 0 0-.214.314l-.005.01c-.08.12-.159.224-.243.322l.004-.005c-.015.017-.101 0-.116-.02-.164-.204-.32-.412-.482-.617q-.028-.026-.029-.068c-.001-.042.011-.051.029-.068l.024-.017a.52.52 0 0 1 .378-.162h.003l.04-.002.042.002h-.002.023a.3.3 0 0 0 .188-.064l-.001.001c.147-.107.282-.219.423-.344a.5.5 0 0 0 .091-.097l.001-.002a.2.2 0 0 0 .061-.144v-.001a.2.2 0 0 0-.055-.137c-.184-.219-.344-.458-.51-.679a.4.4 0 0 0-.155-.113l-.003-.001a1.1 1.1 0 0 1-.52-.312l-.001-.001c-.024-.035-.096-.048-.147-.057-.179-.028-.219-.072-.23-.245a.24.24 0 0 0-.089-.146h-.001c-.254-.175-.291-.285-.16-.567a.3.3 0 0 0 .035-.137v-.002a.3.3 0 0 0-.07-.192q-.917-1.217-1.813-2.43c-.554-.755-1.119-1.5-1.664-2.268-.317-.438-.606-.904-.904-1.359a1.7 1.7 0 0 1-.293-.965v-.003l-.002-.067.002-.07v.003c0-.14.053-.177.193-.155.442.075.818.314 1.069.652l.003.004q.854 1.068 1.688 2.147c.604.784 1.197 1.572 1.793 2.362.287.379.574.764.852 1.145.026.037.031.09.063.116a.6.6 0 0 0 .139.099l.003.002q.14.052.248.131l-.003-.002c.2.241.478.411.795.471l.009.001a.4.4 0 0 0 .108 0h-.002.005q.096 0 .183-.03l-.004.001c.526-.19.978-.462 1.366-.807l-.004.004a.46.46 0 0 0 .098-.576l.001.002c-.042.046-.072.079-.101.114s-.072.162-.186.085a.3.3 0 0 0-.085.07.62.62 0 0 1-.456.245h-.002a1.06 1.06 0 0 0-.023-.81l.003.007a.773.773 0 0 1-.994.269l.004.002.158-.166a.72.72 0 0 0 .136-.846l.002.004a3 3 0 0 1-.114-.274l-.007-.021v-.022a.8.8 0 0 1-.053-.279v-.002c0-.198.077-.379.202-.514q.21-.27.506-.434l.008-.004c.687-.344 1.375-.707 2.062-1.062l.532-.269c-.171.615.138 1.108.315 1.664l1.375-.795q.013.07.017.155v.73a.36.36 0 0 1-.184.299l-.002.001a2 2 0 0 1-.301.189l-.012.006h-.013c-.239.125-.271.335-.278.595v.574c.024.164-.101.256-.236.326-.219.116-.438.239-.657.35-.114.059-.149.116-.055.219.072.098.144.21.21.327l.009.017v.02zM16.661 17.911l.95.549c.103.059.204.123.311.177a.12.12 0 0 0 .072.024h.002a.14.14 0 0 0 .101-.048.2.2 0 0 0 .022-.047v-.001c.072-.183.147-.418.209-.658l.01-.047.013-.053a3 3 0 0 0 .037-.39v-.328c.096.044.173.07.245.107.528.276 1.057.547 1.581.825.317.171.641.333.944.532q.255.185.434.432l.004.006a.55.55 0 0 1 .047.557l.001-.003a8 8 0 0 0-.206.657.6.6 0 0 0-.031.192v.004c0 .196.093.37.237.48l.001.001c.099.079.092.123-.026.169a.6.6 0 0 1-.218.039h-.024a.6.6 0 0 1-.364-.12l.002.001a3 3 0 0 1-.282-.232l.002.002c-.051.121-.08.261-.08.408q0 .193.063.363l-.002-.008a.64.64 0 0 1-.5-.267l-.001-.002c-.219.219-.195-.136-.328-.129a.385.385 0 0 0 .061.485 1 1 0 0 0 .172.145l.004.002c.344.208.679.416 1.022.615.438.247.81.114 1.147-.173.074-.066.136-.151.219-.219q.082-.047.183-.086l.01-.003a.5.5 0 0 0 .169-.103c.484-.637.961-1.281 1.443-1.92q.537-.718 1.095-1.436c.484-.641.948-1.313 1.462-1.922q.445-.49.955-.892l.017-.013.017-.013a1.1 1.1 0 0 1 .393-.137l.006-.001c.09-.026.092.042.101.103q.003.05.003.11c0 .348-.097.672-.266.949l.005-.008c-.406.69-.822 1.284-1.281 1.842l.02-.025q-.941 1.289-1.9 2.574l-1.204 1.62a.27.27 0 0 0-.068.18v.002q0 .068.031.125l-.001-.001c.136.304.116.381-.149.58a.24.24 0 0 0-.079.141v.001c-.017.173-.057.219-.219.263q-.133.046-.239.112l.005-.003-.42.219a.9.9 0 0 0-.218.183l-.001.001c-.173.219-.328.46-.495.676a.18.18 0 0 0-.05.123.2.2 0 0 0 .044.116q.094.12.202.218l.001.001c.063.057.149.094.219.153a.44.44 0 0 0 .441.157l-.003.001h.03q.094 0 .171.045l-.002-.001c.239.101.254.184.096.385-.107.138-.219.278-.313.418-.057.083-.114.109-.199.033a.57.57 0 0 1-.234-.367v-.003a.28.28 0 0 0-.113-.164l-.001-.001a31 31 0 0 0-.742-.547.2.2 0 0 0-.138-.05.2.2 0 0 0-.138.051 4 4 0 0 0-.869.833l-.007.009c-.311.42-.602.854-.906 1.276-.079.107-.101.186.028.265.053.018.09.067.09.125l.002.023-.002.024v-.001a.14.14 0 0 1-.039.057c-.105.136-.19.28-.296.412a.21.21 0 0 1-.151.063 2 2 0 0 0-.242-.03h-.008c-.274.033-.383-.134-.479-.35-.149-.344-.155-.344.074-.628l.07-.085c.164-.219.166-.219.398-.09.083.044.12 0 .16-.055.219-.276.438-.541.639-.825.267-.383.517-.775.766-1.169.056-.097.106-.209.145-.326l.004-.013v-.013a.2.2 0 0 0 .024-.098v-.006a.22.22 0 0 0-.104-.186l-.001-.001c-.219-.166-.451-.344-.687-.506a.7.7 0 0 0-.242-.07h-.003a1.3 1.3 0 0 1-.227-.026l.008.001c-.239-.072-.269-.186-.116-.377.116-.149.219-.304.344-.458.053-.074.096-.077.169-.031a.42.42 0 0 1 .245.383c0 .055.063.116.114.164.177.192.407.331.667.394l.009.002h.028a.18.18 0 0 0 .123-.048c.193-.239.37-.486.563-.727a.17.17 0 0 0 .055-.125.17.17 0 0 0-.046-.116.2.2 0 0 0-.043-.035h-.001c-.25-.206-.488-.438-.749-.622a3.9 3.9 0 0 0-1.189-.614l-.028-.008h-.028c-.32-.092-.657-.155-.974-.219a1 1 0 0 1-.112-.03l.007.002c-.107-.031-.131-.083-.061-.177s.107-.171.164-.254a.1.1 0 0 0 0-.144.1.1 0 0 0-.037-.024h-.001c-.219-.123-.416-.25-.626-.368s-.23-.177-.274-.438c-.013-.385.129-.633-.088-.876a1.9 1.9 0 0 0-.491-.374l-.01-.005a.41.41 0 0 1-.278-.388v-.004a.4.4 0 0 1 0-.069v.001c0-.149.017-.322.017-.497v-.282.013zM14.886 27.495c.127-.637.624-.974.963-1.427l.048.015c0 .081.015.166.028.247.077.468.142.939.23 1.408.088.298.142.641.151.995v.005c-.011.31-.085.601-.209.863l.006-.013v-.013c-.333.687-.674 1.375-1.011 2.053-.048.094-.09.19-.138.285a.6.6 0 0 1-.076.087.4.4 0 0 1-.091-.087l-.001-.001c-.219-.412-.416-.825-.624-1.239-.16-.317-.328-.633-.486-.954a2.6 2.6 0 0 1-.239-1.099v-.011.001q0-.232.037-.454l-.002.016v.015c.081-.668.195-1.331.296-1.996a.6.6 0 0 1 .052-.119l-.001.003a.6.6 0 0 1 .108.075l-.001-.001q.267.283.509.597l.014.018.013.017c.111.163.223.354.323.552l.014.031.013.033.066.109zM4.884 3.181l.28.398c.374.486.788.91 1.247 1.283l.014.011c.124.094.234.188.338.29l-.001-.001c.261.3.62.39.981.473.474.124.871.401 1.143.776l.004.006c.394.51.764 1.04 1.145 1.563q.05.075.1.167l.005.01c-.109 0-.184 0-.254-.02-.523-.092-1.046-.182-1.567-.28-.466-.085-.935-.166-1.394-.282a1.5 1.5 0 0 1-.543-.295l.002.002a22 22 0 0 1-1.112-.959 2.23 2.23 0 0 1-.712-1.936l-.001.011a4.5 4.5 0 0 1 .304-1.208l-.011.03-.011.031a.5.5 0 0 1 .038-.079l-.001.002zM24.724 3.26a5 5 0 0 1 .209.559l.01.039V3.9a2.306 2.306 0 0 1-.225 1.854l.006-.011a4 4 0 0 1-.632.739l-.003.003c-.291.276-.619.512-.926.775a1.96 1.96 0 0 1-.822.362l-.012.002c-.407.101-.823.169-1.237.245q-.729.136-1.458.267l-.219.033a.7.7 0 0 1 .057-.144l-.002.004c.394-.545.784-1.095 1.189-1.629.276-.38.685-.649 1.157-.738l.012-.002h.013a2.17 2.17 0 0 0 1.197-.638l.001-.001c.396-.394.803-.779 1.191-1.178.153-.155.28-.337.42-.506l.088-.079zM29.137 10.985c-.099.129-.166.219-.245.32a4.75 4.75 0 0 1-1.859 1.285l-.033.011h-.033a6.8 6.8 0 0 1-2.132.381h-.007c-1.024.053-2.049.114-3.065.173l-.269.013c.015-.046.017-.074.031-.083.424-.348.897-.684 1.392-.986l.055-.031a4.3 4.3 0 0 1 1.302-.415l.024-.003h.024q.943-.153 1.9-.282c.567-.079 1.136-.14 1.701-.219.304-.042.604-.105.906-.151a2 2 0 0 1 .224 0h-.005.085zM8.023 13.17l-.438-.026c-.409-.022-.821-.039-1.232-.066-.7-.046-1.399-.081-2.095-.151a9.5 9.5 0 0 1-1.49-.257l.065.014.061.013a4.43 4.43 0 0 1-1.956-1.096l.001.001c-.151-.144-.293-.3-.438-.458a1 1 0 0 1-.094-.15l-.003-.006c.125 0 .219 0 .302.02l3.87.543c.63.085 1.27.129 1.848.425.338.183.624.366.897.567l-.043-.03c.219.151.438.326.639.495.046.037.088.079.129.114zM5.186 11.193l-.51-.055c-.219-.022-.42-.037-.628-.066a78 78 0 0 1-1.193-.177l-1.48-.234c-.344-.05-.679-.096-1.018-.149-.204-.028-.28-.118-.315-.32a3.49 3.49 0 0 1 .313-2.076l-.009.021-.011.022q.074-.175.158-.337a.6.6 0 0 1 .088-.116c.063.164.116.309.171.451.108.219.277.395.484.509l.006.003c.425.267.863.497 1.285.762.854.536 1.701 1.075 2.55 1.616a1 1 0 0 1 .122.105zM24.257 11.175c.201-.138.401-.285.606-.418.619-.398 1.237-.801 1.863-1.186.506-.313 1.02-.611 1.532-.917.09-.053.177-.114.267-.166a.88.88 0 0 0 .393-.601l.001-.005c0-.061.033-.114.055-.195.026.024.044.033.048.046.147.427.309.852.438 1.285a2.429 2.429 0 0 1-.035 1.285l.005-.017v-.018c-.037.151-.166.188-.293.219-.458.077-.917.147-1.368.219l-2.034.322-1.355.219h-.114zM13.207 28.642a.4.4 0 0 1-.104-.053l.001.001c-.368-.401-.757-.788-.983-1.294a1.75 1.75 0 0 1-.173-.763v-.008c0-.376.115-.726.311-1.016l-.004.006c.219-.381.504-.742.764-1.095.219-.309.468-.609.7-.915a1 1 0 0 0 .064-.12l.002-.005.068.053c-.031.085-.057.173-.09.258q-.247.617-.497 1.232a.5.5 0 0 0-.042.193v.001q.002.12.054.222l-.001-.003c.065.127.133.235.21.336l-.004-.006a.95.95 0 0 1 .219.61v.01q0 .116-.028.224l.001-.006c-.16.676-.293 1.359-.438 2.04 0 .033-.02.066-.033.116zM16.543 28.653a17 17 0 0 0-.114-.486l-.368-1.729c-.022-.099-.05-.195-.063-.293l-.002-.036.002-.038v.002-.002c0-.143.066-.271.17-.354l.001-.001a.75.75 0 0 0 .293-.596v-.001a.8.8 0 0 0-.068-.316l.002.005c-.129-.344-.25-.698-.37-1.049a1 1 0 0 1-.03-.183v-.003l.039-.017a1 1 0 0 1 .1.091v.001c.274.37.574.731.817 1.119.224.326.436.698.616 1.089l.019.047.02.048a1.729 1.729 0 0 1-.096 1.469l.005-.009c-.219.477-.615.834-.917 1.252zM18.673 8.656a.6.6 0 0 1-.02-.135V8.52c.028-.549.039-1.095.099-1.644.071-.385.232-.723.461-1.005l-.003.004 1.057-1.497a.24.24 0 0 1 .11-.093l.002-.001c.013.16.037.32.042.482 0 .129.013.28.013.438s0 .302-.015.453v-.022a2.4 2.4 0 0 1-.43 1.269l.005-.008c-.409.552-.801 1.114-1.2 1.672q-.03.053-.06.12l-.004.009zM9.168 4.267l.53.733c.201.278.398.56.602.836a2.5 2.5 0 0 1 .549 1.688v-.006c-.02.326 0 .657 0 .976a.6.6 0 0 1-.039.144l.001-.004a.5.5 0 0 1-.114-.083q-.55-.763-1.095-1.532a2.7 2.7 0 0 1-.492-1.501v-.003c-.02-.396.02-.795.035-1.195a.4.4 0 0 1 .029-.058l-.001.001z"/><path d="M15.912 18.631c.177.103.324.184.466.271q.379.229.755.471a.51.51 0 0 1 .269.451v.037c-.02.35-.026.703-.042 1.055 0 .164-.026.173-.164.096-.352-.195-.703-.39-1.049-.593a.45.45 0 0 1-.219-.388v-.006l-.001-.014.001-.015v.001-1.206a.6.6 0 0 1 0-.125v.003-.039zM13.791 18.684v1.188l.001.032-.001.033v-.002a.54.54 0 0 1-.262.461l-.002.001c-.344.219-.705.42-1.06.63a.5.5 0 0 1-.109.032h-.003c0-.162-.02-.311-.028-.46 0-.206 0-.412-.026-.617a1 1 0 0 1 0-.098v.002-.001c0-.274.16-.51.392-.621l.004-.002c.333-.171.657-.359.983-.538a1 1 0 0 1 .091-.036l.005-.001zM16.705 22.427c.335.017.672.02 1.005.053a.7.7 0 0 1 .318.154l-.001-.001c.315.243.619.497.928.749a1 1 0 0 1 .054.064l.001.001c0 .015 0 .028-.015.028a5 5 0 0 1-.991-.002l.021.002a1.7 1.7 0 0 1-.626-.345l.002.002c-.236-.177-.438-.39-.67-.587a.4.4 0 0 1-.036-.049l-.001-.002zM17.648 24.498c-.114-.09-.23-.175-.335-.267s-.25-.219-.385-.331a1.35 1.35 0 0 1-.554-1.081c0-.14-.013-.28-.022-.438a1 1 0 0 1 .156.094l-.003-.002c.291.258.593.506.86.786.114.134.198.298.237.479l.001.007c.042.201.074.441.089.686l.001.014v.015zM12.951 22.513l-.876.679c-.085.068-.171.138-.261.199a.44.44 0 0 1-.19.094l-.003.001c-.344.028-.679.044-1.016.066l-.018-.055a1 1 0 0 1 .098-.116c.276-.219.558-.438.83-.674.19-.149.43-.243.692-.252h.002c.239-.022.479 0 .72 0zM13.34 22.432c-.092.42-.066.876-.438 1.208-.219.197-.438.405-.657.606a3 3 0 0 1-.256.219l-.048-.022q.04-.285.074-.574c.059-.547.414-.876.832-1.182.085-.061.162-.131.25-.19q.083-.054.183-.104l.012-.005h.013zM10.643 1.567c.219.127.337 0 .549-.085-.247-.169-.381.05-.549.085M18.461 1.482c.219.042.339.171.549.042-.169 0-.296-.254-.549-.042"/></svg>