<svg xmlns="http://www.w3.org/2000/svg" id="Capa_1" viewBox="0 0 298 298"><defs><style>.st0{fill:#fff}</style></defs><path d="M1498.77 1063.07h-8.7v-11.7c0-4.8-3.9-8.7-8.7-8.7s-8.7 3.9-8.7 8.7v40.7c0 4.8 3.9 8.7 8.7 8.7s8.7-3.9 8.7-8.7v-11.6h8.7c4.8 0 8.7-3.9 8.7-8.7s-3.9-8.7-8.7-8.7M1236.87 1042.67c-4.8 0-8.7 3.9-8.7 8.7v11.6h-8.8c-4.8 0-8.7 3.9-8.7 8.7s3.9 8.7 8.7 8.7h8.7v11.6c0 4.8 3.9 8.7 8.7 8.7s8.7-3.9 8.7-8.7v-40.6c.1-4.8-3.8-8.7-8.6-8.7M1263.07 1054.27h192.1v34.9h-192.1zM1359.07 1142.17c-27.3 0-49.5 22.2-49.5 49.5s22.2 49.5 49.5 49.5 49.5-22.2 49.5-49.5-22.2-49.5-49.5-49.5m37.4 38.8c1 3.2.2 6.6-2.2 8.9l-11.3 11 2.7 15.5c.6 3.3-.8 6.6-3.5 8.5-1.5 1.1-3.3 1.7-5.1 1.7-1.4 0-2.8-.3-4.1-1l-13.9-7.3-13.9 7.3c-2.9 1.5-6.5 1.3-9.2-.7s-4-5.3-3.5-8.5l2.7-15.5-11.3-11c-2.4-2.3-3.2-5.8-2.2-8.9 1-3.2 3.8-5.5 7-5.9l15.6-2.3 7-14.1c1.5-3 4.5-4.9 7.8-4.9s6.4 1.9 7.8 4.9l7 14.1 15.6 2.3c3.3.5 6 2.8 7 5.9" class="st0"/><path d="M1265.97 1106.67v225.2c0 3.1 1.6 5.9 4.3 7.5s6 1.6 8.7.1l80.2-44.2 80.2 44.2c1.3.7 2.8 1.1 4.2 1.1 1.5 0 3.1-.4 4.4-1.2 2.7-1.6 4.3-4.4 4.3-7.5v-225.2zm93.1 151.9c-36.9 0-66.9-30-66.9-66.9s30-66.9 66.9-66.9 66.9 30 66.9 66.9-30 66.9-66.9 66.9M-1880.77 81.68l-1.76 10 238.49 39.32 1.7-10.01-238.44-39.31zm-.36 36.73-1.04 10.09 238.46 22.85 1.05-10.14zm138.95 53.49c-1.38-.06-2.75.44-3.87 1.46-2.23 1.97-2.29 5.33-.26 7.42l1.7 1.78-11.6-4.82c-2.75-1.14-5.96.06-7.14 2.73-1.18 2.73.07 5.83 2.88 6.97l4.45 1.9c-19.98 1.2-39.51 7.61-54.7 18.39l-1.18-1.9c-1.57-2.47-4.91-3.3-7.53-1.78-2.56 1.52-3.41 4.75-1.83 7.23l2.1 3.36-.26.25-5.37-5.45c-2.1-2.09-5.57-2.22-7.73-.19s-2.29 5.39-.2 7.48l6.03 6.09c-6.22 7.86-10.68 16.99-12.64 27.2h227.2c3.28 0 5.9-2.35 5.9-5.26s-2.62-5.26-5.9-5.26h-5.24l1.97-.38c3.28-.44 5.24-3.17 4.59-6.02-.66-2.92-3.28-4.88-6.55-4.37l-7.21 1.14a69 69 0 0 0-5.9-5.58l1.31-1.33c1.97-2.03 2.62-5.33 0-7.48-1.97-2.09-5.31-2.16-7.47-.13l-3.28 2.98c-8.45-4.18-17.49-6.21-25.22-7.16 2.42-1.65 3.08-4.95 1.31-7.35-1.7-2.35-5.11-2.98-7.6-1.27l-8.71 5.9 2.23-3.8c1.44-2.54.52-5.77-2.1-7.23-2.62-1.39-5.96-.51-7.4 2.03l-3.93 6.66c-8.52-5.96-18.08-10.27-28.11-13.06l-18.87-19.46c-1.05-1.08-2.42-1.58-3.87-1.65zm-34.13 33.03 10.09 3.49c2.16.76 3.21 3.04 2.49 5.07-.79 2.09-3.14 3.11-5.24 2.41l-10.09-3.55c-2.16-.76-3.28-2.98-2.49-5.07 1.24-2.22 3.14-2.85 5.24-2.35m56.08 14.2a3.86 3.86 0 0 1-1.9 5.26l-9.7 4.5c-2.03.95-4.52.06-5.5-1.9-.92-1.97-.07-4.31 1.97-5.26l9.7-4.44c2.03-.89 4.59.25 5.44 1.84Zm64.6 6.72 7.73 7.16c1.64 1.52 1.7 4.06.13 5.64-1.57 1.52-4.13 1.58-5.77.06l-7.73-7.16a3.906 3.906 0 0 1-.13-5.64c1.77-1.39 4.26-1.46 5.77-.06m-140.4 10.65c.66 2.09-.52 4.31-2.69 5.01l-10.22 3.17c-2.1.63-4.45-.51-5.11-2.6-.72-2.09.46-4.31 2.62-4.95l10.22-3.17c2.16-.57 4.59.95 5.18 2.54m95-2.09 10.42 2.54c2.23.51 3.54 2.66 3.01 4.82-.59 2.09-2.82 3.42-4.98 2.85l-10.42-2.54c-2.23-.51-3.54-2.66-2.95-4.82.98-2.28 2.82-3.17 4.91-2.85Zm-167.31 28.53c1.1 26.94 10.88 48.69 31.83 64.48 22.27 16.74 57.78 26.82 109.47 26.82s87.2-10.08 109.47-26.82c20.96-15.79 30.73-37.53 31.84-64.48zm99.37 101.44v10.14h83.86v-10.14zM809.1-145.47c.43.02.77.15 1 .4 17.52 19.2 14.78 36.42 11.42 54.4-1.47 3.01-2.79 5.48-4.22 7.51-3.16 4.47-7.06 7.76-16.59 12.53l5.01 10.01c10.37-5.19 16.42-9.98 20.73-16.09.43-.61.84-1.23 1.24-1.85 14.61 18.44 23.42 40.82 24.99 65.75-6.52-6.89-12.64-8.95-20.45-10.49-2.27-10.81-6.89-21.74-14.58-32l-8.96 6.72c13.9 18.53 16.15 39.16 12.68 56.51S808 38.95 800.72 42.59c-10.96 5.48-18.87 13.49-25.1 19.71-3.11 3.11-5.82 5.78-8 7.44-.11.08-.21.15-.31.23-.53-3.02-1.3-6.15-2.28-9.38-3.31-10.91-9.1-23.06-16.73-35.79l-9.6 5.76c7.3 12.16 12.7 23.65 15.62 33.27s3.1 17.24 1.4 21.49-4.49 6.48-12.41 6.75c-6.89.23-17.27-1.86-31.07-7.22 29.93-10.6 22.48-29.2 21.3-47.22-9.95 19.91-19.91 19.91-29.86 19.91s-19.91 0-29.86-19.91c-1.18 18.02-8.63 36.62 21.3 47.22-13.8 5.36-24.18 7.45-31.07 7.22-7.92-.26-10.71-2.5-12.41-6.75s-1.51-11.87 1.4-21.49c2.92-9.62 8.32-21.11 15.62-33.27l-9.6-5.76c-7.63 12.72-13.43 24.88-16.73 35.79-.98 3.23-1.75 6.36-2.28 9.38-.11-.08-.2-.14-.31-.23-2.18-1.67-4.89-4.33-8-7.44-6.22-6.22-14.14-14.23-25.1-19.71-7.28-3.64-17.18-17.31-20.65-34.66s-1.23-37.98 12.68-56.51l-8.96-6.72c-7.7 10.26-12.31 21.19-14.58 32-7.8 1.54-13.93 3.6-20.45 10.49 1.57-24.93 10.38-47.31 24.99-65.75.4.63.81 1.25 1.24 1.85 4.31 6.1 10.36 10.9 20.73 16.09l5.01-10.01c-9.54-4.77-13.44-8.06-16.59-12.53-1.44-2.03-2.75-4.5-4.22-7.51-3.35-17.98-6.09-35.2 11.42-54.4.23-.25.56-.38 1-.4 5.66-.25 28.13 18.01 49.18 22.14 12.23-3.8 25.41-6.36 39.4-7.52l2.77 9.69c-8.66 1.17-17.63 3.39-27.5 6.67l3.54 10.62c10.05-3.35 18.74-5.54 27.02-6.58l2.78 9.72c-3.74.32-7.38.86-10.76 1.66-5.84 1.37-11 3.28-14.81 7.09l7.92 7.92c1.17-1.17 4.71-2.99 9.45-4.11 3.35-.79 7.27-1.32 11.34-1.56l5.11 17.88 5.11-17.88c4.07.24 7.99.77 11.34 1.56 4.74 1.12 8.29 2.94 9.45 4.11l7.92-7.92c-3.81-3.81-8.97-5.72-14.81-7.09-3.38-.8-7.02-1.34-10.76-1.66l2.78-9.72c8.28 1.04 16.97 3.24 27.02 6.58l3.54-10.62c-9.86-3.29-18.84-5.51-27.5-6.67l2.77-9.69c13.99 1.17 27.17 3.72 39.4 7.52 21.05-4.13 43.52-22.39 49.18-22.14zm-57.74 68.42c-24.88 9.95-36.74 14.53-47.69 14.53s-22.81-4.58-47.69-14.53l-4.16 10.4c24.88 9.95 37.91 15.33 51.85 15.33s26.96-5.38 51.85-15.33zm26.93 2.69c-8.95 17.9-27.36 27.36-47.27 37.31l4.72 9.44c-3 4.06-5.55 8.89-7.42 14.61 0 0-4.75 20.78-5.29 29.81l11.05 1.84c-.55-10.87-.55-20.83 4.76-27.88 3.22 4.37 8.34 7.24 14.12 7.24 9.76 0 17.65-8.18 17.65-17.96 0-5.66-2.65-10.79-6.78-14.1 7.66-2.29 15.14-2.35 19.48-2.35v-11.2c-2.93 0-7.91-.02-13.77.85 7.54-6.02 14.11-13.27 18.77-22.61l-10.01-5.01Zm-149.25 0-10.01 5.01c4.67 9.33 11.24 16.59 18.77 22.61-5.86-.87-10.83-.85-13.77-.85v11.2c4.34 0 11.82.06 19.48 2.35-4.13 3.31-6.78 8.44-6.78 14.1 0 9.77 7.89 17.96 17.65 17.96 5.78 0 10.9-2.87 14.12-7.24 5.3 7.05 5.3 17.01 4.76 27.88l11.05-1.84c-.55-9.03-5.29-29.81-5.29-29.81-1.87-5.71-4.43-10.55-7.42-14.61l4.72-9.44c-19.91-9.95-38.31-19.41-47.27-37.31Zm169.52 30.6-10.62 3.54c2.08 6.23 1.59 11.53-.41 16.99s-5.68 10.95-9.89 16.37-8.92 10.73-12.77 16.26-7.07 11.44-7.07 18.29H769c0-3.11 1.76-7.15 5.06-11.88 3.3-4.74 7.93-10 12.42-15.78 4.5-5.78 8.9-12.11 11.57-19.4s3.42-15.67.52-24.38h-.01Zm-189.79 0c-2.9 8.7-2.15 17.09.52 24.38s7.07 13.62 11.57 19.4 9.12 11.05 12.42 15.78c3.3 4.74 5.06 8.77 5.06 11.88h11.2c0-6.84-3.22-12.76-7.07-18.29S633.91-1.45 629.7-6.87s-7.89-10.91-9.89-16.37-2.49-10.77-.41-16.99l-10.62-3.54h-.01Zm144.18 17.05c3.55 0 6.45 2.89 6.45 6.76s-2.9 6.76-6.45 6.76-6.45-2.88-6.45-6.76 2.9-6.76 6.45-6.76m-98.57 0c3.55 0 6.45 2.89 6.45 6.76s-2.9 6.76-6.45 6.76-6.45-2.88-6.45-6.76 2.9-6.76 6.45-6.76m178.59 7.49c22.19 37.71 19.63 77.15 10.05 86.72-6.09-9.57-12.52-17.3-19.91-19.91 5.86 22.43 0 39.82-9.95 49.77 0-9.95-2.14-14.74-9.95-19.91 2.05 24.84-11.34 35.33-19.91 39.82-3.75-7.25-10.87-15.2-20.7-22.08 1.48-1.69 2.67-3.62 3.5-5.7.91-2.27 1.47-4.67 1.76-7.17 2.42-.8 4.58-2.17 6.55-3.68 3.11-2.38 6-5.31 9.11-8.42 6.22-6.22 13.23-13.14 22.19-17.61 12.62-6.31 22.63-22.5 26.63-42.48 1.83-9.13 2.24-19.14.63-29.34Zm-258.61 0c-1.61 10.2-1.19 20.21.63 29.34 4 19.98 14 36.17 26.63 42.48 8.95 4.48 15.96 11.39 22.19 17.61 3.11 3.11 6 6.04 9.11 8.42 1.97 1.51 4.13 2.88 6.55 3.68.29 2.51.85 4.9 1.76 7.17.83 2.09 2.02 4.01 3.5 5.7-9.83 6.88-16.95 14.83-20.7 22.08-8.57-4.48-21.96-14.97-19.91-39.82-7.82 5.17-9.95 9.95-9.95 19.91-9.95-9.95-15.82-27.34-9.95-49.77-7.39 2.6-13.82 10.34-19.91 19.91-9.57-9.57-12.14-49.01 10.05-86.72ZM808.8-2.18h-11.2c0 7.15-6.29 16.46-13.58 24.97-3.65 4.25-7.4 8.3-10.42 12.17-3.03 3.87-5.86 7.34-5.86 12.63h11.2c0 .31.9-2.44 3.48-5.73 2.57-3.29 6.29-7.33 10.11-11.78 7.64-8.91 16.28-19.51 16.28-32.26zm-199.07 0h-11.2c0 12.75 8.64 23.35 16.28 32.26 3.82 4.46 7.53 8.5 10.11 11.78s3.48 6.04 3.48 5.73h11.2c0-5.29-2.83-8.76-5.86-12.63s-6.78-7.91-10.42-12.17c-7.29-8.51-13.58-17.82-13.58-24.97zm125.49 105.02c3 .37 5.81.52 8.45.43 1.12-.04 2.24-.14 3.35-.29-1.57 5.54-4.12 10.8-7.94 15.39-7.32 8.78-19.23 14.46-35.41 14.46s-28.09-5.67-35.41-14.46c-3.82-4.58-6.37-9.85-7.94-15.39 1.09.15 2.2.25 3.35.29 2.64.09 5.45-.05 8.45-.43 1.16 3.09 2.72 5.92 4.75 8.36 5.12 6.15 13.12 10.43 26.8 10.43s21.68-4.28 26.8-10.43c2.03-2.44 3.59-5.27 4.75-8.36M946.97-847.6c-19.86 0-45.99 7.73-66.48 19.25-10.25 5.76-19.1 12.47-25.16 19.28-6.06 6.82-9.16 13.53-9.16 19.54 0 .67.5 2.36 2.42 4.78 1.91 2.42 5.04 5.37 9.01 8.55 7.95 6.36 19.23 13.68 31.29 21.72 20.99 13.99 44.52 29.92 58.08 49.43 13.56-19.51 37.09-35.44 58.08-49.43 12.06-8.04 23.34-15.36 31.29-21.72 3.97-3.18 7.1-6.13 9.01-8.55s2.42-4.11 2.42-4.78c0-6.01-3.1-12.72-9.16-19.54s-14.91-13.52-25.16-19.28c-20.49-11.53-46.62-19.25-66.48-19.25m-64.09 36.72c10.68 0 53.4 32.04 53.4 53.4-33-21.46-53.4-21.36-53.4-21.36-10.68-10.68-10.68-32.04 0-32.04m128.17 0c10.68 0 10.68 21.36 0 32.04 0 0-20.41-.1-53.4 21.36 0-21.36 42.72-53.4 53.4-53.4m-151.94 85.64c-.84 0-1.67.02-2.49.07-.22.01-.43.04-.65.05 3.09 2.3 5.74 5.16 7.88 8.36 4.8 7.2 7.17 16.24 5.96 25.32-.89 6.7-3.89 13.39-9.16 18.94 1.16 1.28 2.23 2.72 3.33 4.3 4.72 6.79 9.44 16.5 14.18 27.54.8 1.87 1.6 3.77 2.39 5.7 7.11-4.44 15.08-7.3 23.67-7.03 1.3.04 2.6.15 3.89.33 8.4 1.19 16.95 5.31 25.82 12.72q1.35-2.205 2.64-4.44c-2.92-10.72-7.73-23.1-13.72-35.12-12.52-25.11-31.09-48.32-44.52-53.11-6.96-2.49-13.34-3.64-19.22-3.64Zm175.72 0c-5.88 0-12.26 1.15-19.22 3.64-13.43 4.79-32 28-44.52 53.11-5.99 12.02-10.8 24.4-13.72 35.12.84 1.46 1.73 2.95 2.64 4.44 8.87-7.41 17.42-11.53 25.82-12.72 1.31-.18 2.6-.29 3.89-.33 8.58-.27 16.56 2.59 23.67 7.03.79-1.93 1.59-3.83 2.39-5.7 4.74-11.04 9.46-20.75 14.18-27.54 1.1-1.58 2.17-3.02 3.33-4.3-5.26-5.56-8.26-12.25-9.16-18.94-1.21-9.08 1.16-18.12 5.96-25.32 2.13-3.2 4.79-6.06 7.88-8.36-.22-.02-.43-.04-.65-.05-.83-.05-1.66-.07-2.49-.07Zm-195.63 6.49c-.92 0-1.84.09-2.75.26-2.77 1.79-5.4 3.9-7.91 6.29-12.78 12.18-21.91 32.5-25.86 55.33s-2.78 48.07 3.93 69.69c4.62 14.88 11.85 27.85 21.59 37.58-4.99-17.02-8.4-36.09-8.5-54.95-.13-26.13 6.11-52.12 24.23-70.34 1.05-1.05 2.47-1.95 4.03-2.47 6.34-4.39 9.17-9.87 9.94-15.67.79-5.94-.84-12.26-4.05-17.07s-7.75-7.95-12.73-8.55c-.62-.07-1.26-.11-1.92-.11Zm215.53 0c-.64 0-1.28.04-1.92.11-4.98.59-9.53 3.74-12.73 8.55-3.21 4.81-4.84 11.13-4.05 17.07.77 5.8 3.6 11.28 9.94 15.67 1.56.51 2.98 1.41 4.03 2.47 18.11 18.22 24.35 44.22 24.23 70.34-.09 18.86-3.5 37.93-8.5 54.95 9.74-9.72 16.97-22.7 21.59-37.58 6.71-21.62 7.89-46.85 3.93-69.69-3.95-22.84-13.08-43.16-25.86-55.33-2.51-2.4-5.15-4.5-7.91-6.29-.91-.17-1.83-.25-2.75-.26Zm-129.43 7.23-3.12 17.14c4.1 6.56 7.92 13.5 11.42 20.54 5.57 11.17 10.17 22.59 13.36 33.15 3.19-10.56 7.8-21.98 13.36-33.15 3.5-7.03 7.32-13.98 11.42-20.54l-3.12-17.14c-7.04 6.82-12.79 13.8-16.29 20.81l-5.37 10.75-5.37-10.75c-3.51-7.02-9.25-14-16.29-20.81M902.52-630c-.43 0-.86.03-1.28.06-5.1.36-9.96 2.33-15.07 5.66-12.36 8.05-19.39 19.67-22.38 34.89-2.23 11.31-2.03 24.58.35 39.18 4.77-9.4 9.86-20.36 14.8-29.95 3.86-7.47 7.53-14 11.67-18.66 2.07-2.33 4.26-4.39 7.58-5.4s7.81.2 10.32 2.71l10.09 10.09c1.38-1.41 3.66-5.24 5.51-9.55 2.72-6.35 4.44-12.23 5.4-15.7-8.94-8.3-16.58-12.16-23.05-13.08-1.3-.19-2.61-.27-3.92-.25zm88.9 0c-1.31-.02-2.62.06-3.92.25-6.47.91-14.11 4.78-23.05 13.08.96 3.47 2.68 9.36 5.4 15.7 1.84 4.3 4.13 8.13 5.51 9.55l10.09-10.09c2.51-2.51 7-3.72 10.32-2.71s5.51 3.07 7.58 5.4c4.14 4.66 7.81 11.19 11.67 18.66 4.95 9.59 10.03 20.55 14.8 29.95 2.38-14.6 2.57-27.87.35-39.18-2.99-15.21-10.03-26.84-22.38-34.89-5.11-3.33-9.97-5.31-15.07-5.66a27 27 0 0 0-1.28-.06zm-44.45 2.64c-1.32 2.3-2.68 4.57-4.09 6.82l.06.06-.83 3.3s-2.7 10.96-6.98 20.94c-2.14 4.99-4.48 9.76-8.12 13.4-1.82 1.82-4.19 3.55-7.44 3.91-3.26.36-6.68-1.19-8.9-3.41l-2.14-2.14c-2.16 1.09-4.38 1.99-6.67 2.64q.84 1.485 1.86 2.85c3.01 4.06 7.43 8.83 12.48 13.24 10.09 8.83 23.08 15.87 30.76 15.87s20.66-7.04 30.76-15.87c5.05-4.42 9.47-9.18 12.48-13.24.67-.91 1.29-1.87 1.86-2.85-2.29-.64-4.5-1.55-6.67-2.64l-2.14 2.14c-2.22 2.22-5.64 3.77-8.9 3.41s-5.63-2.1-7.44-3.91c-3.64-3.64-5.98-8.41-8.12-13.4-4.28-9.98-6.98-20.94-6.98-20.94l-.83-3.3.06-.06a205 205 0 0 1-4.09-6.82zM1293.47 18.65c-3.33 16.85 2.89 34.99 21.4 54.31 7.03-4.58 19.84-6.87 31.39-5.12-28.87-14-41.74-29.58-52.79-49.19m-100.19 3.92c9.02 29.16 32.58 64.14 63.03 88.93-22.65-1.44-50.01-9.54-69.58-15.88 15.67 22.1 40.28 33.21 64.87 41.62-15.67 11.11-34.59 22.41-64.93 24.29 34.3 12.05 67.5 5.59 82.44.44-11.24 21.91-63.22 41.55-76.78 48.33 33.43 2.64 76.4-6.9 104.83-20.65 6.28 15.44-1 33.39-6.34 48.84-1.19 2.82-2.39 5.59-3.58 8.35 3.2-2.2 6.34-4.39 9.35-6.65 14.81-10.17 30-20.02 37.35-36.91 16.38 19.58 39.36 38.98 67.17 53.61 10.92 13.87 17.76 30.76 21.47 46.33 5.21-11.99 8.66-25.23 6.09-37.85 15.38-2.26 22.35-18.64 22.28-34.15-7.91 3.89-9.48 3.95-19.58 5.15 0-6.34.38-7.85-1.88-18.02-6.47 5.27-13.18 7.03-19.33 7.41 1.32-4.77 1.88-12.24 2.32-17.14-8.16 4.46-12.05 6.09-18.89 6.78-.25-6.84-.06-12.55-2.57-19.08-18.58 11.93-30.51.94-42.68-13.37 12.43-10.67 60.51-13.68 59.7 4.46 8.79-4.58 11.8-7.03 14.81-9.98 5.71 5.34 8.41 13.12 9.48 19.71 5.84-5.9 6.47-6.59 10.73-14.94 3.58 6.34 5.52 10.67 6.72 19.21 5.34-3.89 9.67-8.22 12.43-13.43 4.71 9.73 5.21 10.04 7.78 20.71 11.17-8.22 13.68-19.58 14.31-29.88 1.26-20.71-.19-67.92-19.46-89.7 1.07 22.79-8.22 43.94-21.22 50.66-7.91 3.08-60.57-46.83-86.37-58.57-14.75-6.4-30.19 4.46-42.56 5.84-47.45-14.5-87.27-36.63-121.41-64.45zm167.54 79.2c8.35 13.12 20.21 23.16 37.73 34.52-12.18 1.82-41.3-4.21-48.77-15.07-3.45-4.96 4.46-13.37 11.05-19.46h-.01Zm-72.5 104.39c-9.04 3.89-18.33 6.84-27.49 8.98-1.51 2.26-2.89 4.46-4.21 6.59 9.29 3.33 19.77 4.39 27.68 1.76 2.07-6.15 3.45-12.11 4.02-17.32Zm-42.69 11.99-6.4.94c-19.97 22.97-38.86 64.78-30.28 95.35h22.68c-6.98-23.66-10.38-54.67 14-96.29m5.34 13.5c-3.7 7.16-6.53 13.87-8.66 20.15 8.1 4.21 18.27 5.59 28.12 5.15 2.89-6.59 6.15-13.68 9.16-20.9-9.67 1.13-19.71-.88-28.62-4.39Zm69.93 4.14c-7.53 6.59-15.82 12.74-24.42 18.58 4.39 21.34 20.97 39.8 46.39 60.07h52.29c-35.91-19.96-59.38-46.01-74.26-78.65m-81.61 27.12c-1.57 7.41-2.07 14.25-1.88 20.65 23.41 8.91 39.23 8.47 61.2 2.57-4.52-6.47-8.16-13.18-10.61-20.28-20.53 5.9-34.78 3.58-48.71-2.95Zm66.92 32.89c-23.92 6.84-43.19 8.29-67.48.19 1.13 6.53 2.82 12.62 4.71 18.45h81.67c-7.09-6.15-13.43-12.3-18.89-18.64zM553.1 316.74l-15.88 31.75c17.37 8.48 36.57 15.18 56.84 20.14l-55.6 244.33h64.18l25.62-231.91.64-5.86 5.86.74c32.9 4.16 67.45 3.95 100.33-.37l5.86-.76.66 5.88 25.62 232.27h64.16l-55.7-244.73c19.66-4.92 38.28-11.49 55.17-19.74l-15.85-31.75c-69.81 34.09-192.1 34.09-261.91 0Zm177.61 71.01c-8.83 1.03-17.69 1.76-26.57 2.21-13.54 6.46-20.21 16.31-21.93 33.79 16.92-18.99 34.18-22.44 50.42-18.57zm-91.56.33-6.23 56.49c5.31-23.25 16.79-45.46 34.08-54.42-9.34-.37-18.64-1.06-27.85-2.08Zm40.34 8.27c-21.65 10.56-45.15 67.8-23.7 101.17-14.7 1.97-23.07-3.94-26.96-16.15l-2.68 24.3c5.75 19.99 19.14 27.32 35.3 27.32-7.89 13.33-29.22 14.76-39.09 6.95l-1.03 9.43c6.65 17.83 23.37 27.2 46.17 26.14-11.4 14.71-19.15 14.98-39.16 8.69 24.26 30.27 64.32 11.54 73.98-19.58 8.63 13.85-1.85 39.73-27.56 42.07 51.49 8.18 65.44-39.08 35.47-77.26 13.15 1.5 29.36 6.89 38.7 23.79l-6.71-61c-15.73-19.62-46.9-12.23-41.33-28.8 2.83-8.41 21.48-10.27 26.1 6.89 7.73-25.49-23.14-30.86-32.64-18.49 10.21-18.31 31.17-17.35 42.93-4.44l-3.12-28.26c-20.71-8.17-45.19 5.25-55.39 32.7-7.96-13.15-13.21-41.33.72-55.48Zm57.15 158.49c5.71 26.68-4.62 50.7-27.83 57.75l46.71.16-4.15-37.65c-4.68-9-8.8-15.13-14.73-20.26m-119.52 32.78-2.79 25.36h42.13c-17.23-5.16-30.26-11.52-39.34-25.36M-508.58 350.35c-1.06-1.1-6.55-8.32-5.56-9.33 21.1 6.59 47.94 9.86 65.73-6.13-28.29 9.18-66.19-1.76-78.67-30.46-24.11-55.39 37.71-125.4 94.49-96.24 77.31 39.7 43.49 160.54-42.58 154.77-11.18-.75-25.44-4.39-33.4-12.62Zm86.46-100.49c1.98-2.2-10.03-11.65-11.99-12.98-39.49-26.72-88.01 15.39-68.19 58.55 11.67 25.4 52.21 31.08 66.86 5.54 10.6-18.48-3.15-47.09-25.45-39.47-5.38 1.84-12.63 8.24-7.17 13.72 6.07 6.09 11.25-2.01 15.98 5.05s-5.62 17.27-12.76 18.49c-21.21 3.6-32.77-20.35-26.94-38.33 7.96-24.54 38.36-29.39 58.88-17.73 1.42.81 9.92 8.14 10.77 7.19v-.03z" class="st0"/><path d="M-555.34 198.16c-2.71-2.09-4.58-4.11-6.99-6.64-1.36-1.43-3.92-.77-2.21-3.88 1.32-2.42 10.93-11.35 13.57-13.6 57.14-48.67 141.41-43.19 191.71 12.06 1.88 4.53-1.2 4.45-2.38 7.67-4.24 1.06-8.17 4.99-10.52 8.76 5.11.64 7.64-4.02 10.96-7.03 1.54-1.39 1.45.33 3.06-2.6.17-.31.71-.55.88-.88h1.75c15.96 19.97 27.8 43.94 28.05 70.12l-9.17.9-34.67-.9c1.34-2.97-2.16-12.42-1.36-14.03 1.42-2.87 10.62-2.45 11.88-7-2.92-1.09-12.25 2.49-14.02 1.36-1.09-.69-4.99-9.99-6.31-12.16-19.01-31.33-50.07-48.24-87.07-46.22-3.68.2-19.87 3.81-20.88 3.48-3.26-1.09-5.24-19.16-6.26-22.73-3.42-.11 1.43 23.43.29 25.28-21.66 9.11-41.82 27.54-50.84 49.5-1.64 4-5.32 21.54-6.19 22.3-2.66 2.37-9.39.21-12.46.17-9.79-.15-19.62.18-29.4.04.47-12.83 3.54-25.37 7.1-37.61 1.7-1.49 16.74 4.59 20.08 4.29-2.49-4.2-15.1-5.53-17.14-8.75-.86-1.36.17-3.32.69-4.63 1.2-3.07 12.2-20.9 14.44-21.56 3.19-.94 9.4 5.66 13.41 5.15v2.63h4.38c-.58-2.13-3.06-2.49-4.38-3.51zM-551.84 304.21c.87 8.98.49 17.63.73 26.59-.76 2.19-10.04 3.52-12.13 6.28-.34 2 .88 1.19 2.18 1.31 3.03.26 6.18-.18 9.22 0v46.89c0 .22.79 4.69 2.18 3.94 3.39-2.51 8.71-9.41 13.11-8.78 1.67.24 10.13 8.79 10.13 10.1v17.53c0 .09-1.22 1.31-1.31 1.31h-31.55c-.3 0-1.02 1.23-2.18.52-2.02-1.23-2.29-13.29-3.26-17s-4.17-10.97-6.82-13.33c-5.26-4.69-22.47-4.94-23.68-6.99-.72-1.23-.9-25.97-.41-28.47.71-3.58 4.37-2.74 4.37-3.54.01-2.24-4.39-3.63-4.39-3.94v-31.11c0-.09 1.22-1.31 1.31-1.31h42.51ZM-340.61 343.65c4.43.17 8.75.47 13.15.88v46.89c-8.27 3.89-16.49 7.57-24.1 12.7-6.93-3.29-12.86-8.83-20.49-10.61l.02-34.4c.73-2.21 11.42-1.31 12.15-4.52 1.12-4.93-11.16-1.46-12.15-4.49l.33-44.13c.19-.41 1.59-1.77 1.74-1.77h42.51v33.74c-3.64 1.89-8.93 3-13.15 3.94-1.71.38-4.58-.43-6.14 1.31.02.82 4.97.39 6.14.44v.02ZM-416.86 411.14h-93.78c.04-7.08 1.62-15.19 3.95-21.91 1.05-3.02 1.25-6.32 4.77-7.5l72.39-.44c2.76-.06 4.97.82 6.34 3.3 3.69 6.69 3.96 19.08 6.33 26.54ZM-544.82 268.27c.19 9.72.97 19.22 0 28.92h-60.91c-.09 0-1.31-1.22-1.31-1.31v-26.29c0-.09 1.22-1.31 1.31-1.31h60.91ZM-377.42 273.09c.2-1.02 2.49-4.95 3.94-4.82l55.98.13c2.81.93 1.76 11.85 1.76 14.49 0 4.56 1.12 10.35-1.64 14.31h-58.72c-.09 0-1.31-1.22-1.31-1.31 0-5.95-1.01-17.72 0-22.79h-.01Z" class="st0"/><path d="M-604.86 409.39c-1.08-.34-7.72-12.97-7.33-15.14 3.96-4.32 11.86-13.48 17.92-13.72 4.44-.17 17.03 2.76 19.67 6.5 1.88 2.66 5.47 22.37 2.17 22.37h-32.43ZM-400.09 384.73c-.15-.09-.69-1.81-1.38-2.53-2.2-2.28-9.33-8.13-9.24-10.97.04-1.33 10.13-14.47 11.82-14.47 1.31 0 8.39 7.29 9.65 8.78 2.79 3.31 7.18 7.06 3.01 10.92-.61.57-10.74 7.65-11.38 7.91-.79.33-1.65.84-2.48.35ZM373.33 464.81h14.94c1.76 0 11.41 3.16 13.74 4.02 4.57 1.68 17.93 8.2 19.75 12.54.69 1.65-1.12 1.14-2 1.2-8.26.6-16.52-.47-24.95.9-1.65.27-4.61.52-5.34 2.32 15.51 2.83 31.87 12.1 39.7 26.11.93 1.66 5.37 9.55 1.86 10.23-.44.08-6.84-2.46-8.45-2.83-6.24-1.44-13.03-2.99-19.37-2.42 14.89 11.82 31.26 28.07 29.06 48.84-.68.76-15.47-9.59-18.56-8.07 2.04 19.51.68 42.76-7.24 60.97-.93 2.15-2.7 6.81-5.55 5.08-1.45-.88-1.89-9.1-4.16-10.35-1.07 7.61-12.23 32.97-19.34 35.16-8.13 2.51-20.07-2.71-28.3-3.68-.02-.63-.08-1.26.12-1.89.68-2.08 19.45-17.78 22.9-21.51 13.58-14.64 29.16-39.29 25.18-59.92-2.13-11.03-9.36-22.2-21.56-23.24 5.86 6.28 13.29 10.91 14.97 20.14 4.76 26.14-11.64 48.31-29.93 64.6-4.47 3.99-13.49 11.82-18.18 14.91-1.09.72-1.96 1.43-3.4 1.12-1.18-.25-9.26-5.23-10.67-6.34-6.4-5.03-13.05-15.92-13.97-24.02-.65-5.68 3.54-4.89 7.63-7.31 7.42-4.38 15.38-9.12 18.98-17.35.85-1.94 1.8-7.47 3.07-8.23 3.1-1.86 8.83 2.18 11.5-3.84 2.96-6.67 2.69-19.25.86-26.26-.95-3.63-5.7-10.91-5.12-13.33.11-.47 6.55-4.45 7.82-5.69 6.28-6.09 12.19-15.78 11.59-24.75-6.05.11-11.65 3.14-17.76 2.42-.61-3.83 2.65-6.31 3.94-9.38 2.83-6.71 3.86-13.18 3.32-20.49-.82-.85-14.52 7.42-16.98 8.45-10.29 4.3-24.01 4.77-30.64 14.57 6.5 0 14.69-1.48 21.15-3.07 5.56-1.37 9.91-3.57 15.17-5.41-.89 8.7-7.78 14.89-12.92 21.38 7.83 3.91 16.74 1.28 25.04 1.22-.29 6.62-8.93 12.2-14.27 15.19-3.3 1.85-9.89 1.87-7.55 6.22s8.9 11.39 8.9 16.93v11.71c-3.31 1.49-18.73-7.83-20.18-6.45 1.13 3.07 4.17 16.66 2.86 18.6-.4.6-.91.74-1.6.75-4.8.09-16.4-6.82-22.88-7.04-5.31-.18-9.93 3.74-14.52 4.45-5.36.82-15.88-3.78-21.99-5.06-7.49-1.58-15.15-1.95-22.61-3.63-.36-1.39.57-1.61 1.2-2.42 9.12-11.75 27.2-24.72 42.39-25.83.17-2.12.1-1.34-1.22-1.58-12.76-2.37-25.57.4-37.53 4.82l4.84 7.26c-1.27 1.09-13.97-.88-16.55-.87-3.79.01-8.6 1.58-12.78 1.01-4.44 1.5.07 10.64-2.57 11.17-1.87.38-19.05-9.51-23.79-7.27 2.99 6.93 11.97 11.83 18.96 14.54 32.5 12.61 67.12-2.48 84.77 37.14 9.2 20.66 10.26 31.84 31.89 44 20.91 11.76 43.11 11.45 66.21 7.66.04 2.64-3.36 3.75-5.36 4.72-12.67 6.14-27.38 7.63-41.3 7.56-4.14 3.11-7.47 24.35-9.03 25.32-2.06 1.29-7.19-3.65-8.28-5.54-.59-1.03-.62-5.28-2.62-2.17-2.73 4.24-1.18 25.14-2.81 26.25-.19.13-4.24 1.18-4.47 1.18h-29.87c-2.18 0-.48-7.43-.16-9.04 2.03-10.37 8.37-22.03 15.12-30.09 2.68-3.2 13.05-11.82 14.13-14.17.85-1.83-.38-3.89-2.29-3.86-5.38.07-20.47 18.33-23.67 23.15-6.75 10.17-10.64 21.24-13.32 33.1l-87.06.06c8.57-31.69 32.81-59.88 59.79-77.79 10.85-7.2 22.69-12.75 33.83-19.45 3.06-9.06-5.81-19.66-13.52-23.6-23.77-12.12-53.24-3.17-79.73-18.76-3.74-2.2-12.76-11.73-14.68-12.02-.74-.11-1.21-.27-1.89.23-2.78 2.06 2.46 17.14-1.19 18.22-4.44 1.32-10.46-15.48-16.52-13.71.61 3.39 2.48 6.2.77 9.66-1.84 1.28-8.29-4.42-9.67-6.01-2.5-2.9-2.94-5.6-4.82-8.1-2.57-3.41-7.18-3.71-9.73-8.84-2.49-4.99-.82-19.72 3.62-23.11 3.3-2.52 4.57 2.91 6.5 2.49 3.6-7.91 6.58-14.73 13.74-20.19 5.81-4.43 9.57-5.12 15.36-.02 3.48 3.06 5.89 12.01 6.57 12.17 4.94 1.21 12.72-6.07 18.01-6.53.3-2.79-2.06-4.59-3.03-7.01-3.24-8.09-5.21-17.99-1.62-26.29 5.66-13.07 9.98 12.39 13.95 11.53.96-.21 4.59-15.22 6.44-18.59 8.39-15.24 22.18-15.64 35.69-22.43 5.63-2.83 14.89-9.34 19.26-13.84 5.29-5.43 13.01-20.55 19.54-22.45 4.92-1.43 3.01 6.35 2.39 9.66-1.39 7.39-4.89 14.02-7.83 20.82 12.44-2.81 23.84-10.05 34.64-16.61 5.57-3.38 22.83-18.55 20.2-1.59-5.2 33.46-53.57 33.4-77.64 37.81-16.88 3.09-35.66 11.36-37.76 30.45l12.53-12.89c20.4-15.64 47.35-10.96 70.8-18.01 18.98-5.7 45.26-20.38 58.27-35.38 2.96-3.41 9.97-16.33 13.03-16.87 8.97-1.58 5.97 17.43 4.83 22.63-2.63 12.03-9.99 21.91-18.99 29.85zm-91.23 33.11c-10.98 1.03-23.09-4.15-32.69 3.22-4.44 3.41-6.94 9.77-6.86 15.33l39.55-18.56Zm-113.04 39.55c.4-.29 1.52-4.77 4.29-5.88s8.41 1.61 10.54.97c4.19-1.26-2.77-8.87-5.72-9.48-6.31-1.3-12.76 6.62-13.96 12.35.9.25 4.39 2.36 4.85 2.04" class="st0"/><path d="m195.7 578.65 11.77 17c1.62.11 13.08-7.99 15.93-9.1 6.25-2.46 18.87-.17 25.64 1.34 1.96.44 11.79 2.35 11.25 4.86-.6 2.8-16.08 6.75-19.36 6.89.36 3.75 4.73 5.75 4.04 9.68-7.44.94-14.43-.14-21.81 1.62-1.74 1.83 5.51 7.7 7.15 8.59 2.84 1.55 11.04 3.06 11.42 3.52 2.27 2.77-8.96 6.73-11.09 7.06-11.28 1.75-18.72-1.56-28.46-6.26-.66.63 5.6 9.04 6.48 10.06 1.82 2.11 9.45 6.79 4.41 7.69-27.28 4.86-37.14-38.54-35.92-58.52.44-3.58 6.36 5.52 6.86 6.06 3.43 3.69 7.09 7.49 11.71 9.68.87-1.11-6-14.18-1.97-19.33.63-.8.85-1.07 1.96-.85ZM-834.41-450.64c55.46-3.86 120.05 52.22 126.88 106.75 9.62 76.85-65.92 175.13-148.88 157.01-25.8-5.64-57.64-24.66-74.99-44.5-66.25-75.74.86-212.57 96.99-219.25Zm-.81 18.7c-48.14 3.74-89.34 49.66-100.38 94.71-11.43 46.62 5.02 104 57.28 114.55 83.6 16.88 156.33-111.3 108.96-178.87-15.48-22.08-38.8-32.49-65.86-30.39m65.5 200.04c27.94-26.22 51.28-75.56 45.11-114.41-.85-5.36-5.68-19.49-10.87-21.65-1.66-.69-1.14 1.12-1.21 2.01-.62 8.44.54 17.53 0 26.02-2.94 45.54-35.18 101.15-76.23 122.11-1.55.79-3.37 1.4-5.04 1.87l8.5 4.08c2.33.55 4.42 1.74 6.92 1.24 10.73-2.12 24.95-13.88 32.84-21.28h-.02Z" class="st0"/><path d="M-722.99-476.78c1.95 1.22.17 6.9.28 8.42.49 7.22 5.89 16.13 12.84 18.7 4.64 1.71 14.58-.42 15.43 4.08 2.37 12.66-5.64 6.98-13.97 9.56-7.22 2.24-11.76 10.16-12.75 17.33-.47 3.42 1.55 10.01-2.96 10.86-1.41.27-9.17.35-10.41.06-2.31-.54-.61-5.82-.71-6.94-.72-8.69-4.46-15.09-12.27-19.27s-17.32-.55-12.66-14.36c11.03.19 21.43-4.25 24.71-15.53.68-2.34.92-11.95 1.95-12.68.76-.53 9.89-.63 10.5-.24h.02ZM-660.28-392.36c1.45 14.57-2.19 9.4-11.03 12.96-3.51 1.42-6.54 5.23-7.32 8.95-.88 4.21 1.38 10.06-3.54 11.05-12.66 2.55-7.51-2.55-9.79-10.64-2.49-8.84-10.5-10.6-18.67-11.01l-.89-11.31c8.58.53 18.01-1.74 19.97-11.33.81-4-1.28-8.88 2.57-9.58 11.03-2 7.96.51 9.36 7.31 2.13 10.4 9.12 14.07 19.32 13.6zM-833.59-422.18c31.09-1.96 56.81 19.02 64.96 48.36 13.3 47.83-15.86 108.39-58.56 132-32.59 18.02-71.49 12.85-90.92-20.73-34.78-60.12 15.09-155.25 84.52-159.63m-14.7 47.04c-6.01.93-22.22 26.87-25.62 32.94-4.46 7.95-9.24 17.86-12.75 26.27-.96 2.31-6.83 17.19-6.75 18.15.28 3.28 15.8 12.86 19.32 14.78 5.74 3.13 22.96 10.74 28.89 10.22 2.61-.23 6.65-4.88 8.5-7.01 12.34-14.19 30.89-47.54 35.09-65.71 1.01-4.38 2.91-8.47-.98-11.44-4.53-3.46-21.24-10.1-27.37-12.47-2.78-1.07-16.54-6.02-18.33-5.74Z" class="st0"/><path d="m-818.84-328.96-17.36-7.22c-1.15-.82.5-3.23-2.1-2.52l-16.28 33.78c-.2 1.51.31.96 1.03 1.38 3.02 1.75 16.55 5.95 16.83 7.6.15.9-6.47 9.3-8.07 9.73-3.89 1.04-31.69-13.37-32.41-17.26-.26-1.42 10.02-23.22 11.62-26.34 2.23-4.35 16.01-29.07 18.92-29.91 2.73-.78 32.82 11.83 34.01 13.66s-1.47 4.03-2.24 5.96c-1.45 3.65-2.46 7.49-3.95 11.12zM-1328.76-166.44c9.76 3.14 18.33-2.81 24.45-10.37.72-.89 5.43-7.23 5.53-7.71.2-.95-1.53-2.23-2.05-3.17-1.74-3.15-1.05-9.64 1.86-11.79 1.05-.77 2.94-.76 3.56-1.5.55-.66.86-2.85 1.33-3.88 1.96-4.31 7.97-7.74 12.36-8.03 3.24-.21 13.42 4.48 15.76 6.94 6.33 6.68 3.97 17.85 3.18 26.12-1.65 17.42-3.68 32.3-18 43.22-5.1 3.89-15.41 8.44-21.63 9.1-1.82.19-6.93-.5-7.98.96-.46.64-.44 8.52-.77 10.53-.29 1.81-3.07 9.92-2.35 10.83 10.62 1.43 25.18 3.08 32.25 12.72 9.66 13.17-4.83 30.73-14.57 38.53-5.08 4.07-10.7 7-16.05 10.51-7.22 4.74-5.18 4.79-8.24 12.4s-11.89 20.48-20.57 21.57c-8.13 1.02-7.18-7.51-6.53-13.39.5-4.58 2.87-10.47 2.35-14.7-.57-4.56-4.58-11.7-.98-15.61 2.13-2.31 5.07-3.67 7.29-6.6 1.14-1.5 3.06-4.01-.03-4.52-2.72-.44-12.53.5-14.96 1.78-.39.21-.72.47-.96.86-5.61 9.93-11.87 18.99-20.07 26.64-2.27 2.11-4.83 3.94-7.11 6.04-2.52 2.32-5.44 6.81-8.77 7.67-1.74.45-4.16.22-5.91.51-13.25 2.14-18.12 23.48-29.49 30.6-9.58 5.99-15.7-2.15-14.74-12.3.63-6.66 5.83-14.44 6.94-20.97.59-3.51-.34-7.32 1.78-10.58 1.97-3.02 5.41-3.16 7.98-5.2 1.47-6.9-.48-12.29 4.25-18.07 3.73-4.56 10.05-4.37 13.83-8.71 1.17-1.34 7.67-13.85 8.08-15.6.85-3.66 1.02-7.58 2.12-11.36s3.06-7.28 4.36-10.89c.28-2.98-3.93-4.94-3.1-10.09s6.51-5.88 7-12.57-2.66-5.6-7.45-4.54c-7.02 1.56-20.35 6.91-27.21 9.96-.45.2-1.89.88-2.07 1.2-.06 5.06-.84 9.56-5.48 11.93-3.47 1.77-5.18 0-7.48.72-3.68 1.16-4.03 5.91-9.55 4.16s-4.98-3.72-8.16-6.81c-.61-.59-1.4-.77-1.97-1.3-12.98-12.13 6.18-34.86 16.03-42.29 12.18-9.19 21.46-7.29 34.97-10.39 4.21-.97 10.08-2.47 14.13-3.85 6.14-2.1-3.05-6.65-5.14-8.52s-7.05-7.15-3.52-9.78c1.71-1.27 6.75-2.18 9.14-3.49 1.03-.56 3.19-1.93 3.41-3.18.17-1-.1-2.17.09-3.31.65-3.93 2.36-5.86 4.8-8.48 1.5-1.61-1.36-2.12-2.41-1.44-.28.18-2.02 3.89-2.65 4.74-3.12 4.21-11.47 9.03-16.53 7.38-4.57-1.48 2.5-6.37 3.75-7.77.85-.95 5.35-6.87 5.12-7.7-1.23-1.29-3.5-1.9-5.17-2.09-2.88-.32-10.22 1.03-12.01-1.19-2.7-3.35 4.28-8.39 6.81-9.36 4.26-1.63 10-1.16 13.91 1.27.77.48 2.56 2.5 3.21 2.03 2.32-5.33 6.68-16.26 12.36-18.04 8.68-2.71 16.32 4.92 17.46 13.72 3.51.64 7.01 1.14 10.46 2.09 5.2 1.44 12.94 3.44 16.36 7.91.98 1.28 2.57 5.25 3.16 5.71.88.68 2.64.22 3.85.44 7.61 1.35 7.91 15.41 6.1 21.45-1.82 6.09-5.93 10.16-8.61 15.41-.37.72-1.55 2.81-1.1 3.48h-.01Z" class="st0"/><path d="m-1273.91-47.81-22.22 23.78c-19.91 20.11-40.71 39.13-61.79 57.83l-2.94 1c-1.14-1.24.65-3.05 1.4-4.15 8.97-13.1 21.42-20.05 32.45-30.85 6.54-6.41 11.7-13.13 16.25-21.26 2.08-3.71 5.72-12.88 8-15.49 1.21-1.38 4.25-2.57 5.88-3.76 16.74-12.14 36.66-31.21 26.25-55.13-2.09-4.8-8.37-10.54-12.85-12.78-3.71-1.85-7.93-2.68-11.59-4.66 3.21-2.74 6.5-5.42 9.59-8.32 20.07-18.85 38.48-43.28 48.79-69.79.81-2.08 3.54-8.55 3.38-10.35-.15-1.66-1.46-2.03-2.75-2.39-5.3-1.47-14.11-1.82-18.74-3.86-2.64-1.16-3.05-4.83-1.19-6.99l52.74-42.13c4.76-3.4 6.32 1.17 7.99 4.97 8.42 19.24 15.21 39.43 23.21 58.86.04 2.43-1.58 4.29-3.92 4.19-5.1-.87-11.13-3.76-16.07-4.49-.5-.07-.97-.24-1.33.3-10.49 38.54-27.58 74.55-50.07 106.62-9.48 13.51-19.78 26.4-30.45 38.84h-.02ZM-1470.06-51.83l67.45-58.81c1.98-.97 2.47 3.92 2.5 5.3.11 4.67-2.83 7.02-4.35 10.9-.96 2.44-1.12 6.27-2.95 7.82-17.47 9.36-34.45 21-51.98 30.08-3.42 1.77-7.09 3.3-10.66 4.71zM-1433.86 32.88l79.5-64.66c-1.3 3.45-2.42 7-3.37 10.59-1.19 4.5-1.89 9.25-3.17 13.64-21.82 11.44-42.8 24.68-64.44 36.48-2.69 1.47-5.59 3.3-8.53 3.96h.01ZM-104.85-773.76c6.22-1.17 12.65-1.47 18.96-1.9 29.04-.1 58.06 5.41 81.94 22.22 9.18 6.47 17.42 14.9 19.19 26.05 13.54 4.75 25.34 13.27 26.91 27.97-8.97 14.02-25.9 21.2-41.29 26.81.43 7.32 1.3 10.68 6.14 15.73 6.35 6.61 12.16 14.01 17.14 21.59 8.81-5.86 20.17-14.78 25.63-23.23 7.05-10.91 4.74-18.11 1.8-29.83 18.5 13.69 33.48 42.91 15.91 62.62-6.43 7.21-16.66 11.57-26.47 12.34 11.02 17.34 21.21 43.23 21.46 63.08-2.04-1.08-4.03-2.22-6.03-3.35-.58 14-5.39 28.8-14.29 40.01-.2-1.66-.74-3.36-1.13-4.99-5.63 12.39-13.41 15.39-21.25 23.52l-.24.26c2.02-7.99 1.24-17.45-6.28-22.64-10.17 7.75-21.74 14.65-33.93 19.15-7.51 2.77-4.63 1.47-9.79 6.44-16.93 16.34-49.85 17.84-65.81.2-5.37-5.93-3.71-4.17-11.03-6.89-2.98-1.1-5.9-2.39-8.79-3.68-9.41-4.31-18.01-9.94-25.97-16.37-4.18 8.08-5.55 14.81-5.04 23.78-8.34-7.67-17.07-14.01-20.95-25.33-1.7 1.78-2.29 3.33-2.49 5.7-7.96-11.52-12.87-25.26-12.22-39.17-2.47.75-4.33 1.98-6.45 3.35.08-21.26 8.94-43.98 21.16-61.76-10.88-3.42-20.67-5.66-28.61-14.47-16.62-18.43 1.46-48.86 18.3-62.49-1.86 3.95-2.82 8.89-3.02 13.2-.96 21.32 18.47 28.02 30.57 40.53 4.53-7.02 13.54-19.54 20.89-23.85-.21-4.38.25-9.16 1.06-13.47-1.53-.73-3.1-1.35-4.67-2.01-20.93-8.73-45.48-27.71-34.14-51.91 5.71-12.2 21.7-24.39 34.57-29.1-2.17 28.73 26.77 54.45 54.67 60.05-21.82-13.3-39.23-40.21-31.78-65.55 1.29-4.38 3.4-8.52 5.39-12.64zm-46.87 41.04c-7.22 5.74-14.35 17.04-6.98 25.26 7.13 7.95 23.47 12.49 34.1 13.65 2.83.4 5.66.69 8.49 1.06-16.85-7.1-35.46-16.55-35.72-37.02 0-.98.14-1.98.11-2.95m82.86 45.19c-12.53.94-41.05 4.5-49.89 9.68-1.59 4.37-2.23 9.64-2.54 14.25 22.32-4.73 39.67-7.53 63.21-6.77 13.92.17 38.92 2.29 52.48 6.77-1.36-4.84-2.29-9.2-2.35-14.25-18.67-6.88-40.8-10.42-60.92-9.68zm-2.89 25.46c-14.34.82-28.35 2.03-42.4 4.99-9.34 1.97-9.82 2.45-16.37 9.48-16.84 18.1-34.47 49.8-32.94 73.9 1.89 29.73 28.86 55.02 56.14 66.58-3.65-8.04-5.4-16.34-6.24-25.04-9.78-11.64-11.63-23.33-3.94-36.56-7.25.35-11.26-1.81-16.73-6.55-21.18-18.32-5.44-57.42 23.71-50.24-6.8-6.66-20.06-9.82-29.66-8.76 17.33-7.36 37.7-3.32 48.43 12.14 1.9 2.73 4.34 8.36 8.88 6.62 6.83-2.62 1.15-25.34-.58-30 5.32 5.83 8.85 12.81 11.75 19.97 2.71 6.7 5.01 15.52 13.64 8.7 3.97-9.01 5.95-21.3 14.05-27.03-1.44 3.94-9.57 35.27 3.46 27.65 3.25-1.9 5.04-5.36 7.4-8.11 8.69-10.16 19.73-16.75 33.99-13.74 3.27.69 6.29 1.94 9.49 2.76-8.3 2.81-21.95 4.29-28.98 8.89 2.51-.14 5.04-.32 7.55-.16 36.01 2.32 38.23 55.31 1.61 57.85 5.3 10.78 7.1 21.44-.17 31.7-5.96 8.41-3.1 5.78-5.49 15.4-1.23 4.97-3.2 9.62-4.71 14.5 64.97-30.82 72.59-82.14 27.64-135.58-3.38-4.02-6.86-8.05-10.35-11.99-22.66-5.02-45.87-8.03-69.16-7.4zm-113.5 19.55c-2.4.26-4.63.65-6.9 1.45 14.7-.27 21.41 9.43 30.44 19.58l1.78 1.61c1.02-1.79 1.99-3.69 2.7-5.61-4.6-10.96-15.59-18.26-28.03-17.03Zm241.68 0c-13.35 1.63-20.51 4.97-26.57 16.12.56 1.76 1.35 3.41 2.49 4.9.63-.23 1.29-.43 1.88-.75 11.87-6.59 9.75-14.45 26.82-20.28-1.53-.04-3.08-.13-4.61 0h-.01Zm-171.03 30.46c-10.88 9.64 8.99 25.38 17.78 13.27 1.54-2.65 1.35-4.97 1.09-7.88-6.48 10.19-16.93 6.73-15.96-3.54-.91-.74-1.79-1.4-2.91-1.85m99.99.59c.49 11.85-9.26 14.28-15.51 6.29.19 3.19.53 5.87 3.2 8.07 14.89 9.69 23.79-13.65 12.32-14.36zm-49.2 4.26c-3.07.85-17.04 15.09-22.01 18.64-4.79 3.42-9.84 6.39-14.17 10.37-7.89 7.26-16.04 20.96-12.77 31.52 8.11 26.19 52.63 13.68 46.04-4.24-5.86-2.65-12.07-5.68-14.02-12.04-8.33-.79-18.68-9.08-9.22-15.92 6.34-4.58 18.36-5.08 26.15-4.85 7.82-.32 20.64.28 26.55 5.47 7.69 6.75-.07 14.6-8.87 15.29-3.25 8.4-7.39 7.95-13.85 12.65-3.7 21.08 42.39 27.77 46.47 1.56 3.33-21.44-19.47-31.84-32.32-42.87-4.61-3.96-13.27-14.84-17.98-15.6zm-1.17 78.8c-10.16.24-17.73 6.22-27.58 5.35-4.08-.36-7.49-2.13-11.42-2.86 3.96 23.07 16.57 33.16 41.16 32.64 23.02-.08 36.22-11 39.42-32.64-18.5 8.13-25.14-3.76-41.58-2.49M337.28 1234.83c-20.09-11.3-46.81-33.59-62.95-49.82-24.1-24.23-36.17-52.3-41.75-85.64-1.32-7.9-2.74-16.33-2.73-24.34 1.51 1.59 6.93 9.99 8.93 12.66 16.46 21.9 35.57 39.16 60.3 50.81 3.34 22.55 27.06 50.91 42.57 65.93 5.34 5.17 11 10.03 16.35 15.19-2.75 2.22-5.65 4.27-8.47 6.4-4.02 3.06-8.07 6-12.25 8.83z" class="st0"/><path d="M431.77 1137.8c28.43-14.07 49.72-37.27 68.58-62.19l.09.11c-.01 1.21-.39 2.51-.57 3.72l-1.35 9.08c-2.52 16.42-6.74 35.78-13.32 51.1-21.18 49.36-69.65 80.13-113.61 107.22-12.82 7.9-40.66 25.21-55.02 29.29 1.67 11.17 10.46 17.84 21.42 18.84-13.64 11.45-23.69 4.85-34.76-5.57v6.56c2.42 2.42 2.77 4.68.41 7.35 5.41 5.54 3.63 7.49-.25 12.45-.79 1.01.3.91.41 1.82-1.36 1.06.37 2.28 1.21 3.24 10.32 11.85 2.99 32.16 10.65 40.84-2.97-1.62-5.08-3.9-7.42-6.28 0 6.24-5.07 10.91-6.67 16.84-1.61-7.19-7.01-11-7.55-16.84-1.88 3.41-4.2 4.91-7.54 6.75 8.31-10.21.91-26.91 8.63-38.61.55-.83 4.27-4.76 4.13-5.39-.26-1.2-1-.42.21-1.46-.88-1.92-2.9-3.05-3.77-5.06-.84-3.5 1.06-5.88 3.42-8.29-1.72-1.54-1.93-2.75-1.9-5.06-1.13.67-2.14 1.56-3.17 2.39-1.8-1.12-3.24-2.73-4.7-4.25-6.99 4.91-17.71 15.41-24.06 21.39 1.39 11.17-14.22 15.67-19.09 5.69-3.96-8.12 3.18-18.3 12.42-14.94 7.75-6.87 15.6-13.65 23.2-20.69-1.96-2.37-4.37-4.3-6.29-6.72 1.71-1.29 3.3-2.92 4.88-4.37 1.96 2.2 4.29 3.94 6.1 6.32 2.08-2.72 4.89-4.8 7.54-6.93-11.95-8.63-16.13-26.81-4.7-37.66.98 9.97 7.09 21.1 16.75 24.75 20.27-13.71 40.98-25.17 59.99-40.47 24.66-19.85 51.35-46.42 62.83-76.7 1-2.63 1.67-5.41 2.78-8l.1-.24v-.03Zm-132.68 151.6-4.52 3.6c.87.99 1.74 1.99 2.62 2.96.83.75 1.7 1.31 2.01-.24.13-.64.15-5.95-.11-6.32" class="st0"/><path d="M423.37 1263.78c10.39-4.83 15.59-13.87 16.39-25.31 9.65 7.75 10.11 26.96-2.08 33.65-.26 6.13-.31 7.54 5.21 10.94 1.43-1.95 3.6-3.7 5.34-5.39 7.6 4.07 3.23 5.44-.87 10.16 5.18 5.72 15.74 14.13 21.95 19.37 19.56-2.76 18.96 21.19 4.36 21.61-7.67.22-10.79-6.19-10.93-12.99-7.53-6.76-15.41-13.16-22.99-19.87-1.94 2.27-6.3 8.13-8.86 2.55-.12-1.67 1.92-3.39 2.63-4.86-1.35-1.54-3.13-2.85-4.64-4.26 0 1.88-.69 6.65.96 7.98 1.52 1.22-.04 3.44-.96 4.6-.12 1.14-.04 2.28 0 3.42 5.07.78 5.86 5.73 1.64 8.71 2.37 4.62 6.55 17.02 7.18 22.14.97 7.86-1.12 17.24 2.89 24.33-2.95-1.45-5-3.49-7.07-6.01 1.09 8.85-3.66 7.93-4.64 14.78l-.91 1.73c-2.22-6.02-6.54-8.56-6.26-15.7-2.07 2.95-4.17 4.44-7.21 6.28 4.56-9.07 2.15-16.06 3.83-25.35 1.37-7.57 4.03-14.9 6.38-22.2-5.11-1.4-4.62-7.63.65-8.71v-3.42c-2.66-2.07-2.17-3.81 0-6.02l.04.09c-.1-2.01-.17-4.06-.04-6.07-10.51 10.56-23.08 15.83-35.54 4.99 11.75-.24 20.33-7.27 22.97-18.84-6.66-.47-32.97-16.35-39.97-20.84 3.17-2.02 16.2-10.11 18.36-12.48 10.7 7 21.27 14.33 32.2 20.97v.02zM-1366.3-1371.45c.46-.37 4.11-8 5.8-10.15 2.55-3.25 6.37-6.61 9.87-8.82l-28.82-37.21c-2.61-3.91-2.25-8.79-1.84-13.3 3.51-38.45 16.71-76.79 60.9-79.96 56.56-4.06 117.94 3.11 175.01.06 23.05 2.67 42.2 20.62 47.17 43.08 4.24 19.18 3.72 79.54 1.87 100.57-.75 8.55-6.08 10.67-6.71 15.3-3.68 27.43 3.71 63.7-.04 91.3-.39 2.84-1.56 5.48-3.2 7.81-3.48 4.97-27.9 29.28-32.99 33.04-3.18 2.35-6.33 3.84-10.44 3.87h-219.11c-7.13-.22-12.88-5.67-13.73-12.68v-120.01c1.5-12.61 11.83-9.34 16.26-12.91Zm207.18-81.16h-181.59c4.53-16.29 7.37-32.51 20.91-44.01-31.95-1.24-36.87 36.11-38.52 60.52h74.3c15.81-6.46 29.22-4.56 45.08.03l94.54-.18c1-.2 1.27-.85 1.59-1.71 2.13-5.72 4.46-21.98 5.37-28.75 1.25-9.29 3.85-18.16-3.13-25.9-4.49-4.98-14.73-6.39-21.26-6.27-2.25.04-3.23-.68-2.78 2.23 18.1 6.68 6.65 30.19 5.5 44.04Zm-37.42 53.91c-4.69-9.5-14.18-14.8-24.81-11.05-6.12 2.16-9.56 9.99-17.35 7.55-1.54-.48-8.84-10.49-12.49-12.82-9.73-6.21-22.82-4.26-29.46 5.4-2.64 3.83-2.85 8.7-7.19 11.47-2.22.82-9.59-4.14-12.96-4.68-9.2-1.48-16.48 4.81-22.69 10.66-.93.88-1 .76-.7 2.28 3.1.69 6.49 1.78 9.17 3.49 2.31 1.47 8.9 9.78 10.61 8.62 11.76-23.54 45.57-28.14 63.9-9.4 1.36 1.39 9.06 13.5 9.84 12.71 3.01-15.06 19.5-24.52 34.13-24.22Zm55.03 26.42c-1.02-14.91-15.08-31.68-30.87-22.61-7.02 4.03-.37 4.66 2.74 8.37 3.15 3.75 6.3 9.41 7.21 14.25h20.92Zm-107.86 13.21c-2.78-24.45-35.44-24.55-42.49-2.28l1.22 2.28zm68.24 0c-.24-23.66-31.04-22.58-31.92 0zm-136.47 0c-5.68-15.18-22.33-16.44-30.28-2.18l1.11 2.18zm12.11 19.81-55.03-1.1v90.79l1.65 1.65h202.5c.31 0 2.08-1.03 2.42-1.45.2-1 1.43-2.87 1.43-3.51v-85.84c-1.53-2.5-2.37-.55-2.75-.55h-64.38v16.51h48.42v59.43h-172.78v-59.43h38.52v-16.51Zm64.93 0h-45.12v36.87c0 7.97 15.08 16.83 22.56 16.83s22.56-8.86 22.56-16.83zM2033.34 316.98c4.99-8.24 14.49-16.75 24.24-21.3s21.51-7.55 31.6-12.86c35.21-18.52 55.26-53.76 63.27-86.65 1.46-5.99 1.75-13.61 3.53-19.17 3.42-10.65 23.48-9.81 25.33-.09 1.52 8.03-1.36 24.12-3.35 32.4-7.06 29.34-29.7 62.1-56.57 82.19-6.65 4.97-14.75 9.11-21.36 13.94-25.66 18.76 3.04 25.76 19.1 36.8 33.37 22.93 52.26 60.93 59.46 95.57 1.59 7.64 3.48 16.29 2.07 23.99-.34 1.85-1.7 3.74-4.08 4-4.13.46-17.56.43-21.76 0-.88-.09-1.13-.06-1.87-.56-3.87-2.65-5.13-17.14-6.25-21.66-6.76-27.32-20.3-52.77-45.73-71.66-73.68-54.74-157.31-7.72-179.08 60.09-3.07 9.56-3.72 22.47-7.8 30.9-.71 1.46-1.45 2.7-3.5 2.9-7.25.7-16.38-.5-23.83-.14-.66-1.1-1.63-2.19-1.9-3.43-1.94-9.08 1.07-22.04 3.34-31.18 8.15-32.78 26.92-67.7 58.73-89.34 10.06-6.84 31.67-13.48 27.93-26.2-2.17-7.38-22.8-18.01-30.19-23.48-33.57-24.84-58.45-65.68-60.62-103.03-.43-7.33-1.93-17.2 8.94-19.49 4.92-1.04 8.89.26 12.74 2.67 4.99 3.14 4.79 13.6 5.96 18.74 7.67 33.52 24.72 68.36 59.19 88.96 19.78 11.82 38 12.45 55.13 29.22 2.15 2.1 4.18 5.93 5.76 7.35.53.47.65.71 1.56.54Z" class="st0"/><path d="M1923.31 465.77c-3.42-.86-.05-13.31.52-15.87 9.08-40.42 35.35-78.44 85.43-91 18.56-4.66 28.34-4.68 46.91 0 48.18 12.15 73.89 47.48 84.15 86.26.95 3.61 4.04 15.22 3.25 18.13-.19.69-1.02 1.92-1.77 2.22-1.13.44-16.74.52-18.85.29-1.13-.12-1.37-.13-2.23-.79-2.43-1.83-3.15-12.27-3.98-15.64-6.84-27.67-25.79-49.35-56.36-62.38-23.06-9.83-34.75-9.31-57.43.89-33.05 14.86-48.82 36.76-55.53 66.74-.84 3.73.05 8.39-3.68 11.16h-20.41Z" class="st0"/><path d="M1956.16 465.77c-2.59-5.09-.53-10.63.95-15.77 11.07-38.38 48.9-76.95 101.54-57.92 26.78 9.68 47.99 40.73 51.17 64.02.38 2.75.78 7.58-1.53 9.67h-31.26c-1.51 0-3.87-3.6-4.46-4.74-2.81-5.47-3.54-12.34-6.59-18.23-5.3-10.21-20.07-24.87-34.91-23.85-14.35.99-27.56 15-32.49 25.26-2.61 5.43-3.36 12.91-6.14 17.55-.47.79-3.5 4-4.08 4h-32.21ZM1919.93 169.36c4.41-.84 8.93.91 10.96 4.15 4.92 32.32 20.41 62.46 52.4 82.46 3.96 2.48 10.94 6.72 15.17 8.53 17.27 7.4 23.79-11.58 41.9-5.09 5.98 2.14 12.38 7.61 19.38 7.04 6.05-.49 17.57-7.57 22.66-10.78 27.78-17.51 42.75-42.07 49.64-70.02.81-3.31 1.02-10.99 3.07-13.24 2.87-3.15 10.44-5.2 12.26-.14 2.5 6.96-2.61 26.33-5.13 33.89-13.87 41.73-48.77 72.93-101.22 81.66-2.19.36-6.74 1.35-8.61 1.31-4.29-.09-15.18-2.63-19.76-3.73-44.48-10.66-74.52-38.85-87.93-74.74-3.13-8.37-9.75-31.11-6.52-38.8.36-.85 1.32-1.64 1.73-2.51Z" class="st0"/><path d="M1949.59 169.36c12.16-2.92 10.97 10.13 12.61 16.2 5.97 22.18 26.59 38.87 52.02 46.5 15.69 4.71 21.27 4.76 36.97 0 24.48-7.42 44.68-23.32 51.25-44.51 1.39-4.48 1.8-15.63 6.46-17.81 1.56-.73 6.28-.93 7.68.04 3.65 2.52 3.15 6.61 2.87 10.24-2.68 35.11-34.33 59.93-75.15 65.82-48.18 6.95-95.67-25.9-98.38-65.79-.2-3-.77-9.63 3.67-10.69" class="st0"/><path d="M1991.14 169.33c3.09 4.3 3.41 9.34 5.73 13.94 14.54 28.95 60.35 27.08 72.66-2.34 1.06-2.54 1.41-5.65 2.41-8 1.85-4.37 3.87-4.2 9.24-3.41 5.02 5.8-.89 16.06-5.21 21.46-10.53 13.16-33.51 24.54-52.83 20.07-15.3-3.54-29.56-12.7-36.7-24.43-3.65-6-9.59-19.7 4.7-17.27ZM-277.26-146.55c.28 10.7.83 22.51.79 34.35.08 8.76 1.65 17.13 4.47 24.9l-.16-.52c2.26 5.68 4.19 12.41 5.46 19.38l.1.68c2.32 17.19-6.97 27.04-21.04 34.55-.83.46-1.83.73-2.88.73h-.2a10 10 0 0 1-2.78-.91l.06.02c-.93-3.38 1.01-5.48 2.3-7.76 1.63-2.82 3.38-5.48 4.86-8.36 3.75-7.46 2.7-13.18-3.36-18.86-1.09-.93-2.28-1.85-3.53-2.68l-.14-.08c-9.43-1.99-16.32 2.94-23.17 7.68-9.71 6.69-15.33 15.59-14.87 27.8.2 4.86.22 9.71 0 14.57-.22 3.95-.93 7.88-1.45 12.27h-9.17c-3.63-2.96-4.57-7.43-5.04-11.5-1.97-16.04-11.91-24.74-26.25-29.26-7.25-2.46-15.59-3.87-24.24-3.87-9.39 0-18.38 1.67-26.72 4.73l.54-.18c-13.3 4.71-22.49 13.2-24.28 28.15-.32 4.69-2.22 8.85-5.14 12.07l.02-.02h-9.11c-.58-4.15-1.39-8.1-1.63-11.95-.28-5.12-.26-10.26 0-15.39.46-10.56-3.95-18.88-11.95-25.17a70.6 70.6 0 0 0-13.98-8.5l-.44-.18c-3.24-1.49-7.17-1.51-10.66-2.14-2.24 1.65-4.21 3.3-6.06 5.06l.02-.02c-4.39 4.86-5.6 10.3-2.42 16.3 1.75 3.24 3.89 6.47 5.54 9.81 1.11 2.24 3.49 4.33 1.63 7.9-1.23 0-3.02.75-4.21.18-10.3-4.86-18.86-11.69-21.76-23.31-1.85-7.45-.52-14.95 1.83-22.2 1.81-5.6 4.05-11.08 5.46-16.76 1.01-4.21 1.71-9.11 1.89-14.14v-.14c.34-6.47 0-12.94.24-19.44.22-5.88.71-11.77 1.39-17.63.28-3.97 2.64-7.33 5.98-9.01l.06-.02c6.37-2.84 9.47-8.1 13.1-13.6 15.25-23.09 37.94-40.18 64.62-47.97l.81-.2c10.42-3.14 22.41-4.92 34.8-4.92 5.96 0 11.81.42 17.55 1.21l-.66-.08c23.43 2.86 43.72 12.29 61.76 26.88 9.99 8.14 18.31 17.89 24.66 28.91l.26.5c1.81 3.24 3.83 5.88 7.21 7.25 4.39 1.77 6.65 5.32 9.93 10.88l-.04.02Zm-93.31-18.36c.64 8.22 1.29 17.29 2.01 26.37.77 9.99 6.47 15.47 13.94 17.45 14.57 3.91 29.36 5.52 44.19 7.21.5.08 1.05.12 1.63.12 3.69 0 6.95-1.89 8.83-4.75l.02-.04c3.32-4.86 4.86-21.58-1.13-27.52-5.56-5.58-11.18-10.56-18.9-13.2-13.2-4.53-26.82-6.99-40.48-9.17-3.02-.5-6.55-1.29-10.15 3.55zm-54.86-2.2c-1.69-.71-3.65-1.21-5.72-1.41h-.08c-4.59.14-8.95.69-13.18 1.63l.48-.08c-11.16 2.58-22.51 4.75-33.31 8.44-15.27 5.22-22.75 17.57-20.55 32.26 1.63 10.4 6.35 13.24 15.23 12.35 7.96-.79 15.92-1.77 23.82-3.14 6.55-1.15 12.94-3.02 19.44-4.51 7.23-1.63 10.96-6.93 12.25-13.5 1.33-6.59 2.1-14.16 2.1-21.9 0-3.55-.16-7.09-.48-10.56l.04.46zm45.74 78.68c1.01-2.14 2.18-4.51 3.24-6.91 2.42-5.66 2.22-11.75 1.27-17.51-1.97-11.75-6.59-22.16-13.28-30.93l.12.18c-5.68-7.58-12.73-7.41-18.6.12-.32.42-.48.97-.81 1.39-5.92 8.06-10.18 17.71-12.07 28.17l-.06.42c-.48 2.18-.75 4.71-.75 7.27 0 4.25.75 8.32 2.14 12.07l-.08-.24c2.42 6.47 7.07 8.28 13.42 5.34 1.21-.58 2.28-1.43 3.51-1.95 1.89-.81 3.83-1.45 5.62-2.1 4.65 4.13 9.07 7.07 16.36 4.69h-.02Z" class="st0"/><path d="M-468.09 25.25q5.12 1.19 9.71-.97c2.68-12.19 11.12-20.57 21.9-25.99 21.68-10.9 44.19-13.8 67.5-4.43 8.64 3.51 16.56 7.54 23.03 14.27 4.67 4.86 7.11 10.6 9.87 17.25l8.48.38c2.72-4.29 4.33-9.49 4.33-15.09 0-.44 0-.87-.02-1.31v.06c.09-10.51.13-21.03.1-31.55v-.12c0-5.32 1.15-10.36 3.22-14.91l-.1.22c1.37-3.08 3.36-4.86 7.35-3.63 3.75 7.39 2.28 15.45 1.89 23.39-.14 2.4-.69 4.76-.81 7.15-.66 13.44-.77 26.9-2.01 40.28-.85 8.4-2.62 16.08-5.18 23.37l.22-.69c-4.63 13.72-19.77 18.86-32.18 11.48-6.02-3.55-11.71-7.68-17.95-10.74-5.96-3.18-12.89-5.94-20.13-7.92l-.71-.16c-2.62-.6-5.64-.95-8.74-.95-6.87 0-13.34 1.71-19 4.71l.22-.1c-8.64 4.21-16.86 9.29-25.35 13.82a39.8 39.8 0 0 1-10.66 4.61l-.28.06c-10.24 1.97-20.65-6.25-23.05-13.96-2.24-6.47-4.07-14.1-5.12-21.98l-.06-.62c-1.23-11.46-1.29-23.07-1.89-34.62-.44-8.3-1.17-16.6-1.33-24.92a81 81 0 0 1 1.43-12.09l-.08.52c3.99-1.95 6.75-.79 7.82 2.34 1.71 4.31 2.9 9.29 3.38 14.49l.02.22c.54 10.76.18 21.56.28 32.38.14 5.78 1.57 11.18 3.99 16l-.1-.22.04-.02ZM295.94 21.88v21.65c-12.58-.38-26.08 7.86-27.71 21.02l-.25 185.59c-1.08 3.9 3.86 7.23 3.04 10.39-.31 1.18-13.21 18.16-14.62 19.58-1.28 1.29-1.43 2.18-3.75 1.62-.68-7.69-15.54-17.44-13.71-23.6.49-1.66 2.85-3.24 2.85-3.46v-60.32l-2.32-2.32h-40.22l-2.32 2.32v60.32c0 .22 2.36 1.8 2.85 3.46 1.83 6.18-13.16 16.27-14.47 23.62-2.15.49-2.57-1.33-3.61-2.58-1.91-2.31-13.7-17.52-14-18.64-.93-3.53 2.92-5.51 2.92-5.86v-62.64h-43.31v62.64c0 .35 3.86 2.33 2.92 5.86-.3 1.13-12.1 16.38-14 18.64-1.04 1.25-1.46 3.07-3.61 2.58l-14.5-19.69c-1.36-4.91 2.88-6.97 2.88-7.39v-60.32l-2.32-2.32H58.46l-2.32 2.32v60.32c0 .22 2.36 1.8 2.85 3.46 1.83 6.16-13.03 15.91-13.71 23.6-2.33.56-2.48-.33-3.75-1.62-1.41-1.42-14.31-18.4-14.62-19.58-.82-3.16 4.13-6.49 3.04-10.39L29.7 64.55c-1.62-13.16-15.12-21.4-27.71-21.02V21.88h293.89ZM101.05 43.53H56.19v51.04h44.86zm69.6 0h-43.31v51.04h43.31zm71.16 0h-44.86v51.04h44.86zm-140.76 78.89H56.19v40.99l2.32 2.32h40.22l2.32-2.32zm69.6 0h-43.31v43.31h43.31zm71.16 0h-44.86v40.99l2.32 2.32h40.22l2.32-2.32z" class="st0"/></svg>