<svg xmlns="http://www.w3.org/2000/svg" width="800" height="800" fill="#fff" viewBox="0 -12.63 369.55 369.55"><title>engram</title><g data-name="Layer 2"><path d="M189.718 36.81h-9.383L79.286 22.376 116.818 0h137.138l37.532 22.375ZM0 158.159l65.682 85.17 40.42 98.884-38.255-23.097L0 199.3ZM191.271 49.892l5.052-5.774L300.26 29.682l67.847 117.65-68.568 87.335-108.267-62.073Zm112.597 194.88 65.682-85.892v41.863l-67.847 119.093-38.976 23.82Zm-123.424-71.456L72.178 235.389l-68.57-87.335 68.57-117.65 103.214 14.435 5.052 5.775Zm3.5 9.294 107.544 60.629-39.697 101.049H115.375l-38.976-101.05Z" data-name="Layer 1"/></g></svg>