<svg xmlns="http://www.w3.org/2000/svg" width="800" height="800" fill="#fff" viewBox="0 0 32 32"><path d="M26.279 11.335c.415.41.66.896.567 1.525-.04.272-.081.538-.201.788a1.622 1.622 0 0 1-.825.815l-.01.004c-.28.122-.557.222-.87.214a.699.699 0 0 1-.516-.231l-.001-.001c-.375-.397-.746-.797-1.124-1.191a.56.56 0 0 1-.176-.408v-.011.001c.006-.287.096-.399.379-.465l1.051-.247c.502-.117.961-.314 1.335-.684.092-.091.19-.181.392-.111zM5.741 20.655c-.354-.309-.581-.702-.609-1.176a2.311 2.311 0 0 1 .263-1.255l-.006.013c.282-.534.767-.776 1.326-.908.059-.013.117-.012.176-.023.274-.059.5.032.686.229.387.41.769.825 1.156 1.236.153.162.161.351.106.544-.047.165-.171.247-.338.284-.416.094-.835.181-1.245.298-.422.12-.829.281-1.131.626-.09.1-.203.152-.383.132zM10.123 21.767a2.89 2.89 0 0 1-.328.106l-.023.005a3.775 3.775 0 0 0-1.11.408l.019-.01c-.237.141-.44.283-.631.439l.01-.008c-.059.043-.087.126-.128.19l-.14.216c-.265-.095-.493-.203-.683-.372-.304-.273-.596-.56-.895-.839-.17-.158-.2-.351-.142-.561.102-.359.329-.654.63-.842l.006-.004c.58-.375 1.239-.482 1.863-.546.156.078.161.176.164.276.012.266.121.505.293.683.243.272.516.501.859.64.096.046.177.092.254.143l-.008-.005zM23.318 11.98a1.281 1.281 0 0 1-.058-.259l-.001-.007a.869.869 0 0 0-.223-.559l.001.001c-.246-.293-.527-.542-.889-.694a2.356 2.356 0 0 1-.3-.18l.007.005c.069-.132.176-.147.282-.167a4.83 4.83 0 0 0 1.102-.379l-.029.013a2.81 2.81 0 0 0 .705-.465l-.002.002a.828.828 0 0 0 .132-.183l.002-.005c.041-.064.076-.131.111-.193.219-.013.376.095.527.196.423.284.783.641 1.135 1.007.136.141.149.313.102.491-.052.22-.154.411-.294.568l.001-.001c-.276.297-.596.527-1.001.621-.246.059-.491.125-.736.186a1.143 1.143 0 0 1-.584.002l.008.002zM9.698 26.937c.139.125.282.256.427.385a.54.54 0 0 1 .172.611l.001-.004a.678.678 0 0 0 .006.46l-.002-.005c.064.195.03.239-.196.36a.934.934 0 0 0-.586-.089l.006-.001a.714.714 0 0 1-.395-.085l.004.002a32.305 32.305 0 0 1-1.254-.685 1.115 1.115 0 0 1-.441-.447l-.003-.006c-.206-.395-.602-.481-1.003-.324a2.443 2.443 0 0 0-.408.189l.011-.006a3.715 3.715 0 0 0-.359.29l.003-.002c-.524-.314-.728-.911-1.15-1.308.077-.34.246-.548.581-.6.105-.016.208-.047.313-.07.39-.083.702.071.986.318.021.02.037.044.047.071v.001a.618.618 0 0 1 .016.103v.002h-.533c-.204.206-.218.473-.046.852.037-.117.067-.2.091-.287.059-.212.101-.263.321-.258.252.005.503.036.755.067.26.032.523.061.779.117a3 3 0 0 1 .656.21l-.019-.008c.365.17.728.273 1.126.14l.027-.001c.024 0 .047.003.07.008h-.002zm-1.814.179c.029.142.066.275.234.354.025-.208-.082-.297-.235-.354zm-2.726-1.058c.217.205.217.205.397.109-.101-.113-.222-.137-.397-.109zM21.83 3.27c.258.023.447.05.637.053h.018c.187 0 .363.05.514.138l-.005-.003c.319.187.644.365.968.54.246.133.473.296.588.55.183.404.625.45.977.335.371-.121.48-.197.773-.488.092.058.172.119.247.187l-.001-.001c.135.143.265.295.387.454l.01.014c.174.221.335.451.507.685-.086.342-.27.572-.656.585a1.644 1.644 0 0 0-.269.052l.012-.003c-.356.077-.649-.059-.918-.275-.064-.051-.114-.108-.061-.21.184-.059.404.092.579-.072.098-.216.089-.499-.038-.767l-.194.503c-.09.012-.194.019-.3.019l-.089-.002h.004a27.072 27.072 0 0 1-1.389-.186 2.332 2.332 0 0 1-.565-.19l.014.006c-.363-.161-.726-.275-1.13-.169a.326.326 0 0 1-.242-.059l.001.001a4.362 4.362 0 0 1-.427-.393l-.002-.002a.456.456 0 0 1-.099-.469l-.001.003a.837.837 0 0 0-.002-.548l.002.006c-.06-.179-.011-.232.15-.298zm2.317 1.588c-.059-.103-.114-.208-.18-.306-.013-.021-.07-.011-.117-.016.026.18.111.286.297.323zm2.294.904c.167.176.17.179.376.108-.106-.112-.217-.172-.376-.107zM13.411 14.994c.081.089.159.176.239.261.193.205.384.413.585.612.1.1.15.211.108.342-.102.318-.05.635-.016.955.016.148.026.321.026.495a1.047 1.047 0 0 1-.039.216l.002-.007c-.149.07-.251.008-.351-.054a.99.99 0 0 0-.499-.14h-.001c-.293-.015-.581-.053-.871-.056-.206.004-.404.03-.595.075l.019-.004c-.275.059-.331.035-.433-.238-.037-.1-.065-.205-.109-.301-.199-.43-.13-.845.102-1.229.359-.594.92-.874 1.596-.947h.015c.078 0 .155.007.229.021l-.008-.001zM17.653 14.099c.176-.052.285.009.389.083a.68.68 0 0 0 .389.121h.021-.001.007c.161 0 .318.017.47.049l-.015-.003c.303.064.599.03.898-.025.15-.027.305-.034.464-.05.031.053.064.118.094.185l.005.014c.045.117.079.241.125.358a1.392 1.392 0 0 1-.337 1.549l-.001.001c-.356.34-.787.532-1.265.626-.191.038-.341-.032-.468-.172-.208-.231-.414-.464-.633-.687-.136-.139-.163-.273-.131-.471a2.955 2.955 0 0 0-.002-.798l.002.016a3.9 3.9 0 0 1-.01-.811l-.001.015zM16.761 22.924c-.17.31-.363.544-.725.631-.468.112-.867.385-1.244.68-.117.09-.224.189-.342.272a.898.898 0 0 1-.274.149l-.006.002c-.305.074-.592-.065-.882-.12-.207-.04-.343-.248-.448-.437a.574.574 0 0 1 .009-.588l-.001.003c.216-.381.501-.697.841-.942l.009-.006a.514.514 0 0 1 .095-.061l.003-.002c.468-.205.951-.331 1.466-.308.051 0 .1.01.145.027l-.003-.001c.53.226.976.46 1.4.725l-.042-.025zM15.236 9.086c.131-.311.325-.504.615-.585.604-.169 1.112-.506 1.585-.901.221-.185.448-.255.726-.193.099.017.218.03.339.036h.008a.742.742 0 0 1 .546 1.173l.002-.002c-.251.365-.527.702-.942.892a2.907 2.907 0 0 1-1.456.265l.01.001a.369.369 0 0 1-.116-.024l.003.001a11.162 11.162 0 0 1-1.372-.69l.052.029zM15.167 13.331a1.98 1.98 0 0 1 .201-.265l-.001.001c.438-.397.527-.908.487-1.463-.006-.087-.02-.176-.03-.255a.247.247 0 0 1 .256-.048l-.002-.001q.961.293 1.921.592a.311.311 0 0 1 .066.046c.08.252.145.527.123.809-.052.661-.43 1.07-1.038 1.27a1.81 1.81 0 0 1-1.475-.144l.009.005a1.159 1.159 0 0 1-.514-.54l-.003-.007zM18.85 21.657a1.53 1.53 0 0 1-.187-.049l.011.003c-.535-.205-1.068-.416-1.604-.618a.782.782 0 0 1-.385-.326l-.002-.004c-.245-.369-.189-.761-.139-1.157.022-.169.125-.305.252-.417a1.421 1.421 0 0 1 1.309-.345l-.01-.002a.678.678 0 0 1 .244.099l-.003-.002c.32.22.634.448.916.649.103.17.094.3.034.431-.04.088-.077.179-.125.263a1.477 1.477 0 0 0-.159 1.109l-.002-.01c.036.148-.002.268-.152.375z"/><path d="M13.015 10.398c.187-.078.3-.026.42.022.468.184.942.366 1.416.54.377.138.678.599.641 1.006a2.819 2.819 0 0 0-.028.314v.006c.004.277-.121.483-.336.644-.365.276-.757.441-1.223.301a.895.895 0 0 1-.245-.101l.004.002c-.29-.197-.578-.396-.859-.605-.16-.117-.183-.228-.117-.41.037-.104.076-.192.122-.275l-.005.01c.205-.363.252-.749.193-1.157l-.001-.058c0-.083.007-.165.02-.245l-.001.009zM11.347 14.649a.556.556 0 0 1-.427-.001l.004.001c-.293-.112-.595-.083-.894-.073a.928.928 0 0 0-.332.109l.005-.002c-.176.078-.347.168-.541.263-.076-.088-.163-.149-.191-.229a4.68 4.68 0 0 1-.152-.586l-.005-.032c-.021-.104-.005-.214-.015-.32-.05-.582.238-1.003.654-1.36.059-.05.131-.086.188-.138.249-.229.536-.246.845-.16.425.117.745.314 1.045.863-.074.268-.184.534-.215.808s.017.557.031.855zM16.809 18.721a3.488 3.488 0 0 1-.211.262l.003-.003c-.399.404-.523.894-.464 1.444.008.077.018.155.022.234a.4.4 0 0 1-.029.1l.001-.002a.35.35 0 0 1-.135.01h.002q-.962-.29-1.92-.585a1.003 1.003 0 0 1-.131-.061l.005.003c-.33-.781-.117-1.569.557-1.967a.575.575 0 0 1 .097-.057l.004-.002c.594-.201 1.184-.224 1.747.087.206.11.378.269.452.539zM22.942 17.066c.07.18.133.311.171.449a2.512 2.512 0 0 1 .057 1.027l.002-.014c-.059.405-.287.739-.599 1.006-.095.081-.211.14-.308.22-.199.162-.432.187-.664.137a1.666 1.666 0 0 1-1.148-.873l-.004-.009c.08-.288.188-.554.22-.829.03-.265-.02-.537-.035-.817a.383.383 0 0 1 .357-.053l-.003-.001c.169.042.34.081.512.107.264.04.523.026.766-.106.101-.058.222-.117.348-.168l.021-.008c.085-.026.189-.05.296-.066l.012-.002zM17.338 10.101c.083-.185.227-.218.365-.264.277-.083.502-.167.722-.263l-.041.016c.286-.135.514-.356.707-.599.208-.263.451-.311.749-.213.138.046.28.082.415.136.722.288 1.048 1.076.714 1.746a1.623 1.623 0 0 1-.314.409l-.001.001c-.238.234-.519.288-.831.148-.53-.239-1.062-.475-1.593-.714-.291-.129-.582-.26-.893-.403zM14.684 21.903c-.113.083-.184.144-.265.191a.457.457 0 0 1-.164.051h-.002c-.565.081-.974.416-1.346.819-.091.099-.194.187-.284.275-.513.017-.973-.127-1.321-.442-.585-.532-.523-1.329-.067-1.805.306-.32.607-.38 1.034-.199.761.323 1.51.677 2.264 1.02.04.014.067.037.152.089zM11.015 17.221c-.592-.011-1.136.005-1.659.242a1.755 1.755 0 0 1-.164-.207l-.004-.006a15.462 15.462 0 0 1-.392-.716.785.785 0 0 1 .087-.905c.372-.468.855-.731 1.457-.741l.058-.001c.225 0 .444.021.657.063l-.022-.003a.77.77 0 0 1 .556.416l.002.005c-.059.089-.117.186-.187.277-.282.38-.451.793-.391 1.278a2.773 2.773 0 0 1 .001.305v-.006zM22.698 14.525c.185.351.373.678.536 1.018.142.293.071.575-.138.813-.41.468-.906.752-1.552.735-.306-.008-.605-.013-.869-.19-.111-.074-.239-.142-.239-.301.158-.283.328-.555.465-.842.143-.301.067-.633.077-.976a.842.842 0 0 1 .221-.04h.002a2.988 2.988 0 0 0 1.367-.192l-.02.007a1.14 1.14 0 0 1 .145-.031l.007-.001zM23.874 8.619c.059.283-.083.421-.234.546a2.198 2.198 0 0 1-.827.443l-.016.004c-.272.072-.544.146-.819.205-.259.055-.387.009-.49-.202-.28-.574-.773-.878-1.335-1.108-.079-.032-.159-.062-.224-.087-.048-.15.044-.176.129-.198.198-.049.397-.098.598-.132.283-.049.539-.14.756-.344.187-.176.413-.194.65-.078.462.225.931.439 1.391.67.161.094.299.187.429.288l-.009-.006zM12.087 23.681a1.07 1.07 0 0 1-.187.085l-.008.003c-.245.059-.491.12-.738.167a1.006 1.006 0 0 0-.52.246l.001-.001a.826.826 0 0 1-.455.214h-.004c-.065-.026-.146-.055-.225-.092-.423-.197-.847-.39-1.264-.598-.198-.099-.382-.225-.531-.315-.097-.18-.054-.293.027-.4.149-.191.339-.343.558-.443l.009-.004c.405-.198.842-.293 1.284-.365a2.127 2.127 0 0 1 .341 0h-.008c.163.234.285.459.458.637.177.169.375.317.59.441l.015.008c.211.128.442.222.664.331zM6.99 16.882c-.169.049-.278.09-.391.111-.52.094-.878.426-1.216.799-.075.083-.157.161-.217.222a.72.72 0 0 1-.602-.326l-.002-.003c-.381-.557-.472-1.141-.124-1.751a5.2 5.2 0 0 1 .234-.368c.271-.391.788-.464 1.129-.133.25.256.489.526.713.809l.016.021c.156.184.29.387.459.619zM25.028 15.105c.332-.147.709-.138.982-.376.262-.229.52-.463.828-.737.198-.059.398.059.545.255.374.499.522 1.045.234 1.639a3.208 3.208 0 0 1-.373.6l.005-.007a.727.727 0 0 1-.997.124l.002.001a1.999 1.999 0 0 1-.341-.312l-.002-.003c-.26-.315-.509-.64-.761-.963a1.739 1.739 0 0 1-.117-.211l-.005-.011z"/><path d="M13.821 18.379c-.241.481-.38.998-.229 1.58a1.643 1.643 0 0 1-.299 0h.006a14.342 14.342 0 0 1-2.317-.693l.099.034c-.014-.399.076-.743.422-.99a1.62 1.62 0 0 1 .944-.331h.002c.348-.003.702-.046 1.033.109.126.055.255.097.339.289zM18.201 13.733c.019-.112.012-.225.059-.312.214-.418.234-.856.164-1.308l-.002-.04.002-.042v.002c.333-.059 1.764.322 2.482.659.013.316-.027.618-.293.855-.332.293-.702.483-1.16.457a2.399 2.399 0 0 0-.36.001h.008c-.319.028-.587-.102-.901-.271zM11.171 9.122c.422.301.866.57 1.251.908.303.266.475.636.371 1.072-.032.132-.052.268-.088.398-.065.234-.155.351-.378.496a1.973 1.973 0 0 1-.313-.173l.007.004c-.421-.334-.764-.746-1.103-1.16a.23.23 0 0 1-.058-.097v-.002c-.07-.486-.122-.969.228-1.386a.714.714 0 0 1 .082-.059l.003-.002zM21.145 21.415c.056.521.099 1.013-.3 1.436-.144-.09-.278-.165-.402-.254-.276-.199-.56-.39-.819-.611-.363-.311-.536-.702-.41-1.191.037-.14.07-.283.117-.421.043-.128.098-.254.203-.325.198-.076.334.003.468.117.334.298.634.617.906.959l.012.016.225.274zM6.535 27.727c.19.297.444.326.736.355a1.16 1.16 0 0 0 .182-.023l-.007.001a.677.677 0 0 1 .447.103l-.003-.002c.218.145.439.287.663.422s.454.26.69.396l.021.225a1.32 1.32 0 0 1-.827.455l-.007.001a.89.89 0 0 1-.432-.054l.006.002a6.333 6.333 0 0 1-.771-.361l.033.017a3.007 3.007 0 0 0-.563-.245l-.022-.006c-.727-.215-.975-.937-.675-1.546l.262-.013c.102.079.189.169.263.271l.003.004zm1.189 1.149c-.253-.18-.494-.193-.707-.276s-.4-.207-.604-.315c-.043.121.033.176.096.234.184.175.408.311.655.393l.012.004c.101.031.217.052.337.058h.003c.053.003.107-.049.207-.098zM25.453 4.25c-.145-.221-.342-.265-.556-.327a.266.266 0 0 0-.119-.006h.002c-.363.065-.659-.083-.952-.275s-.602-.358-.905-.534c-.257-.148-.275-.307-.039-.493.351-.279.749-.377 1.177-.214.244.092.473.225.711.336.149.07.3.135.452.198.063.026.131.039.194.063.501.198.878.761.582 1.496h-.321a1.338 1.338 0 0 1-.223-.241l-.003-.004zm.138-.544c.006-.195-.133-.28-.252-.367-.286-.207-.591-.366-.961-.345-.024.054-.039.088-.059.128.19.171.445.149.65.25s.403.216.621.334zM5.72 11.572c-.176-.071-.2-.21-.207-.362a3.795 3.795 0 0 0-.166-.972l.007.027a1.172 1.172 0 0 0-.252-.488l.001.002a.394.394 0 0 1-.073-.485l-.001.002c.117-.234.239-.468.362-.697a.546.546 0 0 1 .417-.281h.002c.32-.053.617.033.9.173.055.027.091.093.137.143-.418.845-.644 1.741-.92 2.621-.04.119-.059.249-.209.319zM26.177 20.419c.254.054.271.081.297.296.03.26.064.52.109.778.039.284.155.536.326.74l-.002-.002c.124.142.135.293.046.456-.109.205-.198.423-.317.622-.197.331-.435.426-.812.343-.215-.047-.444-.063-.644-.242.015-.098.037-.186.066-.27l-.003.01c.321-.721.532-1.479.768-2.228.05-.164.107-.326.166-.503zM26.213 16.939c.195-.049.293.063.362.196.18.334.345.674.527 1.006.074.12.157.224.251.317.064.062.133.121.205.175l.005.004c.012.045.031.076.025.101-.129.54-.356 1.009-.915 1.229a.553.553 0 0 1-.194.035l-.033-.001h.002-.005a.265.265 0 0 1-.255-.197v-.002a1.31 1.31 0 0 1-.058-.37v-.001c.015-.508 0-1.008-.12-1.507-.088-.368-.017-.602.205-.983zM5.803 15.025c-.207.063-.303-.034-.37-.159-.181-.332-.348-.672-.533-1.002a1.992 1.992 0 0 0-.267-.342 2.669 2.669 0 0 0-.223-.203l-.005-.004a.418.418 0 0 1-.007-.134v.002c.153-.434.327-.856.752-1.105.22-.129.441-.111.671.078.021.162.033.352.035.544v.003c-.017.44-.018.878.122 1.298.128.382-.023.698-.176 1.023zM24.986 23.667a1.914 1.914 0 0 0 1.226.266l-.009.001c-.204.275-.351.5-.527.702-.276.327-.561.65-.862.95a5.62 5.62 0 0 1-.639.515l-.019.012c-.08.059-.191.074-.264.1-.05-.03-.076-.036-.083-.05-.128-.293-.111-.605-.108-.911 0-.09.085-.196.158-.265.303-.28.57-.592.797-.934l.012-.019c.08-.128.197-.233.316-.368zM8.207 5.821c.087.277.088.561.097.841.005.13-.07.239-.166.33a5.441 5.441 0 0 0-.86.998l-.012.02c-.068.111-.186.194-.244.259-.224-.076-.401-.153-.585-.196a4.768 4.768 0 0 0-.549-.067l-.015-.001c.073-.234.21-.407.354-.572.303-.344.604-.69.925-1.015.197-.2.429-.365.647-.543.109-.092.237-.121.409-.055zM27.012 17.384a.313.313 0 0 1 .018-.088l-.001.002c.186-.32.376-.644.68-.862.217-.156.482-.107.727-.078.176.437.146 2.005-.087 2.347-.188.059-.351-.032-.508-.128a1.714 1.714 0 0 1-.713-.848l-.004-.012c-.042-.107-.076-.22-.113-.333zM3.555 15.628c-.169-.479-.123-1.851.071-2.334a.628.628 0 0 1 .52.101l-.002-.001c.438.277.745.727.827 1.251l.001.01c-.176.337-.393.675-.748.901a.629.629 0 0 1-.277.067c-.125.011-.251.004-.392.004zM9.368 19.202c.095.04.176.084.252.134l-.006-.003c.473.364 1.007.701 1.571.988l.058.027c.05.03.092.06.132.092l-.003-.002a.873.873 0 0 1-.115.105l-.002.002a2.112 2.112 0 0 0-.601.57l-.004.007c-.104.156-.248.193-.433.146a1.85 1.85 0 0 1-.89-.519l-.001-.001c-.289-.293-.327-1.117-.063-1.452a.985.985 0 0 1 .102-.092l.002-.002zM22.653 12.772c-.068-.024-.161-.033-.22-.082-.536-.447-1.137-.784-1.756-1.096a.133.133 0 0 1-.033-.034l.84-.836c.419-.066 1.021.212 1.254.595.113.19.179.418.179.663 0 .298-.099.573-.267.793l.002-.003zM15.73 8.19c-.036-.088-.077-.148-.081-.21-.025-.296-.19-.502-.41-.678-.135-.108-.273-.213-.359-.341a.18.18 0 0 1 .178-.157h.005c.491-.059.979-.153 1.478-.133.301.012.603-.006.904-.008.094 0 .189.009.31.016-.022.08-.023.14-.053.18-.423.577-.947 1.028-1.631 1.269a2.136 2.136 0 0 1-.332.062l-.009.001zM14.221 25.259c.078-.108.15-.221.234-.323a3.761 3.761 0 0 1 1.157-.931l.021-.01c.211-.108.43-.176.68-.082.011.037.021.085.029.134l.001.008a.896.896 0 0 0 .325.598l.002.001c.153.133.3.273.431.393 0 .138-.069.163-.153.176a8.217 8.217 0 0 1-1.523.138h-.076.004c-.273-.006-.546 0-.819 0-.094 0-.188-.016-.282-.025zM3.655 13.021c.248-1.116.531-2.166 1.042-3.146.162.063.22.179.263.293.144.382.266.771.301 1.182.017.197-.024.38-.186.495-.32.228-.511.554-.719.871-.078.117-.176.227-.265.342zM19.086 24.436a2.195 2.195 0 0 1 .299 0h-.007c.481.074.931.029 1.321-.296a.467.467 0 0 1 .1-.05l.003-.001c.423.299.626 1.293.371 1.815-.205.067-.404-.009-.601-.047a3.442 3.442 0 0 1-.608-.195l.023.009a.862.862 0 0 1-.43-.374l-.002-.004c-.151-.266-.296-.539-.47-.855zM28.323 19.016a13.568 13.568 0 0 1-1.068 3.191l.035-.081a.509.509 0 0 1-.249-.283l-.001-.004a5.002 5.002 0 0 1-.31-1.209l-.003-.026c-.019-.164.019-.321.15-.421.367-.279.582-.671.828-1.044.169-.26.284-.28.618-.122zM10.826 6.043c.484.011.937.14 1.332.359l-.015-.008a.743.743 0 0 1 .268.257l.002.003c.169.28.316.572.483.882-.137 0-.254.017-.365 0-.444-.078-.849-.005-1.208.278a1.292 1.292 0 0 1-.138.083l-.007.003c-.407-.316-.611-1.35-.352-1.857zM23.373 19.45c.212.227.262.468.152.757a4.126 4.126 0 0 1-.642 1.154l.007-.009c-.188.234-.365.474-.56.729l-.669-.884c.19-.285.366-.561.555-.829a.683.683 0 0 1 .231-.207l.004-.002c.347-.175.617-.441.922-.709zM9.677 9.906l.663.882c-.207.293-.403.585-.608.864a.575.575 0 0 1-.191.17l-.003.001c-.344.172-.626.423-.906.702-.191-.172-.272-.371-.203-.62.116-.408.292-.764.523-1.079l-.007.009c.198-.276.41-.543.616-.812.037-.042.074-.081.114-.117l.001-.001zM12.214 12.597l.46.356c.039.307.047.604.122.882s.216.533.324.79c-.026.027-.037.049-.053.054l-1.112.307a.98.98 0 0 1-.118-.182l-.003-.006a2.77 2.77 0 0 1-.21-1.068v-.047.002c.016-.457.217-.817.59-1.089z"/><path d="M19.938 22.675c.372.324.608.686.824 1.059-.788.791-1.916.732-2.579-.334.306-.07.627-.114.925-.221s.587-.247.83-.505zM13.86 8.604c-.695.048-1.308.198-1.777.685-.293-.182-.706-.72-.838-1.087.238-.24.553-.405.904-.454l.008-.001c.545-.082 1.023.037 1.377.499.088.115.193.215.325.359zM19.771 19.391l-.44-.346c-.043-.298-.059-.602-.138-.89-.074-.276-.212-.534-.323-.8.367-.172 1.003-.332 1.236-.3.196.498.346 1.014.204 1.57-.08.311-.263.558-.539.766zM18.806 24.619c-.282.105-.541.21-.807.3a.534.534 0 0 1-.505-.06l.002.001a4.347 4.347 0 0 1-.587-.47l.002.002c-.238-.243-.265-.557-.176-.872.045-.164.138-.315.207-.465.468.111 1.415.906 1.863 1.563zM13.175 7.375c.327-.117.623-.234.924-.335a.417.417 0 0 1 .366.054l-.001-.001c.153.103.306.207.451.32.559.437.447 1.133.067 1.518-.709-.368-1.288-.885-1.807-1.556zM25.134 22.254c-.327-.227-.662-.44-.974-.683-.24-.188-.336-.442-.212-.752.082-.204.098-.434.257-.644.086.021.161.05.232.087l-.006-.003c.259.175.561.308.886.383l.018.004c.095.022.194.036.229.151-.023.293-.29 1.213-.43 1.456zM7.772 11.865c-.433-.33-.893-.474-1.371-.602.092-.558.28-1.034.41-1.565.147.098.258.17.366.246.214.151.433.297.637.459.279.221.332.439.215.771-.044.128-.079.259-.125.387-.029.086-.073.172-.132.303zM10.196 5.794a.857.857 0 0 1-.327-.514l-.001-.005a4.128 4.128 0 0 1-.072-.567l-.001-.011a1.017 1.017 0 0 1 .216-.71l-.002.002c.2-.276.457-.498.754-.655l.012-.006c.173-.088.347-.176.516-.269a.591.591 0 0 1 .493-.042l-.004-.001a.443.443 0 0 1-.065.108l.001-.001c-.702.606-1.054 1.401-1.237 2.288a3.57 3.57 0 0 1-.055.227c-.029.108-.101.162-.228.156zM20.183 28.961c.083-.091.129-.15.184-.202a3.676 3.676 0 0 0 1.072-1.874l.005-.025c.035-.152.08-.301.107-.454.022-.117.087-.188.205-.245a.88.88 0 0 1 .377.619v.004c.02.125.032.251.049.375a1.084 1.084 0 0 1-.278.918l.001-.001c-.242.27-.51.506-.85.649-.125.053-.243.122-.363.185-.143.074-.291.092-.508.05zM12.353 9.525c.046-.159.16-.238.274-.308a2.413 2.413 0 0 1 1.424-.375h-.006a.444.444 0 0 1 .22.067l-.002-.001c.368.237.731.481 1.122.74l-.5.023a4.106 4.106 0 0 0-1.2.216l.029-.009c-.528.183-.973.013-1.362-.354zM19.646 22.515c-.52.497-1.132.663-1.815.615l-1.244-.819c.095-.005.162-.013.229-.01.491.027.964-.069 1.435-.197a1.397 1.397 0 0 1 1.227.205l-.004-.003a.729.729 0 0 1 .111.093.575.575 0 0 1 .059.113l.001.004zM17.361 1.125a.364.364 0 0 1-.261.234h-.002c-.306.101-1.107.148-1.445.084-.306-.282-.343-.662-.091-.982.151-.19.349-.336.576-.421l.009-.003c.234-.088.555-.022.615.299.044.241.186.422.373.574.08.064.15.145.227.216zM14.614 30.827a.711.711 0 0 1 .5-.255h.002c.3-.033.602-.042.902-.07.465-.044.67.296.544.725-.122.416-.456.644-.857.761-.181.053-.405-.085-.45-.286-.063-.286-.228-.487-.444-.664a2.245 2.245 0 0 1-.195-.208l-.003-.004zM21.189 7.568a2.467 2.467 0 0 1-.303.136l-.019.006c-.222.068-.448.124-.674.182-.43.111-.591.059-.85-.3a1.08 1.08 0 0 0-.742-.452l-.005-.001c-.067-.01-.137 0-.203-.015-.111-.025-.219-.062-.333-.095v-.234a.74.74 0 0 1 .085-.057l.003-.002c.19-.078.381-.03.574-.004.718.092 1.362.236 1.982.431l-.08-.022c.141.044.257.089.37.141l-.019-.008c.123.043.21.157.213.291zM10.785 24.416c.061-.038.132-.074.205-.103l.009-.003q.448-.125.902-.234c.275-.067.512-.036.687.234.15.23.348.424.627.498.14.037.288.045.43.076.1.022.197.059.309.094l-.03.234c-.172.109-.341.098-.502.073-.778-.122-1.551-.269-2.297-.527-.149-.056-.291-.122-.339-.341zM9.162 4.135h.376c.021.355.014.696.066 1.027.05.322.161.635.255.987l-.811.541c-.157-.047-.181-.152-.201-.258a3.701 3.701 0 0 1 .059-1.673l-.006.026c.06-.224.089-.461.263-.65zM13.888 10.175c.564-.449 2.002-.478 2.954.211-.013.022-.022.059-.04.064-.474.144-.951.271-1.446.315a1.416 1.416 0 0 1-.637-.105l.009.003q-.286-.108-.569-.224c-.119-.048-.228-.109-.272-.265zM18.1 21.862c-.672.501-2.301.367-2.955-.239.049-.023.112-.049.177-.071l.014-.004c.272-.076.541-.159.816-.219.425-.093.847-.117 1.253.094.146.075.306.123.46.184a.34.34 0 0 1 .235.254v.002zM23.006 25.262c.337.574.213 2.052-.187 2.569h-.361c-.023-.351-.019-.685-.071-1.008s-.16-.636-.251-.98zM6.553 24.33a.481.481 0 0 1 .481.118c.289.26.578.521.845.802.139.146.28.267.475.32.296.082.547.25.792.426s.368.415.428.722a1.015 1.015 0 0 1-.859-.107l.004.002c-.402-.238-.773-.523-1.002-.952a2.387 2.387 0 0 0-.8-.895l-.009-.005a1.494 1.494 0 0 1-.264-.227l-.001-.001c-.04-.046-.052-.115-.09-.201zM22.391 5.237c.421-.051.772.006 1.079.246.169.132.333.27.488.418.085.087.163.183.23.286l.004.007c.122.176.231.361.351.536.134.193.303.353.498.473l.007.004c.11.072.206.15.292.239.041.042.053.113.08.176-.191.102-.332.021-.446-.081a13.32 13.32 0 0 1-.841-.805c-.138-.148-.272-.265-.472-.316-.336-.085-.624-.272-.89-.486-.199-.165-.295-.4-.382-.697zM14.473 13.552l.123-.101c.117.095.231.181.339.276.307.28.678.496 1.088.623l.02.005a1.738 1.738 0 0 0 .791.03l-.011.002c.112-.019.228-.022.33-.03.238.359.286 1.084.097 1.386-.064-.039-.132-.074-.192-.117l-2.3-1.703c-.126-.095-.252-.187-.284-.371zM23.634 21.49c.229.197.44.402.674.572.224.164.473.293.729.451-.171.39-.384.723-.574 1.096-.078-.059-.134-.092-.181-.136a4.114 4.114 0 0 1-.722-.923l-.011-.02a1.8 1.8 0 0 1-.107-.224l-.005-.013a.559.559 0 0 1 .067-.606l-.001.001c.046-.061.082-.128.13-.198zM7.532 8.38c.212.14.389.314.527.516l.004.006c.134.173.269.37.393.575l.016.029c.226.388.19.605-.153.985a3.72 3.72 0 0 0-1.301-.964l-.024-.009c-.016-.248.151-.405.238-.591s.191-.355.299-.547zM21.303 12.898c.494.287 1.083 1.015 1.116 1.366-.41.383-1.441.263-1.804-.196.022-.089.052-.167.09-.24l-.003.006a1.97 1.97 0 0 1 .225-.267 1.25 1.25 0 0 0 .285-.49l.002-.009c.027-.066.057-.122.091-.175l-.002.004zM10.745 8.884l-.263 1.224c-.728-.846-1.263-1.718-1.501-2.764.106-.051.15.018.201.073.22.234.431.477.661.699.203.195.427.368.644.55zM11.399 17.932c-.05.092-.083.196-.15.27-.224.246-.444.491-.516.829-.004.015-.029.024-.044.036-.41-.199-1.057-.974-1.123-1.346.446-.389 1.388-.301 1.834.211zM21.248 23.095c.071-.361.14-.71.213-1.058.007-.033.04-.059.061-.09.527.361 1.357 1.904 1.477 2.772a2.137 2.137 0 0 1-.229-.201 7.903 7.903 0 0 0-1.31-1.246l-.02-.014c-.062-.046-.118-.099-.192-.162z"/><path d="M24.534 6.252a.264.264 0 0 1 .301.001l-.001-.001c.157.092.291.184.418.284l-.008-.006c.394.333.779.677 1.171 1.013.076.069.163.13.256.178l.007.003a.621.621 0 0 0 .592-.002l-.003.002c.194-.101.293-.248.282-.468a.19.19 0 0 1 .031-.081v.001c.003-.007.016-.009.046-.026.023.027.063.054.077.091a.695.695 0 0 1-.516.936l-.004.001c-.132.027-.266.043-.402.064-.042.105-.084.193-.112.284-.188.636-.828.653-1.218.27a4.197 4.197 0 0 1 .416.001h-.01c.351.037.589-.27.556-.592s-.159-.585-.415-.774c-.273-.203-.56-.387-.838-.585a3.536 3.536 0 0 1-.4-.294l.005.004a2.12 2.12 0 0 1-.224-.295l-.005-.009zM10.884 8.364c-.133.107-.244.053-.345-.03q-.468-.39-.932-.788a2.364 2.364 0 0 1-.267-.262l-.002-.003c-.088-.104-.164-.219-.122-.41.254-.155.531-.331.814-.496.109-.063.117-.052.299-.005.059.341.094.689.186 1.021s.243.645.369.973zM22.783 25.086c-.29.229-.621.429-.975.584l-.029.011c-.114-.022-.163-.078-.163-.166.004-.657-.21-1.256-.496-1.834-.008-.015 0-.037 0-.068a.291.291 0 0 1 .342.039c.382.33.766.656 1.141.992a.487.487 0 0 1 .179.444v-.002zM14.748 16.301c.324.245.644.498.976.732.497.358 1 .706 1.5 1.059.135.095.265.197.293.385-.093.117-.182.078-.272 0-.139-.121-.276-.245-.42-.36a2.571 2.571 0 0 0-.863-.435l-.018-.005a1.345 1.345 0 0 0-.67-.036l.009-.001c-.15.028-.306.029-.481.043-.183-.459-.193-.906-.132-1.359zM6.544 23.197c-.172-.008-.316-.022-.459-.021-.26 0-.388.107-.468.351-.07.21-.026.403.059.594.082.194.212.354.375.47l.003.002c.273.187.549.369.827.549.23.15.445.312.558.578-.096.08-.194.046-.278.009a1.105 1.105 0 0 1-.274-.168l.002.001c-.445-.378-.884-.761-1.326-1.143l-.089-.076c-.302-.248-.742-.252-.999.147l-.062.362c-.063-.064-.113-.093-.129-.135a.687.687 0 0 1 .43-.888l.005-.001c.133-.035.3-.066.47-.088l.021-.002c.034-.085.079-.189.117-.293.206-.567.755-.691 1.218-.25zM9.241 9.149c-.14.348-.169.389-.363.527L7.736 8.063c.154-.404.41-.702.697-.808.172.299.234.644.378.96s.284.618.43.934zM10.847 5.713c-.012-.358.027-.723.242-1.073.455-.015.872.048 1.184.351V6.17zM22.757 22.807c.065-.199.164-.38.351-.506l1.147 1.62c-.124.351-.351.596-.647.838a1.79 1.79 0 0 1-.159-.259l-.005-.011c-.08-.199-.135-.41-.217-.605-.147-.351-.304-.696-.471-1.078zM20.805 27.377c-.606-.077-.93-.204-1.09-.4v-1.163c.062.018.112.031.162.047.376.123.733.31 1.138.337.035 0 .067.033.096.048.083.446-.041.918-.306 1.131zM19.171 31.071c-.257-.186-.521-.365-.773-.56-.191-.149-.164-.41.043-.536.035-.019.078-.04.123-.059l.009-.003.738-.342c.258-.121.392-.063.488.21.179.512-.108 1.103-.629 1.29zM14.561 26.99l.19-.144a5.465 5.465 0 0 1 2.125.632c-.04.05-.068.117-.117.142-.364.197-.742.335-1.168.234-.217-.052-.439-.086-.656-.141-.378-.098-.491-.312-.374-.722zM17.435 4.991l-.2.16c-.761-.037-1.446-.287-2.129-.626a.843.843 0 0 1 .141-.156l.001-.001a1.482 1.482 0 0 1 .949-.237h-.006a6.1 6.1 0 0 1 .902.168l-.043-.01c.362.087.478.299.385.703zM12.85.926c.241.181.442.351.66.492.172.112.24.245.169.486a2.574 2.574 0 0 1-.245.153l-.013.006c-.244.117-.494.224-.74.338-.262.122-.392.07-.488-.202-.163-.461.087-1.059.527-1.253a.45.45 0 0 1 .131-.019zM6.242 12.819c-.03-.117-.08-.207-.071-.293.035-.327.089-.651.141-1.008.102.016.183.009.244.042.282.15.562.306.836.468.185.111.18.117.272.368a75.67 75.67 0 0 1-.111.548c-.137.091-.262.059-.38.021-.287-.088-.572-.181-.93-.146zM24.442 18.965c.481.004.869.28 1.326.207.122.488-.028.894-.132 1.299-.054 0-.078.012-.092.004q-.508-.285-1.013-.575a.348.348 0 0 1-.175-.376v.002l.086-.562zM13.015 28.915c-.094.234-.176.472-.283.698a.288.288 0 0 1-.347.156l.002.001a15.256 15.256 0 0 1-1.03-.31c-.176-.059-.208-.181-.121-.348a1.09 1.09 0 0 1 .425-.461l.005-.003A.524.524 0 0 1 12 28.58h-.003c.312.066.618.163.925.252.032.006.056.046.093.084zM15.787 21.097c-.016.021-.03.053-.053.064-.306.159-.663.27-1.04.311l-.013.001h-.02a.45.45 0 0 1-.209-.052l.002.001c-.445-.219-.888-.444-1.33-.668-.015-.008-.023-.03-.053-.072.1-.043.225-.087.353-.122l.022-.005c.387-.08.769-.08 1.15.059.31.113.632.196.946.299.098.034.22.045.246.184zM18.968 3.033c.155-.245.184-.558.404-.819.492 0 .932.204 1.373.347.023.054.046.082.044.108-.022.454-.546.824-.975.692-.195-.059-.393-.112-.589-.167-.119-.032-.123-.032-.257-.159zM18.914 11.266c-.146.139-.328.14-.498.176a1.778 1.778 0 0 1-.934-.045l.012.004c-.332-.112-.667-.215-.999-.326-.097-.033-.19-.08-.314-.132.059-.073.088-.135.131-.15.293-.101.588-.202.888-.281a.507.507 0 0 1 .315.036l-.003-.001c.423.198.838.41 1.255.622.057.033.104.065.15.099l-.004-.003zM18.962 2.147c.027.387-.095.673-.389.896l-1.083-.221c-.205-.287.005-.611-.032-.907.132-.117.263-.091.383-.073.287.046.573.098.856.164.097.023.181.095.264.141zM18.869 28.41c.658.266.756.321.873.513a1.232 1.232 0 0 1-.144.16l-.001.001c-.136.11-.289.201-.418.318-.351.32-1.165.204-1.471-.283a.476.476 0 0 1-.03-.105v-.003zM13.381 28.966c.394 0 .761.145 1.155.2.085.331.043.637-.034.937-.234.085-.443.007-.65-.025a7.717 7.717 0 0 1-.541-.107c-.234-.052-.307-.157-.282-.388s.104-.374.352-.616zM12.186 3.119c.317-.316.58-.609.952-.691a1.07 1.07 0 0 1 1.099.37l.002.002a.46.46 0 0 1 .057.096l.001.003c.006.021.01.045.011.069v.001c-.354.224-.803.287-1.12.619zM10.11 30.223c-.074-.308 0-.619-.122-.897-.112-.005-.143.051-.117.128.07.225.004.445-.019.666a.373.373 0 0 1-.043.104l.001-.002c-.247-.045-.596-.259-.769-.476.1-.106.221-.202.299-.326s.117-.282.184-.445c.086.007.166.021.243.042l-.009-.002c.1.042.185.086.266.137l-.007-.004c.227.131.45.27.678.397.301.168.362.351.196.697-.256.1-.52.126-.781-.018zM21.147 1.716c.367-.046.458-.042.739.039.019.146.044.306.059.468.011.106 0 .215.019.32.009.053.059.099.093.149l.059-.018a3.71 3.71 0 0 1-.021-.409v-.032.002c.018-.176.043-.33.075-.481l-.005.029c.269.006.542.16.791.447-.101.106-.224.202-.303.325s-.109.267-.172.431h-.03c-.077 0-.151-.009-.223-.025l.007.001c-.108-.049-.2-.1-.287-.158l.007.004c-.219-.124-.434-.255-.658-.37-.304-.157-.371-.441-.15-.723zM12.933 3.878l-.563.871c-.338-.27-.773-.24-1.159-.347.041-.4.392-.852.695-.926a.98.98 0 0 1 1.025.399l.002.003zM19.051 28.091l.585-.882c.316.33.768.234 1.138.382-.039.372-.371.819-.663.901-.375.106-.826-.061-1.061-.4zM12.234.948c-.102.293-.226.54-.27.8s0 .517.004.804c0 0-.012.035-.035.041-.277.071-.557.088-.814-.064-.21-.125-.268-.322-.183-.552.103-.271.285-.492.518-.641l.005-.003c.203-.132.418-.244.629-.361a.627.627 0 0 1 .143-.025h.001zM19.797 31.037c.008-.095-.006-.169.022-.218.247-.417.277-.861.179-1.323-.004-.017.007-.037.011-.059.325-.225.805-.117 1.063.239.059.248-.047.461-.196.644-.276.338-.647.541-1.079.716zM17.115 29.11c.234.173.441.318.64.472a.595.595 0 0 1 .104.144l.002.003c-.016.148-.109.199-.211.241-.233.09-.504.151-.785.169h-.008a.487.487 0 0 1-.419-.161c-.191-.2-.335-.417-.301-.736.18-.029.34-.059.502-.08s.327-.036.479-.052zM15.849 2.727a1.41 1.41 0 0 1-.209.061l-.01.002c-.259.029-.519.051-.761.075-.234-.176-.451-.333-.662-.502-.045-.036-.059-.11-.088-.162a.562.562 0 0 1 .344-.233l.004-.001c.187-.049.376-.093.567-.126a.578.578 0 0 1 .59.227l.001.002c.141.188.265.379.224.657zM7.44 14.316c-.336.092-.635-.169-.979-.08-.213-.371-.148-.769-.268-1.124a.424.424 0 0 1 .378-.028l-.003-.001c.284.09.565.188.859.286.097.199.108.684.012.947zM25.629 17.84c.015.351.156.68.133 1.043-.18.073-.335.004-.489-.041-.222-.065-.442-.139-.71-.224-.159-.281-.062-.612-.046-.934.21-.05.79.032 1.111.155zM23.61 16.395c.401 1.009.413 2.011.1 3.063-.17-.234-.282-.461-.228-.702.121-.542-.04-1.04-.185-1.545a2.815 2.815 0 0 1-.084-.286l-.004-.022c-.044-.244.101-.439.402-.508zM8.367 15.557c-.391-1.002-.41-1.995-.073-3.022.18.24.26.492.207.761-.095.479.012.927.155 1.376.043.116.084.257.114.403l.003.019c.046.256-.11.438-.407.463zM16.871.081a2.698 2.698 0 0 1 1.334.14l-.019-.006c.212.08.357.266.449.476.027.063.015.142.022.238-.359.027-.687.082-1.012.068-.304-.012-.508-.227-.638-.492-.062-.126-.088-.272-.136-.425zM15.099 31.895c-.459.049-.903.028-1.321-.151a.823.823 0 0 1-.424-.454l-.002-.006c-.025-.064-.017-.141-.027-.239l.376-.032c.117-.01.234-.011.348-.03.372-.064.629.012.906.431.09.125.144.282.144.451l-.001.032v-.002zM15.883 1.97a.47.47 0 0 1 .365-.215h.001c.444-.038.686-.009.878.112.128.293.117.594-.012.926-.311.015-.626.015-.973 0-.014-.304-.269-.516-.259-.824zM5.842 21.153c-.025.111-.073.173-.221.136-.698-.825-1.271-1.748-1.555-2.835a1.143 1.143 0 0 1 .798.025l-.008-.003c-.018.117-.028.242-.059.362-.121.512.016.968.308 1.381.191.27.41.52.616.779.044.053.084.107.12.155zM26.162 10.828l.091-.172c.053.014.091.012.107.03.133.154.274.304.392.468.491.683.901 1.408 1.147 2.218.016.054.024.11.039.181a2.887 2.887 0 0 1-.757-.001l.015.002c-.108-.13-.036-.243-.012-.351a1.74 1.74 0 0 0-.002-.848l.003.012a1.64 1.64 0 0 0-.295-.606l.003.004zM14.865 29.226h.987c0 .302.299.502.246.844-.341.263-.739.101-1.119.151-.263-.303-.231-.625-.114-.995zM25.447 17.471c-.273.073-.518-.018-.761-.059-.061-.01-.126-.09-.162-.153-.132-.229-.176-.771-.091-1.059.146-.123.323-.091.487-.091.278.225.577.986.527 1.362zM7.405 14.609c.223.423.269.885.114 1.229l-.493.042c-.308-.404-.44-.851-.541-1.354.335-.035.627-.037.92.083zM15.05.556c-.132.04-.21.067-.289.087a3.189 3.189 0 0 0-.365.085l.024-.006a.806.806 0 0 0-.459.379l-.002.004a2.467 2.467 0 0 1-.176.252l.004-.005c-.326-.176-.548-.423-.78-.65.02-.037.022-.049.03-.053.45-.253.987-.404 1.559-.41h.002c.185-.006.283.148.453.317zM18.171 30.679c.234.034.599.323.808.635-.12.102-.266.177-.427.214l-.007.001a12.3 12.3 0 0 1-.734.184c-.293.066-.561.026-.783-.194A.169.169 0 0 1 17 31.47v-.001l-.002-.029.002-.03v.001c.065-.03.141-.055.22-.071l.007-.001c.41-.039.711-.237.892-.611.008-.015.025-.026.053-.05zM17.657 27.312a.474.474 0 0 1 .332-.208h.002c.376-.04.753-.076 1.13-.111a.888.888 0 0 1 .157.017l-.005-.001c-.04.287-.165.539-.348.737l.001-.001c-.163.187-.468.222-.696.104s-.468-.207-.561-.476a.326.326 0 0 1-.011-.059v-.002zM12.687 4.983c.14-.414.26-.774.681-.904.072-.022.166-.05.226-.022.289.133.606.239.738.592a.428.428 0 0 1-.313.22h-.002a9.999 9.999 0 0 1-1.318.115h-.011zM11.219 29.794c.492.157.976.247 1.405.477-.069.351-.208.479-.517.513-.327.036-.612-.073-.881-.24a.241.241 0 0 1-.116-.25v.001c.027-.162.068-.32.11-.502zM20.89 1.647l-.109.478c-.286.023-1.074-.217-1.381-.41-.019-.257.117-.451.372-.484.301-.039.599-.02.878.122.123.052.213.16.24.291v.003zM9.394 3.661c.087-.468.731-1.316 1.121-1.485.04.126.059.262.125.371s.176.172.275.268c-.065.054-.112.101-.166.138-.311.214-.624.424-.937.638-.121.085-.246.148-.418.071zM21.469 29.8c-.059-.293-.059-.293-.392-.635.051-.05.105-.097.161-.14l.004-.003c.33-.221.666-.434.991-.661a.367.367 0 0 1 .347-.066l-.003-.001c.005.037.029.09.013.124-.242.527-.554 1.001-1.023 1.357a.328.328 0 0 1-.098.026h-.001z"/><path d="M15.369 1.499c-.243.135-1.092.32-1.321.283-.162-.595.31-1.023 1.054-.941zM16.878 31.125l-.253-.654c.193-.132.439-.139.666-.189.217-.048.436-.158.666-.089.092.648-.357 1.034-1.078.932zM18.719 25.579l.555-.141c.194.396.186.774.109 1.151-.303.18-.336.186-.664.106-.179-.351-.246-.714-.001-1.116zM13.253 5.272a1.148 1.148 0 0 1 .163.777l.001-.006c-.029.221-.111.39-.368.41-.112.009-.222.038-.345.059-.19-.381-.17-.751-.102-1.134.189-.163.412-.123.65-.105zM23.302 13.945c.478.217 1.359 1.34 1.497 1.836-.286.225-.543.176-.667-.143a9.553 9.553 0 0 0-.739-1.506l.024.043c-.044-.073-.077-.153-.115-.229zM8.626 18.087c-.626-.519-1.098-1.156-1.463-1.899.05-.032.107-.063.168-.089l.008-.003c.253-.079.382-.027.499.21.102.209.185.427.289.636.159.321.329.637.493.956.025.048.044.099.066.148zM12.707 26.16l1.681.637-.139.444c-.54.06-1.356-.5-1.542-1.082zM17.866 26.861c-.266-.153-.242-.38-.221-.589.026-.255.125-.468.427-.51.146-.028.268-.059.388-.097l-.024.006c-.015.218-.045.397-.035.575s.064.341.101.527c-.201.117-.424.083-.636.089zM19.284 5.814l-1.679-.627.125-.417c.518-.112 1.302.394 1.554 1.044zM14.123 5.108c.293.164.249.433.213.675-.032.217-.149.396-.404.434a2.79 2.79 0 0 0-.357.101l.019-.006c-.092-.204.04-.38 0-.557s-.07-.358-.109-.554c.21-.094.434-.037.639-.094zM11.583 31.144c.077-.157.205-.179.328-.167a1.02 1.02 0 0 0 .671-.153l-.004.002c.087-.054.218-.037.32-.052.21.248.34.481.234.814-.095 0-.188-.007-.28-.019l.011.001c-.439-.09-1.123-.314-1.28-.426zM20.38.816a.117.117 0 0 1-.11.157l-.013-.001h.001c-.371-.029-.702.093-1.025.249-.015.007-.038 0-.059-.004-.277-.18-.366-.382-.335-.769.081-.081.182-.059.272-.033.41.117.819.234 1.229.358.016.005.026.027.04.042zM27.662 14.005l.4-.078c.234.713.249 1.434.373 2.149-.166.03-.316.051-.451-.059-.074-.16-.013-.314.043-.452.121-.293.077-.568-.047-.844l-.317-.716zM4.314 17.98l-.392.054c-.203-.702-.265-1.395-.369-2.104h.453a.956.956 0 0 1 .025.208c-.01.104-.034.2-.07.289l.002-.007c-.117.28-.088.55.033.819.071.159.146.317.217.477.031.068.057.14.101.263z"/><path d="M11.836 26.581c.155-.282.303-.351.606-.332.214.227.394.457.613.644.21.176.46.307.682.476-.647-.219-1.313-.385-1.901-.788zM11.923 12.386l-.26.134c-.21-.194-.397-.41-.625-.566s-.494-.255-.774-.393l.314-.468zM21.178 2.788l.343.176-.142.39c.026.204.189.394-.014.618-.306.023-.501-.23-.77-.357zM11.395 28.364l-.565.788c-.144.012-.254-.05-.358-.184.131-.221.211-.458.025-.694l.092-.277c.337-.011.543.215.805.366zM20.407 19.504c.308.468.791.702 1.333.899l-.329.485-1.331-1.271c.088-.116.186-.155.327-.113zM19.554 5.744c-.209-.234-.374-.468-.585-.644s-.448-.293-.666-.455c.638.184 1.271.374 1.847.741-.105.306-.341.355-.596.358zM15.115 5.96c-.204.02-.404.117-.617.063l.052-.875c.253-.075.41-.074.64 0 .084.311.062.541-.075.812zM17.451 26.849h-.658c-.066-.289-.069-.558.062-.839l.652-.092c-.022.184-.045.332-.054.481s-.002.287-.002.45zM19.087 1.691a.926.926 0 0 1-.172.015l-.048-.001h.002c-.43-.076-.858-.158-1.288-.241-.022-.005-.039-.036-.064-.059.021-.027.034-.059.056-.068a1.738 1.738 0 0 1 1.087-.166l-.01-.001c.271.043.429.234.437.521zM12.875 30.29c.334-.059.572.083.828.121l.779.117c-.037.059-.053.117-.082.124a6.507 6.507 0 0 1-.714.179l-.047.008c-.287.047-.509-.096-.68-.316-.046-.056-.053-.136-.084-.233zM11.688 19.875c.351-.04.972.102 1.624.369-.041.043-.069.092-.111.114a.967.967 0 0 1-.265.102l-.007.001c-.102.018-.229.042-.313 0-.293-.148-.576-.324-.861-.491-.022-.011-.033-.046-.067-.095zM20.274 12.094c-.566.046-1.062-.2-1.58-.368.272-.181.527-.339.863-.126.242.154.518.254.718.495zM16.004 5.912h-.541v-.754h.493c.237.266.242.362.047.754zM20.965 6.389c-.117-.141-.226-.285-.347-.421-.091-.102-.198-.189-.288-.293-.028-.032-.023-.092-.048-.213.577.399 1.072.778 1.493 1.271-.207.047-.267.024-.81-.345zM16.534 26.859c-.2.012-.389.014-.579-.068-.136-.22-.125-.436.019-.668l.514-.055c.09.133.016.27.026.4s.012.249.019.392zM11.719 26.384c-.348-.006-1.266-.785-1.463-1.177.171-.074.261.085.383.132.144.061.263.122.378.189l-.015-.008c.125.176.226.328.343.468s.248.265.374.395zM14.933 26.481c.026-.106.059-.222.087-.351h.735l-.145.553c-.232.042-.452.026-.677-.202zM17.02 5.437c.042.166.017.293-.097.41h-.662l.111-.552c.232-.067.441.007.648.142zM14.679 4.513c-.117-.087-.222-.171-.332-.247s-.209-.131-.351-.221c.494.003.942-.006 1.387.05zM6.587 27.604a.2.2 0 0 1-.027-.144v.001c.011-.186.133-.293.328-.293s.321.107.332.289-.094.303-.283.343a.272.272 0 0 1-.271-.1v-.001a.773.773 0 0 1-.078-.092l-.002-.002zM25.384 4.356a.38.38 0 0 1-.016.285l.001-.002c-.059.152-.162.165-.286.162-.188-.005-.311-.124-.311-.307s.112-.323.3-.315c.117.005.16.035.264.099.023.02.04.046.048.076v.001zM17.95 27.92h-1.333l-.011-.037c.142-.064.259-.127.371-.196l-.015.008c.111-.076.195-.195.379-.187zM12.368 25.951a.88.88 0 0 1-.647.221h.003c-.153-.149-.279-.29-.363-.51.358.066.681.132 1.007.29zM14.016 26.349l.052-.221h.726c-.022.153.004.296-.094.431-.236-.002-.448-.084-.683-.21zM17.931 5.841h-.752l.093-.447c.14.033.252.054.361.087s.199.07.325.117l-.027.244zM20.308 5.811l.327.444a2.441 2.441 0 0 1-1.019-.233l.015.006a.85.85 0 0 1 .681-.217h-.004zM20.648.905c.201.035.767.334 1 .527-.486.211-.722.018-1-.527zM10.329 30.514h.629l.435.547c-.09.005-.133.02-.169.009-.165-.047-.761-.419-.896-.556zM6.319 15.628a1.09 1.09 0 0 1-.122-.086l.002.002c-.049-.046-.094-.097-.136-.141-.022-.263-.022-.263.069-.453.137.186.187.349.187.678zM25.843 17.052c-.139-.228-.164-.445-.198-.677.341.147.389.312.198.677zM16.335 31.944l.277-.262c.183-.039.293.038.422.162a1.597 1.597 0 0 1-.705.1h.006zM17.375 27.112c-.201.231-.399.231-.872-.009.324-.017.589.006.872.009zM15.626.058c-.332.318-.395.323-.644.065.197-.094.398-.075.644-.065zM13.102 26.034a.664.664 0 0 1 .122-.012c.187.033.373.069.569.106l-.045.139c-.279.014-.385-.025-.646-.234zM18.865 5.97l-.654-.123.04-.163c.238.037.461.07.636.228zM15.41 4.854h-.806a.297.297 0 0 1 .324-.16h-.002c.168.026.344.04.478.168zM14.37 27.569l-.307-.094c.177-.063.177-.063.307.094zM17.967 4.539c-.162.033-.283.037-.379-.125.142.013.27.058.382.127l-.004-.002z"/><path d="m15.404 4.861.022.006-.016-.013z"/></svg>
