<svg xmlns="http://www.w3.org/2000/svg" width="800" height="800" fill="#fff" viewBox="0 0 32 32"><title>lostsector</title><path d="M29.872 29.589v-.262l-.137-.24-.157.122-.046-.182-.076.133.04.216-.039.019-.204-.232-.159-.067c-.131-.645-.087-1.264-.101-1.881a5.2 5.2 0 0 0-.615-2.327l.014.028c-.008.214-.051.425.021.637a.9.9 0 0 1 .017.248v-.003c.023.556.044 1.112.071 1.668.007.141.044.28.053.422.02.339-.047.667-.147 1.012l-.141-.05-.083.072.111.129-.219.153-.069-.076.037-.072-.181-.092.019-.044.131.041.093-.076c-.088-.265-.43-.137-.562-.37l.205-.119.02.111.042-.022-.068-.084a.54.54 0 0 0-.257-.258l-.003-.001a19 19 0 0 1-.171-.557c-.142-.513-.312-1.019-.387-1.551-.034-.239-.125-.471-.114-.718.004-.091.021-.182.034-.292h.463c-.081-.152-.171-.157-.284-.069l-.052-.106-.164.125v-.206c.005-.106.037-.217.013-.316-.03-.125.023-.215.046-.322.016-.08.033-.187-.004-.245-.101-.166-.046-.312.016-.457l-.087-.196.166-.14.041.024-.046.139.082.145h.237l.232-.22.523-.175-.147-.208-.25-.102.062-.109-.172-.161.047-.106-.334-.131c-.066-.158-.192-.291-.177-.479l.181.046.069-.076-.076-.073-.175.057v-.11l-.187.039c0-.128-.007-.241 0-.352.012-.163-.042-.332.046-.487-.091-.165-.036-.344-.046-.516s-.003-.333-.004-.5a3.823 3.823 0 0 0-.006-.512l.001.013c-.058-.41-.026-.826-.068-1.234-.04-.386-.058-.776-.119-1.159a23 23 0 0 0-.415-2.116 11 11 0 0 0-.584-1.705l.028.071a9 9 0 0 0-.903-1.603l.019.028c-.169-.244-.312-.506-.521-.721a1 1 0 0 1-.133-.225l-.003-.007a2.2 2.2 0 0 1-.592-.616l-.005-.009.076-.037c-.015-.118.107-.242-.017-.382l-.253.219c-.312-.241-.649-.471-.933-.822-.152-.081-.391-.125-.445-.387l.106.056.079-.177-.177.019v.11l-.169-.17.014.173c-.364-.215-.72-.423-1.072-.638-.047-.029-.074-.093-.116-.148l-.257-.132c-.04.009-.107.048-.15.03-.334-.14-.663-.291-.994-.437l.062-.152c-.146.045-.226-.062-.354-.092l-.149.049v-.25l.206-.157h-.374l.046.139-.106.055.049.152-.187.016c.023-.047.036-.072.062-.131l-.206.068-.237-.191-.25-.303.038-.125-.036-.019c-.046.062-.093.131-.138.196.092.076.167.143.25.2q.061.032.134.049l.004.001c0 .031-.006.062-.009.102-.151.068-.269-.02-.394-.069-.383-.045-.771-.054-1.147-.169l.055-.143-.037-.024-.146.179-.301-.179-.028.036.112.111c-.006.008-.016.031-.027.032-.39.023-.784.02-1.17.072a20 20 0 0 0-1.381.22c-.448.09-.874.242-1.321.342-.22.06-.409.131-.589.218l.02-.009c-.788.339-1.555.718-2.257 1.218a11.7 11.7 0 0 0-1.841 1.636l-.008.009c-.27.296-.53.617-.771.952l-.022.032c-.196.274-.393.59-.569.918l-.023.048c-.245.457-.488.919-.687 1.396-.179.427-.307.874-.446 1.32-.085.27-.153.545-.222.819a4 4 0 0 0-.084.422l-.003.023c-.03.213-.024.434-.079.64-.08.301-.004.615-.104.913-.026.075-.006.166-.006.25 0 2.081.003 4.161-.011 6.242v.056q-.002.797-.18 1.541l.009-.045c-.051.207-.05.426-.074.64a2 2 0 0 1-.029.18 1.07 1.07 0 0 0 .007.523l-.002-.008c.062.256.009.512-.047.764-.191.091-.158.309-.26.452a1.9 1.9 0 0 1-.67-.455l-.001-.001c-.052-.054-.101-.107-.187-.085l-.013-.161-.141.143.159.011-.111.096.033.069-.229.082.062.18-.171.191-.181-.167a.67.67 0 0 0-.031.584l-.002-.005-.184.096c-.106-.45-.062-.918-.233-1.37l-.16.091.074.148-.087.444c-.069-.046-.069-.046-.033-.166l-.169-.187-.212.133.05.153-.082-.006-.049-.177-.155.009c-.011.147.12.176.166.264l-.048.102-.062.062c-.167-.096-.142-.287-.175-.428-.114-.486-.098-.989-.059-1.481.018-.224.041-.448.041-.673.003-.988 0-1.977 0-2.966l.002-.05a.7.7 0 0 0-.052-.264l.002.005c-.024.259-.066.517-.069.776-.01.781-.004 1.561-.008 2.342 0 .099-.02.199-.034.329.074.13.036.309.031.48 0 .084-.053.166-.085.256-.24-.042-.359-.212-.459-.37-.112-.177-.178-.385-.254-.583-.015-.039.017-.095.032-.162a1.45 1.45 0 0 1-.162-.772v.004l.312-.102-.111-.245-.187-.047q-.01-.037-.021-.081a2 2 0 0 1-.056-.32l-.001-.007c-.004-1.114-.034-2.229.013-3.34.024-.568.003-1.138.059-1.703.031-.319.019-.639.057-.954.056-.458.074-.919.125-1.378.042-.404.138-.803.17-1.208.034-.43.134-.845.206-1.267.049-.287.142-.566.214-.849.033-.097.063-.215.084-.336l.002-.014c.04-.408.187-.787.319-1.168.326-.95.764-1.843 1.378-2.646.279-.366.527-.756.806-1.124.242-.319.5-.625.763-.928.23-.264.465-.528.716-.774a16.4 16.4 0 0 1 2.834-2.221l.07-.04c.435-.271.958-.554 1.498-.807l.098-.041c.356-.164.816-.342 1.287-.497l.102-.029c.338-.126.775-.257 1.221-.364l.087-.018c.276-.062.548-.142.833-.174.332-.037.66-.114.989-.174.021-.004.042 0 .062 0 .879-.087 1.761-.069 2.641-.064.325.119.672.016 1.004.109.192.054.405.024.609.066.408.084.829.109 1.234.205.763.17 1.404.361 2.027.59l-.109-.035c.975.36 1.808.766 2.593 1.242l-.067-.038c.496.301.916.593 1.319.907l-.03-.023c.407.316.784.671 1.162 1.021.29.269.562.556.841.837.356.359.661.761.981 1.153.37.455.706.932 1.029 1.42.416.63.828 1.26 1.145 1.949.267.573.516 1.256.708 1.963l.021.092q.173.627.307 1.264c.062.298.07.607.138.903.079.345.049.708.176 1.045q.004.021.004.047a.2.2 0 0 1-.004.048v-.002q.004.6.132 1.16l-.007-.036.001.015-.001.016v-.001c.023.433.036.866.069 1.297a29.284 29.284 0 0 1 .043 3.26l.002-.06c-.019.557-.015 1.116-.062 1.67-.025.298-.012.599-.059.891-.062.391-.066.789-.172 1.175a1.8 1.8 0 0 1-.2.437l.004-.007c-.187.077-.326-.021-.494-.097a2 2 0 0 0-.121.222l-.004.01c-.064.19-.111.412-.132.641l-.001.011c-.049.391-.016.786-.067 1.171-.047.355-.032.736-.273 1.052l-.117-.107-.196.148-.215-.032zM1.697 27.34l-.101-.131c-.041.141.037.128.107.125a.144.144 0 0 0 .111.178h.001c0-.034.006-.071-.009-.086a1 1 0 0 0-.107-.085l-.003-.002zm.437-.065c.009-.131-.076-.182-.199-.242a.32.32 0 0 0 .198.241zl-.033.074.244.343.014-.237zm.567-.247-.16-.141v.452l.099.085c.019-.151.071-.269.054-.403.084.011.147-.011.181-.125l-.174.021zm.121.738.089.004c.125-.129.089-.28.062-.457l-.208-.041.044.105-.107.046c.089.079.146.171.125.292l-.202-.066-.149.081.056.272.231-.075-.039-.147zm24.671-3.492c.12-.042.046-.1.023-.137l.078-.33.148.162.132-.069.018.11.04-.02-.066-.083-.166-.258-.193.044-.1-.089-.272.212.062.092-.187.154v.284l.418.166zm-25 2.406c-.089-.048-.174-.119-.33-.135l.26.29zm-.648.292.05-.054c-.109-.049-.149-.179-.285-.21l-.034.087zM18.62 6.348c-.111.038-.175-.144-.284-.038l.197.222c.021-.048.043-.092.086-.184zm2.887 1.758.223.246c0-.214 0-.214-.223-.245zm-5.901-2.162c.045.156.083.221.247.21zm8.22 3.771.051-.034-.097-.134-.041.027zm3.701 13.591.089.086.101-.122zm.717 5.465c-.039-.077-.062-.125-.109-.213v.201zm2.248.272-.062.003.016.216h.035zM29.058 9.705l-.042-.032-.072.085.027.027zm-15.78-5.04.029-.034-.087-.082-.034.037zM.504 20.612l-.053.004.025.138h.028zm26.77 1.347c-.042.111 0 .128.111.125zm3.704 1.794c.118.031.149.004.122-.129zm-.206.335c.033-.036.062-.062.114-.121-.126-.003-.164.019-.116.119zM3.055 27.461c.106-.011.179 0 .107-.116zM.744 20.758v-.033l-.089.009v.029zM13.558 4.334l-.004-.033-.095.011.005.036zm-2.665 2.845v.034l.094-.009v-.033zm.357.028-.003-.032-.097.009.003.033zM1.746 27.718l-.034.004.009.099.039-.004zM21.105 7.487h-.024v.102h.024zm7.131 1.593v-.028l-.102-.005v.033zm.146-.026v.027h.101v-.027zM2.403 28.015l.036-.004-.012-.096-.035.004zm27.783-14.064.056-.004-.017-.094H30.2zm-2.012-4.476c-.024.026-.047.042-.044.049q.016.027.037.047a.5.5 0 0 1 .007-.096m.07 18.246c.03.027.047.049.054.046a.2.2 0 0 0 .049-.039zm1.361.937-.033.004.009.094.036-.004zm-.302.325h-.053l.014.094h.027zm.864-.016-.034.004.01.097.037-.004zm-2.749-4.122-.032.003.009.096.036-.004zM.595 20.946l.032-.004-.011-.084-.031.004z"/><path d="M7.824 28.776h-.183l.04.09-.071.139c-.069-.049-.062-.201-.213-.151-.045.156.164.171.169.322l-.177.039c-.209-.117-.242-.308-.25-.503-.009-.218-.004-.437 0-.655a4.4 4.4 0 0 0-.172-1.207l.008.031a2.4 2.4 0 0 1-.08-.438l-.001-.01c-.029-.307-.045-.615-.069-.922a31.438 31.438 0 0 1-.048-3.322l-.002.059c.016-.526.017-1.055.062-1.578.027-.309.011-.62.057-.923.074-.481.125-.965.222-1.445.173-.806.373-1.489.617-2.152l-.035.109c.141-.405.342-.783.528-1.167a9.8 9.8 0 0 1 1.14-1.806l-.015.02a9.3 9.3 0 0 1 2.274-2.055l.037-.022c.603-.364 1.24-.661 1.932-.812.395-.087.793-.184 1.202-.187s.816-.036 1.215.014c.491.05.93.127 1.359.231l-.068-.014c.382.1.762.201 1.137.324.147.048.214.16.291.269.013.019-.011.062-.019.105.131.106.274.179.458.153l.037.154h.206l.195-.179.289.181-.137.121.125.087.105-.152.103.125.072-.038c.22.158.455.316.678.489.407.312.812.632 1.121 1.054.164.224.355.427.517.652.157.211.318.453.465.704l.021.038c.343.586.638 1.263.85 1.976l.017.066c.104.322.205.729.281 1.145l.01.065c.076.462.159.921.191 1.389.01.149.047.297.076.465-.154-.032-.187-.207-.333-.177l-.101-.131c-.044.136.03.131.102.129l.301.345c.062.485.113.996.039 1.511l-.224.083.101.125.145-.062v.914a1 1 0 0 0-.112.021l.006-.001a.5.5 0 0 0-.089.053l.001-.001.206.156c-.021.154.045.312-.056.454.111.187-.026.375-.006.566a3.5 3.5 0 0 1 0 .575l.001-.013c-.014.287-.043.574-.054.861s.023.587-.015.874c-.066.5-.125 1.004-.277 1.493-.076.241-.176.472-.237.712l-.103.012-.132-.308-.096.042c-.299-.299-.299-.299-.558-.393l.478.538c-.104.152-.066.283-.04.447l.161-.369.187.039q-.002.045-.008.099l-.106.051.036.078-.09.038.042.134-.071.075c-.085.055-.157-.074-.239.014-.014.016-.117-.049-.179-.076l.062-.105c-.221-.266-.404-.574-.729-.741l-.062.052a1.24 1.24 0 0 1-.337-.528l-.002-.009a.23.23 0 0 0-.057-.104c-.23-.21-.263-.505-.307-.779-.075-.463-.103-.937-.151-1.403-.082-.788-.004-1.573-.056-2.36l.121-.153-.082-.048c.011-.062.02-.137.025-.213v-.005c.004-.738.008-1.477 0-2.215 0-.182-.042-.363-.056-.547a3.4 3.4 0 0 0-.055-.539l.003.021c-.046-.196-.037-.404-.067-.608-.125-.871-.317-1.719-.759-2.49a3.4 3.4 0 0 0-.418-.572l.002.003a9 9 0 0 0-1.63-1.409l-.032-.02c-.567-.379-1.196-.601-1.834-.805-.191-.062-.405-.051-.608-.077-.131-.016-.263-.062-.392-.051-.468.032-.937.052-1.394.179a5.7 5.7 0 0 0-1.089.396l.034-.015c-.492.25-.972.525-1.385.899-.183.167-.378.322-.551.5a7.1 7.1 0 0 0-1.284 1.776l-.019.04c-.149.31-.264.67-.326 1.047l-.003.023c-.151.849-.117 1.707-.119 2.561 0 2.153 0 4.307-.008 6.459a3.1 3.1 0 0 1-.293 1.256l.008-.019c-.011.026-.043.042-.079.076l-.144-.115.057-.122-.759-.468-.094.102.18.089.303.352-.111.047a.7.7 0 0 1 .034.147v.003a.6.6 0 0 1-.035.148l.001-.004-.132-.057.072-.187c-.125.029-.125.029-.192.121-.147-.179-.287-.365-.5-.487l.045-.128-.086-.079-.1.262.353.232c.031.052.063.115.091.18l.005.012c.016.048.029.107.039.167l.001.007-.093.045.148.077-.217.08.004-.034a.156.156 0 0 0-.128-.153h-.001c-.021-.177-.136-.26-.324-.329.104.156.167.292.327.327l-.004.034c0 .076.055.14.128.153h.001c.036.062.072.131.109.196l.062-.04-.032-.054.159-.155c.096-.014.062.191.187.091l-.039-.076.11-.057v-.153l.125.194.006-.007-.254.403-.403.212-.222-.24h.234l-.154-.083.056-.143-.129-.017zm16.109-8.931c-.019-.067-.048-.094-.121-.007h.125c0 .052-.023.116.062.125l.125.164c-.014-.083-.009-.125-.023-.131a.4.4 0 0 0-.105-.026h-.002c-.005-.05.022-.114-.061-.125M7.137 26.898c.018.068.049.092.119.014l-.125-.007-.019-.109-.041.021zm16.67-5.99c-.011-.204-.01-.204-.211-.234l.217.228-.05.107.086.073.049-.1.219.096.011-.199.109-.077-.101-.046.04-.105-.121.008-.043-.094-.17.148h.16l-.195.192zm-1.142-1.175c.051-.154.089-.268.125-.382l-.051-.017-.116.225c-.169-.145-.312-.271-.463-.393a1 1 0 0 0-.131-.072l-.005-.002-.025.039zm1.46 1.867.116.213-.046.074.101.009v-.295zm-.547-.461c-.159.032-.147.125-.144.212zM7.855 25.086l-.036.036.067.082.052-.052zm16.489-4.063-.106.122c.117.006.153-.02.108-.119zm-3.955-8.975v.03h.157v-.03zm3.721 8.313-.05.004.022.142h.028zm-2.197-1.326c.007-.039.024-.08.014-.089a.6.6 0 0 0-.141-.058l-.004-.001zM7.906 27.28v.055l.093-.013v-.027zm.424.448.004.035.094-.011-.004-.036zm14.558-7.893c-.041-.032-.058-.052-.067-.05-.018.006-.032.025-.047.039zm-14.149-.011-.006-.038-.084.016.005.032zm15.553 2.186-.007-.039-.082.018.007.034zm-16.76 6.331v.056l.092-.014v-.026zm.642-3.442v-.055l-.094.016v.026z"/><path d="m18.409 19.911.087.167v.413l-.14.088c0 .116.022.218-.006.305s-.07.199-.211.221v.017a.57.57 0 0 1-.157.393c-.395.424-.827.798-1.358 1.048-.423.2-.86.332-1.33.271a3.14 3.14 0 0 1-1.709-.745l.004.003c-.464-.402-.712-.918-.821-1.499-.051-.272-.019-.562-.017-.84 0-.625.219-1.177.601-1.667.489-.629 1.154-.999 1.893-1.233.365-.117.749-.175 1.124-.254a2 2 0 0 1 .309.001h-.007c-.363.236-.503.554-.631.908.687.054 1.201.395 1.658.83.338.312.585.717.703 1.174l.004.017c.026.111.004.233.004.384zm-2.84-1.383c-.006.071 0 .136.135.116l-.142-.108a.5.5 0 0 0-.189-.199l-.002-.001c.031.149.088.204.199.192zm2.249.562c-.011.137.083.197.187.25l.096.269.109-.067c-.059-.086-.111-.164-.208-.2.003-.132-.085-.197-.187-.25-.049-.101-.108-.187-.268-.183.096.089.14.201.27.181zm-1.562.125c.019.062.046.094.114.015l-.121-.008c0-.131-.018-.266.062-.387.004-.006-.017-.028-.034-.054l-.142.205c-.109-.062-.178-.187-.321-.149.179.091.248.303.441.378zm1.243.943.059-.125c-.132.044-.132.044-.053.119l-.092.174-.086-.032v.165c.116-.062.192.008.267.054l.153-.317-.066-.086zm.263 1.417.035-.01.05-.351c-.028-.038-.077-.112-.134-.179-.007-.009-.052.014-.106.031l.121.125c.012.147.023.263.034.382zm.179-.644-.031-.169-.207.106c.051.096.119.132.237.061zm-.996-.129.207-.219c-.155.027-.217.065-.208.217zm.875-.148.197-.109h-.197zm-.5-.45-.107-.114-.125.114zm.312.532v.026h.102v-.026zm.346-1.074-.032.003.009.097.036-.004c.002-.034-.004-.066-.008-.098zm-.525-.266.034-.004-.012-.093-.036.004zm-3.623-.722.004.036.087-.012-.003-.029zM1.327 28.459l.062-.062.103.049.042-.1.222.125v.34l-.22.031-.209-.223zM22.876 28.334c-.039-.008-.093-.003-.114-.027a5 5 0 0 1-.322-.412l-.01-.016c.264.151.298.187.437.46zM29.865 29.583l.23.257c-.239-.027-.344-.129-.408-.32l.187.07zM29.678 29.958c-.14.09-.14.092-.299-.026v-.262c.071.135.112.292.307.292zM8.824 28.214v-.297l.242.187-.015.036-.144-.033-.091.103z"/><path d="m29.685 29.963-.099-.266.312.259h-.222zM8.816 28.209l.072.145-.145.13-.046-.087-.006.007q.031-.056.067-.109c.036-.053.043-.053.062-.079zM27.618 22.963l-.011.162-.144-.147.16-.008zM27.623 22.967c.03-.112.102-.062.178-.042l-.073.089-.11-.051zM29.11 29.287c.112-.021.138.011.114.121zM29.744 29.346l-.197.131a.4.4 0 0 1 .041-.131l-.001.003c.01-.014.049-.002.157-.002zM1.841 28.453l-.011-.096.036-.004.009.097zM.079 24.752l.014-.092h.028l.014.091zM2.444 29.172l-.012.092h-.026l-.016-.092zM22.87 28.338l.069.081-.041.023-.022-.109zM27.498 24.279c-.177-.035-.182-.042-.196-.254z"/></svg>