<svg xmlns="http://www.w3.org/2000/svg" width="800" height="800" fill="#fff" viewBox="0 0 32 32"><title>patrol</title><path d="M3.612 28.413c0-2.16.05-3.897 0-5.63a14 14 0 0 0-.44-2.965l.022.098a15 15 0 0 1-.473-3.775c0-1.806.313-3.538.887-5.147l-.033.107C5.17 6.4 10.176 2.964 15.488 2.964c1.715.041 3.353.17 4.964.385l-.23-.025c1.306.138 2.62.255 3.935.306s2.608 0 4.186 0c0 1.565.046 2.867.033 4.186.021 1.837.236 3.612.627 5.321l-.032-.168c1.884 9.661-5.408 16.492-12.465 16.324-1.582-.033-3.156-.419-4.738-.565a66 66 0 0 0-4.14-.306c-1.226-.046-2.461-.008-4.014-.008zm12.411-.196c7.266 0 12.063-5.86 12.063-12.21 0-7.116-5.128-12.088-12.109-12.063-7.132.025-12.084 5.128-12.063 12.105.025 7.137 3.926 11.13 12.109 12.168"/><path d="M21.862 10.272c-2.093 4.47-4.127 8.748-6.325 13.394-.059.105-2.03-5.023-2.03-5.023l-5.023-1.72z"/><path d="M29.3 7.137v.067l-.001.149q0 1.274.162 2.506l-.01-.097c.869 1.814 1.377 3.943 1.377 6.191v.044-.002c-.054 8.156-6.679 14.747-14.842 14.747a14.8 14.8 0 0 1-5.512-1.057l.1.035q-1.519-.146-3.043-.222c2.402 1.515 5.324 2.414 8.455 2.414 8.81 0 15.959-7.115 16.014-15.912v-.037c0-3.293-1.009-6.35-2.735-8.879zM2.553 23.374c0-.486-.067-.975-.134-1.461-.785-1.734-1.243-3.76-1.243-5.893v-.027.001C1.231 7.843 7.851 1.257 16.01 1.257c2.179 0 4.249.47 6.113 1.314l-.093-.038q1.352.121 2.704.18h.071A15.87 15.87 0 0 0 16.019.088C7.212.088.065 7.196.001 15.988v.028c0 3.216.964 6.207 2.619 8.7l-.036-.058a46 46 0 0 0-.029-1.285z"/></svg>