<svg xmlns="http://www.w3.org/2000/svg" width="800" height="800" fill="#fff" viewBox="0 -336 1557 1557"><title>Asset 1</title><g data-name="Layer 2"><path d="M158 885v-73H0v73Zm1099 0v-73H300v73Zm300 0v-73h-158v73Zm-317-491a239 239 0 0 1 14.5 24q7.5 14 8.5 21 2 12-5.5 32t-17.5 27q-52 30-147 28t-158-28q-26-11-45.5-37.5T870 393q0-64 51-130L779 0 636 263l13 19q13 18 25.5 50.5T687 393q0 41-19.5 67.5T622 498q-63 26-158 28t-147-28q-10-7-18-27t-6-32q3-15 31-56l-85-144-40 152 101 372h957l101-372-40-152-85 144Z" data-name="Layer 1"/></g></svg>