<svg xmlns="http://www.w3.org/2000/svg" width="800" height="800" fill="#fff" viewBox="0 0 32 32"><title>raid</title><path d="M22.073 13.628c.014.539.042 1.134.04 1.73.004.441.083.863.225 1.254l-.008-.026c.114.286.211.625.275.976l.005.034c.117.866-.351 1.362-1.06 1.74a.3.3 0 0 1-.145.037h-.01a.5.5 0 0 1-.14-.046l.003.001c-.047-.17.051-.276.116-.391.082-.142.17-.276.245-.421.189-.376.136-.664-.169-.95a2 2 0 0 0-.178-.135l-.007-.004c-.475-.1-.822.148-1.167.387-.489.337-.772.785-.749 1.4q.016.367 0 .734c-.011.199-.047.397-.073.618h-.462c-.183-.149-.23-.374-.254-.579-.099-.808-.6-1.246-1.322-1.474a3.8 3.8 0 0 0-1.221-.195 3.9 3.9 0 0 0-1.346.238l.027-.009c-.67.237-1.133.665-1.223 1.418a1 1 0 0 1-.259.608l.001-.001h-.459c-.029-.209-.07-.408-.082-.602a7 7 0 0 1 0-.775c.023-.532-.199-.951-.602-1.268a3.6 3.6 0 0 0-.704-.428l-.022-.009c-.163-.075-.361-.076-.537-.108a3 3 0 0 0-.305.255l.001-.001c-.221.245-.282.519-.122.821.088.163.196.326.279.494.056.113.176.218.082.398-.062 0-.152.038-.212.009-.519-.245-.95-.589-1.096-1.174-.093-.375-.026-.753.092-1.118.091-.282.204-.558.275-.844a3.7 3.7 0 0 0 .095-.712v-.007c.017-.326 0-.652.012-.979a12 12 0 0 1 .07-.888.55.55 0 0 1 .301-.454l.003-.001c.321-.143.477-.408.66-.685a5.87 5.87 0 0 1 3.255-2.416l.041-.01a6.2 6.2 0 0 1 1.753-.248q.45 0 .884.061l-.033-.004c1.18.144 2.202.619 3.111 1.354.503.41.922.901 1.242 1.456l.013.025c.091.163.193.296.363.365.221.089.335.268.5.548zm-4.7-.925c.032.414.065.871.101 1.328.039.503.326.779.702.879.734.197 1.479.278 2.226.363a.532.532 0 0 0 .527-.233l.001-.002c.167-.245.245-1.087-.057-1.386-.28-.281-.563-.532-.952-.665-.665-.228-1.351-.352-2.039-.462-.152-.025-.33-.065-.511.179zm-2.763-.111a1 1 0 0 0-.288-.071h-.004a3.6 3.6 0 0 0-.664.082l.024-.004c-.562.13-1.134.239-1.678.425-.769.263-1.146.885-1.035 1.625.082.524.32.667.767.622.401-.04.802-.089 1.2-.158.33-.058.652-.152.979-.227.364-.082.552-.349.617-.68a5.7 5.7 0 0 0 .082-1.635l.002.023zm2.304 3.963c.051-.108.11-.227.163-.348.122-.285.112-.592.064-.882a3.5 3.5 0 0 0-.669-1.558l.006.009c-.286-.382-.641-.373-.937.006-.016.021-.024.049-.041.07a3.4 3.4 0 0 0-.608 1.419l-.003.021a1.75 1.75 0 0 0 .07.974l-.004-.012c.122.326.356.417.676.269.061-.029.115-.072.177-.098.095-.041.193-.073.283-.106.234.208.457.356.824.236z"/><path d="m6.806 18.011.339 1.769c.39.124.576.445.74.796.23.489.478.97.722 1.452.163.316.216.637.044 1.003l1.027 1.459c.391-.046.689.141.979.391.356.312.741.59 1.107.891.252.206.508.412.599.752l1.603.299v1.158l-2.046-.373c.035-.006 0-.009-.017.004-.438.254-.828.145-1.195-.154q-.676-.551-1.357-1.1c-.307-.249-.519-.541-.517-.964 0-.12-.087-.25-.163-.358-.336-.489-.682-.979-1.037-1.482a1.02 1.02 0 0 1-.76-.607l-.003-.007c-.245-.527-.512-1.044-.777-1.561-.208-.408-.312-.811-.029-1.196l-.382-2.138.051-.015c-.061-.071-.126-.139-.183-.214a1.07 1.07 0 0 1-.199-.928l-.002.007c.128-.619.265-1.236.4-1.854.09-.408.206-.561.6-.816q.367-.964.734-1.917c-.017-.188-.038-.373-.05-.559v-.027c0-.176.062-.337.165-.463l-.001.001q.566-.768 1.134-1.534.114-.149.244-.271l.001-.001c.266-.254.571-.352.914-.216l1.824-.858c.108-.524.483-.749.979-.874.561-.144 1.102-.343 1.673-.523v.422c-.687.284-1.432.382-2.15.758.507.141.608.471.505.941l1.646-.495.023.426c-.496.154-.979.326-1.468.444-.224.051-.476-.016-.794-.035l-1.537.721c-.034.369-.209.648-.426.917-.305.378-.579.782-.873 1.171-.306.408-.309.401-.802.592-.198.516-.408 1.067-.631 1.64.285.331.28.711.171 1.129a23 23 0 0 0-.346 1.66c-.059.313-.238.538-.476.736zm-.326-3.394a.85.85 0 0 0-.327.546l-.001.005q-.196.886-.379 1.774a4 4 0 0 0-.04.394v.008l.272.304c.215-.159.408-.035.583-.009a.66.66 0 0 0 .283-.449v-.004c.133-.604.271-1.205.396-1.81.042-.2.056-.408-.126-.579a.607.607 0 0 1-.657-.18l-.001-.001zm3.255-4.322-.45-.687c-.377.073-.408.087-.576.311-.33.439-.664.884-.99 1.336-.108.148-.194.311-.301.484.549.059.549.059.897.531.013 0 .032 0 .038-.012.448-.593.897-1.186 1.337-1.784a.4.4 0 0 0 .048-.18v-.001zm1.874 16.985.308-.809a40 40 0 0 0-1.876-1.532c-.082.188-.128.385-.245.515s-.302.176-.472.268c.123.224.349.335.533.489.395.326.798.647 1.2.967.173.141.361.243.551.101zm-3.297-4.499a.688.688 0 0 0-.078-.555l.002.003c-.273-.541-.542-1.085-.816-1.627-.046-.092-.108-.177-.184-.299-.197.431-.499.544-.931.384a.8.8 0 0 0 .034.215l-.002-.006q.481.979.968 1.957a.45.45 0 0 0 .35.263h.002c.162-.2.367-.341.653-.335zM18.038 26.968l1.423-.305c.163-.522.648-.78 1.034-1.13.26-.236.548-.443.809-.678.223-.201.463-.326.79-.271l1.005-1.478a.2.2 0 0 0 .013-.077 1.653 1.653 0 0 1 .273-1.238l-.004.005c.25-.384.452-.801.664-1.208.163-.32.36-.605.734-.719l.417-1.794c-.313-.214-.426-.552-.502-.92a18 18 0 0 0-.378-1.567c-.113-.376-.034-.689.175-1.023l-.665-1.624a1.2 1.2 0 0 1-.764-.497l-.003-.004c-.339-.457-.702-.897-1.056-1.34a1.5 1.5 0 0 1-.368-.92v-.004c-.345-.182-.683-.351-1.011-.537-.13-.074-.266-.109-.387-.048-.211.106-.408.037-.589-.033-.529-.199-1.05-.42-1.592-.639v-.428c.636.188 1.2.501 1.823.687-.09-.524-.017-.665.453-.908-.027-.151-.163-.163-.27-.209-.661-.269-1.325-.53-2.009-.802V6.92c.041-.011.082-.037.116-.028.192.056.388.11.571.184.501.2.997.408 1.496.616.451.185.581.332.714.84.241.125.504.259.765.398.179.095.35.208.533.293.111.055.241.092.378.103h.004c.339.008.635.181.813.442l.002.003q.553.752 1.147 1.474c.274.332.374.679.204 1.081l.785 1.957c.342.192.583.53.638.927l.001.007c.119.655.258 1.209.427 1.749l-.028-.103c.141.483.054.876-.337 1.188.007.543-.183 1.04-.288 1.549-.035.171-.092.338-.117.511a.745.745 0 0 0 .029.322l-.001-.005a1.269 1.269 0 0 1-.126 1.057l.003-.006c-.29.503-.571 1.015-.841 1.527-.183.341-.43.588-.838.621-.346.508-.685 1.013-1.032 1.514a.7.7 0 0 0-.135.456v-.002c.012.326-.147.566-.389.767-.448.371-.904.734-1.335 1.126-.408.369-.835.48-1.294.237l-1.876.391c0-.229-.006-.415-.007-.6s.002-.351.002-.55zm6.625-11.763c.17.711.332 1.362.478 2.016.047.207.116.385.303.503h.564c.228-.196.315-.398.224-.714-.156-.54-.237-1.101-.375-1.647-.06-.238-.09-.515-.377-.635q-.135.097-.298.165l-.01.004a2 2 0 0 1-.394.039zm0 5.131c-.396.728-.741 1.369-1.092 2.007-.082.155-.075.31-.039.502.295-.048.44.188.606.349a.59.59 0 0 0 .414-.33l.002-.004c.32-.595.648-1.187.966-1.784a1 1 0 0 0 .048-.26v-.003c-.44.13-.718-.019-.907-.479zm-2.104 5.425c-.605-.163-.646-.21-.709-.771-.638.433-1.17.968-1.756 1.435a1.3 1.3 0 0 0-.188.245l-.003.006.253.326.047.376c.057.019.126.037.198.05l.009.001.042.001q.095 0 .185-.011l-.007.001c.639-.518 1.291-1.041 1.926-1.659zm1.947-13.896c-.408-.664-.897-1.201-1.332-1.775-.086-.113-.17-.245-.316-.266-.09.163-.144.342-.265.446s-.304.128-.461.187c.119.316 1.233 1.734 1.538 1.953.045-.482.366-.585.833-.545z"/><path d="M12.461 22.281c.258.06.258.06.489-.049.135-.614.56-1.036 1.103-1.309 1.092-.549 2.226-.695 3.4-.223.435.177.834.38 1.16.719.235.245.358.534.497.869l.427.019c.137-.216.218-.478.218-.76l-.001-.066v.003q.007-.794.005-1.589v-.006c0-.268.058-.522.162-.751l-.005.011c.069-.155.169-.245.37-.183.189.372.115.778.095 1.178-.007.121-.035.24-.041.36-.033.677-.039 1.355-.101 2.029-.043.423-.132.81-.261 1.177l.011-.035c-.233.691-.996.95-1.621.578-.303-.179-.59-.387-.904-.541-.3-.16-.649-.299-1.014-.399l-.036-.008a2.04 2.04 0 0 0-1.397.189l.011-.005c-.435.212-.849.468-1.277.696-.159.099-.342.18-.537.232l-.014.003c-.516.099-1.04-.315-1.161-.703a5.8 5.8 0 0 1-.258-1.107l-.003-.031c-.062-.577-.065-1.162-.095-1.744-.022-.418-.059-.836-.067-1.255a4 4 0 0 1 .072-.609l-.004.026c.201-.098.34-.04.394.118.086.217.146.468.17.73l.001.011c.027.542.009 1.086.014 1.631.007.291.079.563.201.806l-.005-.011zM15.026 8.933V6.205l-.282-.198h-.752l-.236.298h-.82V4.78h.822l.168.221h1.317c.163-.156.153-.385.185-.59.126-.806.092-1.619.092-2.43a1 1 0 0 0-.023-.149l.001.007-.365-.021V.476c.347.005.626-.163.846-.476q.139.061.248.14l-.004-.003c.309.282.307.285.675.343v1.313l-.287.057c-.013.021-.038.042-.038.064-.024 1.492-.025 2.484.219 3.081h1.313l.191-.228h.762c.073.287.082 1.06.02 1.539h-.779l-.245-.293h-.748l-.316.195v2.716a5.576 5.576 0 0 0-2.002.014l.035-.005z"/><path d="M15.026 24.603c.677-.356 1.314-.379 1.975-.005v.367c0 1.359.012 2.717-.016 4.078a6.5 6.5 0 0 1-.411 2.221l.015-.045a4 4 0 0 1-.256.535l.012-.022a3 3 0 0 1-.189.268l.004-.005h-.259a.5.5 0 0 1-.085-.076c-.353-.464-.5-1.01-.612-1.567-.17-.84-.189-1.691-.181-2.545.01-1.057.006-2.117.006-3.203z"/></svg>