<?xml version="1.0" encoding="UTF-8" standalone="no"?>
<!DOCTYPE svg PUBLIC "-//W3C//DTD SVG 1.1//EN" "http://www.w3.org/Graphics/SVG/1.1/DTD/svg11.dtd">
<svg width="100%" height="100%" viewBox="0 0 1024 1024" version="1.1" xmlns="http://www.w3.org/2000/svg" xmlns:xlink="http://www.w3.org/1999/xlink" xml:space="preserve" xmlns:serif="http://www.serif.com/" style="fill-rule:evenodd;clip-rule:evenodd;stroke-linejoin:round;stroke-miterlimit:2;">
    <g transform="matrix(1,0,0,1,0,0.62994)">
        <path d="M463.464,984.661C223.864,960.354 36.891,758.014 36.891,511.992C36.891,249.595 249.595,36.891 511.992,36.891C774.397,36.891 987.109,249.595 987.109,511.992C987.109,762.671 792.984,967.998 546.86,985.849L546.86,690.959C699.504,670.752 817.241,541.159 817.241,384.291C817.241,213.403 677.52,74.877 505.158,74.877C332.804,74.877 193.084,213.403 193.084,384.291C193.084,541.161 310.823,670.755 463.464,690.96L463.464,984.661ZM246.433,381.622C246.433,238.725 362.268,122.889 505.158,122.889C648.056,122.889 763.892,238.725 763.892,381.622C763.892,524.512 648.056,640.356 505.158,640.356C362.268,640.356 246.433,524.512 246.433,381.622Z" style="fill:url(#_Radial1);"/>
    </g>
    <defs>
        <radialGradient id="_Radial1" cx="0" cy="0" r="1" gradientUnits="userSpaceOnUse" gradientTransform="matrix(950.218,0,0,948.959,36.8908,511.37)"><stop offset="0" style="stop-color:rgb(231,231,231);stop-opacity:1"/><stop offset="1" style="stop-color:rgb(109,109,109);stop-opacity:1"/></radialGradient>
    </defs>
</svg>
